<svg xmlns="http://www.w3.org/2000/svg" version="1.1" xmlns:xlink="http://www.w3.org/1999/xlink" preserveAspectRatio="xMinYMin meet" x="0px" y="0px" width="800px" height="600px" viewBox="-20 -40 800 600">
<g id="Arm_R">
<g transform="matrix( -1, 0, 0, 1, -0.1,0) ">
<g id="Arm_L">
<g id="Layer0_0_FILL">
<path fill="#3F4152" stroke="none" d="
M 8.6 -14.4
L 8.1 -14.9 -8.2 -15 -8.65 -14.55
Q -8.65 -4.45 -3 4 -2.6 4.6 -1.8 4.85 1.15 6.15 3.25 4.1 5.85 1.6 7.3 -1.8 7.65 -3.75 8.1 -6.15 8.45 -9.2 8.6 -14.4 Z"/>

<path fill="#53B5B5" stroke="none" d="
M 7.6 -17.9
L 4.7 -17.65 -0.2 -17.15 -5.15 -17.55 -7.85 -17.55 -8.2 -15 8.1 -14.9 8.6 -14.4
Q 8.6 -15.1 8.6 -15.9
L 7.6 -17.9 Z"/>

<path fill="#FFDBC4" stroke="none" d="
M 4.7 -17.65
Q 5.2 -19.8 3.5 -21.15 1.15 -22.95 -2.05 -22.05 -5.4 -20.95 -5.15 -17.55
L -0.2 -17.15 4.7 -17.65 Z"/>
</g>

<g id="Layer0_1_FILL">
<path fill="#407373" stroke="none" d="
M -3.85 -11.5
Q -3.95 -11.2 -3.95 -10.9 -4.05 -8.6 -4 -6.3 -4 -5.6 -3.9 -4.85 -3.85 -4.45 -3.7 -4
L -2.9 -4.05
Q -2.8 -6.6 -2.9 -9.1 -2.95 -10.55 -3.5 -11.75
L -3.85 -11.5
M -1.5 -12.15
L -1.8 -11.8 -2.1 -4.3 -1.15 -4.35
Q -0.8 -7.85 -1.35 -11.6 -1.4 -11.9 -1.5 -12.15 Z"/>

<path fill="#556680" stroke="none" d="
M 0.15 -12.3
Q 0.55 -12.25 0.5 -12.75 -2.25 -13.5 -5.15 -12.95 -5.4 -12.9 -5.6 -12.8 -5.8 -12.2 -5.8 -11.6 -5.85 -10.35 -5.7 -9.1 -5.45 -6.9 -5.55 -4.8 -5.7 -2.65 -4.5 -1.15
L 0.5 -1.75 -0.5 -11.3
Q -1.1 -6.9 -0.25 -2.5
L -4 -2.3 -5 -12.3
Q -2.45 -12.3 0.15 -12.3 Z"/>
</g>
</g>
</g>
</g>
</svg>
