
<svg xmlns="http://www.w3.org/2000/svg" version="1.1" xmlns:xlink="http://www.w3.org/1999/xlink" preserveAspectRatio="xMinYMin meet" x="0px" y="0px" width="800px" height="600px" viewBox="-80 -40 800 600">
<g id="Bang_L">
<path fill="#9CEBDA" stroke="none" d="
M -41.5 11.25
Q -50.55 19.4 -55.9 30.4 -61.8 42.6 -61.8 56.65 -58.35 43.95 -53 32.1 -50.6 26.6 -47.7 23
L -48.4 27.15 -47.55 28.55
Q -47.05 25.75 -43.55 22.95 -43.25 25.15 -41.1 25.65 -34.3 27.6 -27.4 28.3 -36.15 26.75 -41.8 23.55 -43.45 21.9 -40.25 17.55
L -46 23.2
Q -43.2 15.85 -36.95 11 -27.5 3.75 -18.05 -3.4 -31.15 1.85 -41.5 11.25 Z"/>

<path fill="#42B5A8" stroke="none" d="
M 5.7 -6.7
L 5.9 -7.1
Q 4.05 -9.6 -3.1 -8.45 -10.3 -7.3 -6.8 -7.15 -12.75 -5.5 -18.05 -3.4 -27.5 3.75 -36.95 11 -43.2 15.85 -46 23.2
L -40.25 17.55
Q -43.45 21.9 -41.8 23.55 -36.15 26.75 -27.4 28.3 -34.3 27.6 -41.1 25.65 -43.25 25.15 -43.55 22.95 -47.05 25.75 -47.55 28.55
L -48.4 27.15 -47.7 23
Q -50.6 26.6 -53 32.1 -58.35 43.95 -61.8 56.65 -61.75 63.45 -59.9 70.1 -55.6 52.55 -46.45 45.2 -52.25 65.45 -44 82.65 -35.75 99.8 -30.4 104.85
L -31.5 102.6 -30.8 103.1
Q -32.3 95.3 -32.15 87.4 -31.95 70.75 -26.2 55.55 -26.65 58.35 -26.9 61.15 -27.55 67.9 -27.2 74.75 -26.85 72.85 -26.25 70.05 -23.5 56.9 -16.9 41.75 -10.4 26.55 1.1 15.5 7.75 9.1 8.1 -0.05 8.25 -3.75 5.7 -6.7 Z"/>
</g>

</svg>
