<svg xmlns="http://www.w3.org/2000/svg" version="1.1" xmlns:xlink="http://www.w3.org/1999/xlink" preserveAspectRatio="xMinYMin meet" x="0px" y="0px" width="800px" height="600px" viewBox="-80 -40 800 600">
<g id="Layer0_0_FILL">
<path fill="#9CEBDA" stroke="none" d="
M 1.8 34.35
Q 5.15 35.7 13.4 37.3 22.5 39.1 25.15 33.9 25.55 35 25.75 36.05 26.3 39.15 26.35 43.2 28.4 41.4 28.35 40.75
L 28.35 40.7
Q 29.35 39.55 30.55 36.3 32.1 44.1 32.3 51.9
L 32.35 46.85
Q 32.75 61.55 28.25 77.65
L 28.9 75.9
Q 31.5 67.15 32.8 58.35 34.5 46.35 33.7 34.4 32.95 23.45 29.75 13.25 32 23.3 31.4 33.45
L 29.5 30.05 28.15 37.75
Q 27.65 35.95 27.35 34.2 27.15 32.6 26.3 29.5 24.35 31.9 23.3 33.2 21.1 36.05 17.1 36 9.3 36.15 1.8 34.35
M -11.4 33.9
L -13.35 32.95 -11.45 37.8
Q -10.35 35.8 -11.4 33.9
M -2.3 34
Q -9.25 31 -9.75 30.65 -17.15 24.7 -19 15.05 -19.05 21.5 -17.2 27.6 -17.2 27.65 -17.15 27.7 -17 28.2 -16.8 28.85 -17 28.8 -17.2 28.8 -18.55 28.7 -16.5 29.7 -15.85 31.5 -15 33.35
L -13.35 32.95
Q -14.5 32 -15.05 30.75 -15.2 30.5 -15.25 30.25 -9.45 32.95 -2.3 34 Z"/>

<path fill="#42B5A8" stroke="none" d="
M -17.15 27.7
Q -17.2 27.65 -17.2 27.6 -18.25 27.05 -19.95 26.3 -18.25 27.15 -17.15 27.7
M -9.75 30.65
Q -9.25 31 -2.3 34 -9.45 32.95 -15.25 30.25 -15.2 30.5 -15.05 30.75 -14.5 32 -13.35 32.95
L -11.4 33.9
Q -10.35 35.8 -11.45 37.8 -7.2 48.1 -2.3 57.95 2.65 67.75 8.25 77.25
L 8.4 50.4 21.6 95.1 28.25 77.65
Q 32.75 61.55 32.35 46.85
L 32.3 51.9
Q 32.1 44.1 30.55 36.3 29.35 39.55 28.35 40.7
L 28.35 40.75
Q 28.4 41.4 26.35 43.2 26.3 39.15 25.75 36.05 25.55 35 25.15 33.9 22.5 39.1 13.4 37.3 5.15 35.7 1.8 34.35 9.3 36.15 17.1 36 21.1 36.05 23.3 33.2 24.35 31.9 26.3 29.5 27.15 32.6 27.35 34.2 27.65 35.95 28.15 37.75
L 29.5 30.05 31.4 33.45
Q 32 23.3 29.75 13.25 25.55 1.75 14.8 -4.05 6.05 -8.8 -4.1 -9.1 -16.2 0.25 -19 15.05 -17.15 24.7 -9.75 30.65 Z"/>
</g>
</svg>
