<svg xmlns="http://www.w3.org/2000/svg" version="1.1" xmlns:xlink="http://www.w3.org/1999/xlink" preserveAspectRatio="xMinYMin meet" x="0px" y="0px" width="800px" height="600px" viewBox="-80 -40 800 600">
<g id="Bang_M">
<path fill="#9CEBDA" stroke="none" d="
M -25.5 16.8
Q -26.25 12.65 -24.15 7.9 -28.4 16.75 -29.15 26.5 -30 37.5 -27.4 48.2
L -26.75 50.1
Q -29.5 39.1 -27 33.35 -24.55 27.55 -24.35 27 -21.7 29.9 -11 28.45 -10.6 28.4 -10.2 28.35 -18.65 29.05 -21.65 25.35 -24.65 21.6 -25.5 16.8
M 5.95 29.4
Q 12.2 31.75 12.25 37
L 16.15 15.75
Q 12.9 26.4 1.75 27.55 -1.35 27.7 -4.45 27.95 1.75 27.8 5.95 29.4 Z"/>

<path fill="#42B5A8" stroke="none" d="
M 17.35 -0.85
L 9 -9.9
Q 6.95 -9.8 4.95 -9.65 -1.95 -9.35 -8.45 -6.6 -17.9 -2.45 -23.35 6.35 -23.6 6.8 -23.85 7.25
L -24.15 7.9
Q -26.25 12.65 -25.5 16.8 -24.65 21.6 -21.65 25.35 -18.65 29.05 -10.2 28.35 -10.6 28.4 -11 28.45 -21.7 29.9 -24.35 27 -24.55 27.55 -27 33.35 -29.5 39.1 -26.75 50.1
L -27.4 48.2
Q -25.05 56.2 -20.9 63.45 -19.45 65.9 -17.95 68.4
L -12.2 45.15
Q -10.6 56.7 -4.8 66.5 -3.85 68.15 -2.8 69.8 -1.75 71.35 -0.65 72.9 5.5 59.9 9.65 46.1 10.3 43.85 10.95 41.55 11.6 39.3 12.25 37 12.2 31.75 5.95 29.4 1.75 27.8 -4.45 27.95 -1.35 27.7 1.75 27.55 12.9 26.4 16.15 15.75
L 17.35 -0.85 Z"/>
</g>
</svg>
