
<svg xmlns="http://www.w3.org/2000/svg" version="1.1" xmlns:xlink="http://www.w3.org/1999/xlink" preserveAspectRatio="xMinYMin meet" x="0px" y="0px" width="800px" height="600px" viewBox="-80 -40 800 600">
<g id="Belt">
<g id="Layer0_0_FILL">
<path fill="#449998" stroke="none" d="
M -3.8 19.85
Q -2.8 20.8 -1.55 21.1 -0.95 21.3 -0.35 21.3
L -0.95 19.3
Q -1.35 19.25 -1.75 19 -1.8 18.95 -1.85 19 -2.7 19.6 -3.8 19.85
M -5.4 4.15
Q -5.4 4 -5.35 3.9
L -7.1 3.55
Q -7.15 3.8 -7.15 4.1 -7.2 4.6 -7.25 5.25 -7.35 6.45 -7.25 7.85 -7.3 8.8 -7.2 9.9 -7.2 9.95 -7.15 10.1 -7 12.35 -6.2 15 -6.1 15.15 -6.05 15.35 -6 15.7 -5.9 16.05 -5.35 17.45 -4.7 18.55
L -3.5 16.35
Q -3.65 16 -3.85 15.65 -3.85 15.55 -3.85 15.5
L -5.85 15.35
Q -5.45 15.1 -5.05 14.6 -4.75 14.2 -4.45 13.75 -4.5 13.65 -4.5 13.55 -4.65 12.95 -4.85 12.4 -5 11.9 -5 11.4
L -6.95 10.9 -5.45 9.45
Q -5.55 9.2 -5.55 8.9 -5.6 8.5 -5.6 8
L -7.15 7.7 -5.55 6.2
Q -5.55 5.45 -5.45 4.65 -5.45 4.45 -5.4 4.15
M -7.05 2.95
L -5.25 1.9
Q -5.25 1.3 -5.2 0.75 -5.25 -0.05 -5.45 -0.6 -6.3 -0.25 -6.6 0.75 -6.65 1.05 -6.7 1.4 -6.9 2.1 -7.05 2.95
M 2.05 17.9
Q 1.7 18.2 1.3 18.4
L 0.45 21.25
Q 1.85 20.85 3.15 19.6
L 2.05 17.9
M 5.2 16.6
Q 5.4 16.2 5.6 15.9 5.5 15.8 5.45 15.8 4.8 15.65 4.25 15.45
L 3.7 18.9
Q 4.45 17.95 5.2 16.6
M 8.2 7.75
L 6 8.95 7.55 10.3
Q 8 8.7 8.2 7.75
M 5.3 11.65
Q 5.2 12 5.1 12.3 5.95 13.25 6.35 14.25 6.9 12.8 7.35 11.15 7.25 11.15 7.1 11.2 6.15 11.5 5.3 11.65
M 8.75 2.65
L 6.7 4
Q 6.65 4.75 6.55 5.5 7.45 5.9 8.55 6.25 8.7 4.95 8.75 2.65
M 9.05 -1.8
L 9.3 -3.9
Q 8.5 -5.2 7.9 -4.8 7.55 -4.6 7.35 -3.9 7.2 -3.4 7.1 -1.7
L 9 -1.15
Q 9.05 -1.6 9.05 -1.8
M 8.95 -0.85
L 7 -0.45
Q 6.95 0.15 6.95 0.8
L 8.8 1.7
Q 8.9 -0.05 8.95 -0.85 Z"/>
</g>

<g id="Layer0_0_MEMBER_0_FILL">
<path fill="#3F4152" stroke="none" d="
M -3.5 16.35
L -4.7 18.55
Q -4.25 19.2 -3.8 19.85 -2.7 19.6 -1.85 19
L -1.8 18.95
Q -2.6662109375 18.213671875 -3.5 16.35
M -4.45 13.75
Q -4.75 14.2 -5.05 14.6 -5.45 15.1 -5.85 15.35
L -3.85 15.5
Q -4.2 14.65 -4.45 13.75
M -5.35 9.85
Q -5.4 9.65 -5.45 9.45
L -6.95 10.9 -5 11.4
Q -5.25 10.65 -5.35 9.85
M -5.6 7.15
Q -5.6 6.7 -5.55 6.2
L -7.15 7.7 -5.6 8
Q -5.6 7.65 -5.6 7.15
M -5.35 3.9
Q -5.25 2.8 -5.25 1.9
L -7.05 2.95
Q -7.05 3.25 -7.1 3.55
L -5.35 3.9
M 0.45 21.25
L 1.3 18.4
Q 0.45 19 -0.7 19.3 -0.85 19.35 -0.95 19.3
L -0.35 21.3
Q 0 21.3 0.45 21.25
M 2.05 17.9
L 3.15 19.6
Q 3.45 19.3 3.7 18.9
L 4.25 15.45
Q 4.8 15.65 5.45 15.8 5.5 15.8 5.6 15.9 5.95 15.1 6.35 14.25 5.95 13.25 5.1 12.3 4.4 14.45 3.95 15.3 3.2 16.85 2.05 17.9
M 8.4 6.85
Q 8.45 6.6 8.55 6.25 7.45 5.9 6.55 5.5 6.25 8.05 5.7 10.1 5.45 10.9 5.3 11.65 6.15 11.5 7.1 11.2 7.25 11.15 7.35 11.15 7.4 10.85 7.5 10.6 7.55 10.45 7.55 10.3
L 6 8.95 8.2 7.75
Q 8.35 7.15 8.4 6.85
M 8.8 1.7
L 6.95 0.8
Q 6.85 1.3 6.8 1.9 6.8 2.95 6.7 4
L 8.75 2.65
Q 8.75 2.6 8.75 2.45 8.75 2.05 8.8 1.7
M 8.95 -0.85
Q 9 -1.05 9 -1.15
L 7.1 -1.7
Q 7.05 -1.15 7 -0.45
L 8.95 -0.85 Z"/>
</g>
</g>
</svg>
