<svg xmlns="http://www.w3.org/2000/svg" version="1.1" xmlns:xlink="http://www.w3.org/1999/xlink" preserveAspectRatio="xMinYMin meet" x="0px" y="0px" width="800px" height="600px" viewBox="-80 -40 800 600">

<g id="Clip_Front">
<path fill="#363443" stroke="none" d="
M -5.3 10.1
Q -6.65 8.55 -7.3 7.7 -8.55 6.2 -9.15 4.85 -9.78203125 3.52265625 -10.75 2.35 -10.981640625 2.3681640625 -11.25 2.35
L -11.85 2.3
Q -12.7984375 2.1845703125 -13.8 1.9 -11.05 5.95 -5.85 12.75 -5.05 13.9 -2.35 17.2 -1.6712890625 16.7787109375 -0.85 16.25 -2.539453125 13.8626953125 -5.3 10.1
M -4.25 0.4
Q -4.31015625 0.2982421875 -4.4 0.2 -4.95 0.65 -5.5 1 -6.0330078125 1.29375 -6.6 1.5 -6.0568359375 2.85 -4.15 4.5 -3.3 5.25 -2.55 6.45 -1.55 8.1 -1.25 8.5 -0.25 9.7 1.75 12.5 2.36328125 13.301953125 2.95 14 3.659375 13.55078125 4.3 13.1 4.2048828125 12.912109375 4.1 12.7
L 1.25 7.75
Q 0.801953125 6.9544921875 0.3 6.2 0.2544921875 6.14453125 0.2 6.1 -0.101171875 5.698046875 -0.4 5.25 -1.3 3.9 -1.9 3.25
L -1.95 3.1 -2 3.05
Q -2.249609375 2.703515625 -2.55 2.35
L -4.25 0.4 Z"/>

<path fill="#8B0E59" stroke="none" d="
M -6.6 1.5
Q -6.7865234375 1.61796875 -7 1.7 -9.0423828125 2.46484375 -11.25 2.35 -10.981640625 2.3681640625 -10.75 2.35 -9.78203125 3.52265625 -9.15 4.85 -8.55 6.2 -7.3 7.7 -6.65 8.55 -5.3 10.1 -2.539453125 13.8626953125 -0.85 16.25 0.1298828125 15.69140625 1.3 15 2.1669921875 14.50078125 2.95 14 2.36328125 13.301953125 1.75 12.5 -0.25 9.7 -1.25 8.5 -1.55 8.1 -2.55 6.45 -3.3 5.25 -4.15 4.5 -6.0568359375 2.85 -6.6 1.5
M -1.95 3.1
L -1.9 3.25
Q -1.3 3.9 -0.4 5.25 -0.101171875 5.698046875 0.2 6.1 -0.840625 4.526953125 -1.95 3.1 Z"/>

<path fill="#C91481" stroke="none" d="
M -13.1 -4.6
Q -13.1654296875 -4.0626953125 -13.25 -3.55 -13.1265625 -3.8939453125 -13 -4.25 -13 -4.4142578125 -13.1 -4.6
M 2.6 -30.9
Q 2.92265625 -32.0294921875 3.95 -34.75
L 0 -34.45
Q -0.774609375 -32.1142578125 -1.9 -29 -6.05 -17.5 -6.8 -14.3 -7.8 -10.1 -10.5 -1 -10.7 -0.25 -11.75 2.1 -11.79375 2.196484375 -11.85 2.3
L -11.25 2.35
Q -9.0423828125 2.46484375 -7 1.7 -7 1.42734375 -7 1.1 -7 -0.3 -4.4 -8.25 -0.85 -19 -0.5 -20.25
L 2.6 -30.9 Z"/>

<path fill="#3F4152" stroke="none" d="
M -6.8 -14.3
Q -6.05 -17.5 -1.9 -29 -0.774609375 -32.1142578125 0 -34.45
L -2.4 -34.25
Q -3.65 -30.85 -5.25 -27.55 -11.05625 -16.2904296875 -13.1 -4.6 -13 -4.4142578125 -13 -4.25 -13.1265625 -3.8939453125 -13.25 -3.55 -13.67578125 -0.8490234375 -13.9 1.85 -13.85 1.85 -13.8 1.9 -12.7984375 2.1845703125 -11.85 2.3 -11.79375 2.196484375 -11.75 2.1 -10.7 -0.25 -10.5 -1 -7.8 -10.1 -6.8 -14.3
M 3.95 -34.75
Q 2.92265625 -32.0294921875 2.6 -30.9
L -0.5 -20.25
Q -0.85 -19 -4.4 -8.25 -7 -0.3 -7 1.1 -7 1.42734375 -7 1.7 -6.7865234375 1.61796875 -6.6 1.5 -6.0330078125 1.29375 -5.5 1 -4.95 0.65 -4.4 0.2 -3.1 -6.7 -0.6 -13.35 3.4 -23.75 6.45 -34.2
L 5.8 -34.9 3.95 -34.75 Z"/>
</g>

</svg>
