<svg xmlns="http://www.w3.org/2000/svg" version="1.1" xmlns:xlink="http://www.w3.org/1999/xlink" preserveAspectRatio="xMinYMin meet" x="0px" y="0px" width="800px" height="600px" viewBox="-80 -40 800 600">
<g id="Clip_Back">
<path fill="#C91481" stroke="none" d="
M 7.15 13.05
Q 6.5 13.65 4.4 15.55 3.937890625 16.06640625 3.25 16.85 5.96640625 14.463671875 8.2 12 7.586328125 12.6365234375 7.15 13.05
M 8.4 2.35
Q 5.8580078125 5.8888671875 0.65 12.2 0.4 12.45 -2.7 15.6 -3.8080078125 16.7337890625 -4.65 17.65 -4.1095703125 17.772265625 -3.6 17.65 -1.796875 17.2318359375 -0.85 17.7 0.3048828125 16.2578125 2.8 13.6 5.2 11.1 8.25 8 9.37109375 6.7814453125 12.55 2.65 10.801953125 2.8142578125 9.1 2.5 8.7462890625 2.4626953125 8.4 2.35 Z"/>

<path fill="#3F4152" stroke="none" d="
M 0.65 12.2
Q 5.8580078125 5.8888671875 8.4 2.35 7.8689453125 2.261328125 7.35 2.1 6.95 1.7 6.45 1.35 -1 8.25 -6.05 16.75 -5.976953125 16.823046875 -5.9 16.9 -5.8708984375 16.9265625 -5.85 16.95 -5.8201171875 16.976171875 -5.8 17 -5.483203125 17.2671875 -5.2 17.4 -4.894140625 17.576953125 -4.65 17.65 -3.8080078125 16.7337890625 -2.7 15.6 0.4 12.45 0.65 12.2
M 12.8 2.65
Q 12.68203125 2.663671875 12.55 2.65 9.37109375 6.7814453125 8.25 8 5.2 11.1 2.8 13.6 0.3048828125 16.2578125 -0.85 17.7 0.058984375 18.1828125 0.25 19.4 1.8310546875 18.13828125 3.25 16.85 3.937890625 16.06640625 4.4 15.55 6.5 13.65 7.15 13.05 7.586328125 12.6365234375 8.2 12 12.4703125 7.2705078125 15.05 2.25 14.2947265625 2.4388671875 13.55 2.55
L 12.8 2.65 Z"/>

<path fill="#363443" stroke="none" d="
M 1.8 -29.95
Q 1.6060546875 -30.72578125 1.05 -31.4
L -0.8 -31.2 -1.8 -29.95 6.45 1.35
Q 6.95 1.7 7.35 2.1 7.8689453125 2.261328125 8.4 2.35 8.7462890625 2.4626953125 9.1 2.5 7.745703125 -1.82109375 7.7 -2.05
L 6.25 -7.1
Q 5.75 -8.75 5.1 -12.2 4.55 -14.25 4 -17.25 3.7 -18.9 3.15 -22.3 3.05 -22.9 2.55 -24.8 2.15 -26.4 2.05 -27.35 1.95 -28.25 1.8 -29.95
M 5.5 -31.8
Q 5.9328125 -29.8771484375 6.55 -27.1 8.45 -18.55 9.45 -15.4 10.1 -13.3 10.8 -10 11.8 -5.35 11.9 -4.95 12.3 -3.15 12.9 0.4 13.1775390625 1.5474609375 13.55 2.55 14.2947265625 2.4388671875 15.05 2.25
L 16.3 1.25
Q 13.75 -12.5 8.45 -25.7 7.2 -28.7 6.55 -31.9
L 5.5 -31.8 Z"/>

<path fill="#8B0E59" stroke="none" d="
M 6.55 -27.1
Q 5.9328125 -29.8771484375 5.5 -31.8
L 1.05 -31.4
Q 1.6060546875 -30.72578125 1.8 -29.95 1.95 -28.25 2.05 -27.35 2.15 -26.4 2.55 -24.8 3.05 -22.9 3.15 -22.3 3.7 -18.9 4 -17.25 4.55 -14.25 5.1 -12.2 5.75 -8.75 6.25 -7.1
L 7.7 -2.05
Q 7.745703125 -1.82109375 9.1 2.5 10.801953125 2.8142578125 12.55 2.65 12.68203125 2.663671875 12.8 2.65
L 13.55 2.55
Q 13.1775390625 1.5474609375 12.9 0.4 12.3 -3.15 11.9 -4.95 11.8 -5.35 10.8 -10 10.1 -13.3 9.45 -15.4 8.45 -18.55 6.55 -27.1 Z"/>
</g>
</svg>
