
<svg xmlns="http://www.w3.org/2000/svg" version="1.1" xmlns:xlink="http://www.w3.org/1999/xlink" preserveAspectRatio="xMinYMin meet" x="0px" y="0px" width="800px" height="600px" viewBox="-80 -160 800 600">
<g id="Head_Base">
<g id="Layer0_0_FILL">
<path fill="#FFDBC4" stroke="none" d="
M 46.4 -52.1
Q 47.4 -55.7 47.5 -59.6 48.5958984375 -79.9640625 25.5 -86.3 9.25 -90.7 -7.35 -86.5 -24.8328125 -83.5423828125 -28.2 -82.6 -41.52578125 -75.1478515625 -45.5 -64.7
L -46.6 -62.6
Q -46.65 -62.4 -46.75 -62.15 -46.95 -61.7 -47.15 -61.2 -48.95 -56.55 -49.6 -51.45 -50.7466796875 -42.49375 -49.7 -32.55 -48.66015625 -22.6123046875 -49.15 -16.4 -49.6400390625 -10.1380859375 -49.65 -4.35 -49.603515625 1.443359375 -46.1 4.45 -39 10.45 -29.75 11.75 -26.5 12.25 -23.2 12.85 -15.3 14.05 -7.35 14.1 2.555078125 14.3587890625 14.5 12.35 18.5 11.6732421875 22.2 10.8 34.754296875 7.825 36.15 6.75 38.65 4.2 41 1.5 43.2 -0.95 45.2 -3.5 47.7 -6.65 48.9 -10.4 50.1 -14.25 50.8 -18.1 51.15 -19.95 51.15 -21.85 51.15 -22.15 51.1 -22.4 50.9 -23.6 50.7 -24.75 49.95 -28.5 48 -31.95 46.55 -34.6 45.05 -37.1 44 -38.95 43.75 -40.95 43.45 -43.05 44.2 -44.95 44.85 -46.65 45.35 -48.35 45.9 -50.2 46.4 -52.1 Z"/>

<path fill="#448888" stroke="none" d="
M 47.5 -59.6
Q 47.4 -55.7 46.4 -52.1 45.9 -50.2 45.35 -48.35 44.85 -46.65 44.2 -44.95 43.45 -43.05 43.75 -40.95 44 -38.95 45.05 -37.1 46.55 -34.6 48 -31.95 49.95 -28.5 50.7 -24.75 50.9 -23.6 51.1 -22.4 51.15 -22.15 51.15 -21.85 51.15 -19.95 50.8 -18.1 50.1 -14.25 48.9 -10.4 47.7 -6.65 45.2 -3.5 43.2 -0.95 41 1.5 38.65 4.2 36.15 6.75 38.05 5.9 39.9 5 41.7 4.15 43.45 3.25 45.85 2 48.2 0.3 50.35 -1.15 52.3 -2.85 54.8 -5 57.1 -7.35 59 -9.3 60.7 -11.75 62.95 -15 64.2 -18.75 65.2 -21.7 66.15 -24.65 67.15 -27.75 68.1 -30.9 69 -33.95 69.95 -36.95 70.9 -39.85 71.85 -42.95 72.9 -46.5 73.2 -50.3 73.55 -54.15 73.65 -58.05 73.75 -61.4 73.7 -64.7 70.05 -63.35 66.4 -62.15 65.4 -61.8 64.35 -61.6 61.25 -61.1 58.1 -60.65 54 -60.25 50.15 -59.75 48.8 -59.65 47.5 -59.6 Z"/>

<path fill="#42B5A8" stroke="none" d="
M 72.1 -75.05
Q 70.3 -79.05 66.8 -85.15 63.6 -90.65 55.05 -96.7 53.7935546875 -97.5947265625 52.55 -98.4 36.9 -107.3 18.7 -109.75 -5.7 -112.65 -25.9 -98.4 -27.630078125 -96.9798828125 -28.95 -95.55 -33.6 -91.25 -35.8 -89 -39.6 -85.05 -40.8 -81.6 -40.8265625 -81.5203125 -41.1 -81 -41.1208984375 -80.958203125 -41.15 -80.95
L -41.1 -80.95
Q -41.801953125 -79.4423828125 -44.25 -74.4 -47.25 -67.95 -47.8 -65.95 -47.946484375 -65.42265625 -47.95 -64.6
L -48.95 -63.3
Q -48.8421875 -63.3720703125 -47.9 -63.8 -47.840234375 -63.4984375 -47.8 -63.2 -47.65 -62 -47.15 -61.2 -46.95 -61.7 -46.75 -62.15 -46.65 -62.4 -46.6 -62.6
L -45.5 -64.7
Q -41.52578125 -75.1478515625 -28.2 -82.6 -24.8328125 -83.5423828125 -7.35 -86.5 9.25 -90.7 25.5 -86.3 48.5958984375 -79.9640625 47.5 -59.6 48.8 -59.65 50.15 -59.75 54 -60.25 58.1 -60.65 61.25 -61.1 64.35 -61.6 65.4 -61.8 66.4 -62.15 70.05 -63.35 73.7 -64.7 73.703125 -65.5416015625 73.7 -66.45 73.75 -71.3 72.1 -75.05 Z"/>
</g>

<g id="Layer0_1_FILL">
<path fill="#64627B" stroke="none" d="
M -24.05 -98.7
Q -32.2 -96.55 -38 -90.4
L -21.5 -99.25
Q -22.8 -99 -24.05 -98.7
M 54 -85.2
Q 56.8 -79.7 57.9 -77 59 -74.3 58 -73.75 57 -73.25 54.9 -73.25
L 55.35 -72
Q 55.8 -72 55.95 -72.5 56.05 -73.05 60.75 -72.85 60.55 -71.8 62.8 -67.4 65 -63.05 66.85 -50.9 68 -63.25 61.45 -74.5 59.3 -78.2 56.85 -81.55 55.5 -83.45 54 -85.2 Z"/>

<path fill="#353443" stroke="none" d="
M -19.35 -99.55
L -21.5 -99.25 -38 -90.4 -41.05 -86.45 -40.25 -85.65
Q -30.9 -94.3 -19.35 -99.55
M 55.95 -72.5
Q 55.8 -72 55.35 -72 59 -61.2 61.55 -50.3 62.4 -46.65 63.1 -42.95 64.15 -44.65 65.05 -46.4 65.8 -47.8 66.4 -49.35 66.65 -50.1 66.85 -50.9 65 -63.05 62.8 -67.4 60.55 -71.8 60.75 -72.85 56.05 -73.05 55.95 -72.5
M 54 -85.2
Q 48.95 -89.95 43 -93.5 41.85 -94.15 40.75 -94.75 51.5 -86.55 54.9 -73.25 57 -73.25 58 -73.75 59 -74.3 57.9 -77 56.8 -79.7 54 -85.2 Z"/>
</g>
</g>

</svg>
