
<svg xmlns="http://www.w3.org/2000/svg" version="1.1" xmlns:xlink="http://www.w3.org/1999/xlink" preserveAspectRatio="xMinYMin meet" x="0px" y="0px" width="800px" height="600px" viewBox="-20 -40 800 600">
<g id="Leg_L">
<g id="Layer0_0_FILL">
<path fill="#53B5B5" stroke="none" d="
M 1.1 45.75
Q 1.1 45.35 1.1 45 0.208984375 45.0341796875 -0.7 44.8 -1.091015625 44.7416015625 -1.5 44.6 -2.3 44.35 -4.15 43.7 -4.3 43.65 -4.55 43.6 -4.318359375 44.2716796875 -4.1 44.85 -2.8107421875 47.95 -1.5 47.95 0.7 47.95 1.1 45.75
M 2.95 14.45
Q 3.848046875 14.7732421875 4.55 15.05 4.596484375 14.6376953125 4.65 14.25 4.7072265625 13.9353515625 4.75 13.55 3.7123046875 13.2466796875 2.65 12.85 -2 11.05 -2.5 10.9 -4.1 10.5 -5.45 9.65 -5.7 9.5 -7.25 8.35 -7.6876953125 8.058203125 -9.25 7.35 -9.2814453125 8.2435546875 -9.3 9.3 -8.8787109375 9.4427734375 -8.4 9.65 -6.5 10.45 -2.8 12.35 -2.5 12.5 2.95 14.45 Z"/>

<path fill="#3F4152" stroke="none" d="
M 4.55 15.05
Q 3.848046875 14.7732421875 2.95 14.45 -2.5 12.5 -2.8 12.35 -6.5 10.45 -8.4 9.65 -8.8787109375 9.4427734375 -9.3 9.3 -9.3 10.4912109375 -9.3 11.9 -9.3 12.001953125 -9.3 12.1 -9.3 12.4107421875 -9.3 12.75
L -9.3 12.8
Q -9.3 19.7 -7.1 32.5 -6.27734375 37.470703125 -5.4 40.85 -4.9744140625 42.3896484375 -4.55 43.6 -4.3 43.65 -4.15 43.7 -2.3 44.35 -1.5 44.6 -1.091015625 44.7416015625 -0.7 44.8 0.208984375 45.0341796875 1.1 45 1.1044921875 44.9138671875 1.1 44.8 1.2021484375 43.0234375 1.25 42.45 1.3146484375 41.8365234375 1.45 40.8 1.5759765625 40.273046875 1.7 39.6 2.05 37.75 2.1 36.75 2.25 34.7 2.85 31.15 3.5 27.15 3.7 25.5 3.8 24.25 4.1 19.85 4.2 18.75 4.25 17.8 4.2904296875 17.375 4.3 16.95 4.427734375 16.0275390625 4.5 15.2 4.5396484375 15.1548828125 4.55 15.05 Z"/>

<path fill="#F3B4A5" stroke="none" d="
M 6.25 7.4
Q 7.5 3.25 7.5 3.2 7.5 0.7 3.4 -2.6 -0.35 -5.55 -2.95 -6.05 -7.8 -2.75 -8.95 3.3 -9.15 4.3 -9.25 6.9
L -9.25 7.35
Q -7.6876953125 8.058203125 -7.25 8.35 -5.7 9.5 -5.45 9.65 -4.1 10.5 -2.5 10.9 -2 11.05 2.65 12.85 3.7123046875 13.2466796875 4.75 13.55 4.80625 13.305859375 4.85 13 5.3 10.8 6.25 7.4 Z"/>
</g>

<g id="Layer0_1_FILL">
<path fill="#808080" stroke="none" d="
M -5 33.25
L -4.55 33
Q -6 25.75 -6 24.1 -6 21.3 -6.75 17.55
L -7.3 17.55
Q -7.55 18.1 -7.55 19.8 -7.55 21.55 -6.4 27.2 -5.35 32.15 -5 33.25 Z"/>
</g>

<g id="Layer0_2_FILL">
<path fill="#53B5B5" stroke="none" d="
M -1.75 41.85
L -1.25 42.15
Q -0.8 41.9 -0.75 41.65
L -1 41.25 -1.75 41.25 -1.75 41.85
M -1.3 27.75
Q -0.7 27.75 -0.85 27.6
L -0.75 27
Q -0.95 26.7 -1.35 26.5 -2 26.75 -2 27.05
L -1.9 27.5
Q -1.75 27.6 -1.75 27.7 -1.7 27.75 -1.3 27.75 Z"/>
</g>
</g>
</svg>
