
<svg xmlns="http://www.w3.org/2000/svg" version="1.1" xmlns:xlink="http://www.w3.org/1999/xlink" preserveAspectRatio="xMinYMin meet" x="0px" y="0px" width="800px" height="600px" viewBox="-20 -40 800 600">
<g id="Momi_R">
<g id="Layer0_0_FILL">
<path fill="#9CEBDA" stroke="none" d="
M -6.45 4.3
Q -6.1431640625 24.9703125 -3.95 45.7 -3.61484375 48.7767578125 -3.25 51.8 -3.0298828125 53.627734375 -2.8 55.4 -2.673046875 56.344921875 -2.55 57.25 -2.211328125 59.7865234375 -1.85 62.3
L -1.2 62.3
Q -3.4904296875 20.266796875 -6.45 4.3 Z"/>

<path fill="#42B5A8" stroke="none" d="
M -2.45 -12.65
Q -8.7794921875 -8.29765625 -7.65 -3.65 -6.4603515625 1.045703125 -6.45 4.3 -3.4904296875 20.266796875 -1.2 62.3
L -0.7 62.35
Q 1.338671875 56.7546875 6.4 41.05 11.4837890625 25.39296875 8.7 7.3 5.9109375 -10.7423828125 -2.45 -12.65 Z"/>
</g>
</g>
</svg>
