
<svg xmlns="http://www.w3.org/2000/svg" version="1.1" xmlns:xlink="http://www.w3.org/1999/xlink" preserveAspectRatio="xMinYMin meet" x="0px" y="0px" width="800px" height="600px" viewBox="-20 -40 800 600">
<g id="Momi_L">
<g id="Layer0_0_FILL">
<path fill="#42B5A8" stroke="none" d="
M -1.4 -9.85
Q -2.0806640625 -10.212890625 -2.8 -10.55 -2.8720703125 -10.5662109375 -2.95 -10.6 -3.6001953125 -10.713671875 -4.15 -10.7 -4.34375 -10.6978515625 -4.55 -10.7 -4.5103515625 -9.219921875 -4.6 -7.65 -4.85 -2.75 -5.75 7 -5.75 12.4 -3.4 27.5 -1.6 39.4 -0.25 45.85 0.3 48.35 0.8 55.3 0.82109375 55.5748046875 0.85 55.85 5.0115234375 49.496875 6.7 42.05 7.381640625 38.9884765625 7.95 35.9 9.0779296875 30.3263671875 9.9 24.7 9.967578125 24.322265625 10 23.9 10.3181640625 21.91796875 10.55 19.9 10.6166015625 19.640625 10.65 19.35 10.728125 18.7693359375 10.8 18.15 10.877734375 17.5490234375 10.95 16.9 11.0244140625 16.2404296875 11.1 15.55 13.1056640625 -2.2138671875 -1.4 -9.85 Z"/>

<path fill="#9CEBDA" stroke="none" d="
M -4.55 -10.7
Q -6.2208984375 -10.4294921875 -6.8 -8.55 -6.7880859375 -8.517578125 -6.8 -8.5 -6.8939453125 -8.1767578125 -6.95 -7.85 -13 25.4 -0.5 57.8
L 0.35 56.6
Q 0.6068359375 56.2384765625 0.85 55.85
L 0.85 55.85
Q 0.82109375 55.5748046875 0.8 55.3 0.3 48.35 -0.25 45.85 -1.6 39.4 -3.4 27.5 -5.75 12.4 -5.75 7 -4.85 -2.75 -4.6 -7.65 -4.5103515625 -9.219921875 -4.55 -10.7 Z"/>
</g>
</g>
</svg>
