
<svg xmlns="http://www.w3.org/2000/svg" version="1.1" xmlns:xlink="http://www.w3.org/1999/xlink" preserveAspectRatio="xMinYMin meet" x="0px" y="0px" width="800px" height="600px" viewBox="-20 -40 800 600">
<g id="Phone_L">
<g id="Layer0_0_FILL">
<path fill="#5C5A72" stroke="none" d="
M 12.75 8.75
L 13.7 8.95 14.75 6.5 14.65 -3.45 12.75 8.75
M 14.15 -8.15
L 11.35 -7.05 14.15 -6.3 14.5 -5.45 14.15 -8.15
M 7.4 -6.4
L 10.05 -6.65 9.9 11.55
Q 11.85 1.85 11 -7.85
L 8.75 -8.2 7.25 -7.25 7.4 -6.4 Z"/>

<path fill="#363443" stroke="none" d="
M 14.65 -3.45
L 14.5 -5.45 14.15 -6.3 11.35 -7.05 14.15 -8.15
Q 14.2 -22.35 2.8 -22.65 -7 -22.55 -12.9 -15.85 -14 -14.65 -14.3 -12.65 -17.05 5.1 -11.15 22 -3.943359375 25.268359375 8.25 23.55 14.2 19.3 14.65 11.5 14.75 9.15 14.75 6.5
L 13.7 8.95 12.75 8.75 14.65 -3.45
M 10.05 -6.65
L 7.4 -6.4 7.25 -7.25 8.75 -8.2 11 -7.85
Q 11.85 1.85 9.9 11.55
L 10.05 -6.65 Z"/>
</g>
</g>
</svg>
