
<svg xmlns="http://www.w3.org/2000/svg" version="1.1" xmlns:xlink="http://www.w3.org/1999/xlink" preserveAspectRatio="xMinYMin meet" x="0px" y="0px" width="800px" height="600px" viewBox="-20 -40 800 600">
<g id="Phone_R">
<g id="Layer0_0_FILL">
<path fill="#64627B" stroke="none" d="
M 9.35 -17.75
Q 11.65 -17.05 12.9 -15.1 8.75 -24.85 -1.9 -22.35 -9.75 -20.6 -13.75 -14.05 -2.9 -20.9 9.35 -17.75
M 13.75 -13.6
L 13.8 -13.6 13.8 -13.6 13.6 -13.9 13.75 -13.6 Z"/>

<path fill="#363443" stroke="none" d="
M 14.7 -3.25
L 14.25 -7.95
Q 14.3056640625 -11.12109375 13.75 -13.6
L 13.6 -13.9 12.9 -15.1
Q 11.65 -17.05 9.35 -17.75 -2.9 -20.9 -13.75 -14.05
L -13.95 -13.6
Q -14.031640625 -13.2400390625 -14.1 -12.85 -17.1 4.85 -11.45 21.9 -3.237109375 25.40390625 10.5 19.7 12.98359375 16.0677734375 13.8 12.65 14.61640625 9.2322265625 14.65 6.7
L 14.7 -3.25 Z"/>
</g>

<g id="Layer0_1_FILL">
<path fill="#64627B" stroke="none" d="
M 1.5 13.5
L 0.75 13.3
Q -8.5 13.35 -8.2 5.05
L -8.75 4.6
Q -9.4 8.95 -7.3 13.2 -2.494921875 16.1255859375 1.5 13.5
M 12.25 -4.1
L 11.6 -4.5
Q 11 0 11.3 4.45 11.55 7.95 11.3 11.1 10.9 11.15 10.55 11.25 10.1 11.5 9.65 11.75 9.55 11.8 9.55 11.9 9.5 12 9.55 12.15 9.6 12.2 9.65 12.35 10.25 12.3 10.9 12.35 11.55 12.1 12.15 11.75 12.45 11.6 12.7 11.35 12.4 8.35 12.5 5.3 12.65 0.6 12.25 -4.1
M 6.7 -3.95
L 6.4 -0.4 6.5 11.8 4.65 12.35 4.3 13
Q 4.3 13.15 4.4 13.25 4.65 13.4 5 13.55 5.05 13.45 5.15 13.4 5.3 13.35 5.45 13.35 5.85 13.2 6.25 13.05 6.7 13 7.15 12.8 7.25 12.8 7.35 12.7 7.6 9.05 7.5 5.2 7.35 0.65 7.05 -3.7
L 6.7 -3.95 Z"/>

<path fill="#FFE788" stroke="none" d="
M 8.85 -9.25
L 8.65 -6.2 8.85 -5.8
Q 9.8 -5.55 10.7 -5.7 11.3 -5.95 11.55 -6.3 11.6 -6.55 11.65 -6.75 12.1 -8.05 11.55 -9.3
L 8.85 -9.25
M 6.75 -8.65
L 5.75 -8.5
Q 5.35 -8.45 5 -8.35 4.7 -8.35 4.4 -8.3 4 -8.1 3.65 -7.85 3.5 -7.05 3.6 -6.15 3.7 -5.5 3.85 -4.85 4.45 -4.85 5.05 -4.85 5.65 -5 6.25 -5.1 6.4 -5.25 6.6 -5.35
L 6.75 -8.65 Z"/>
</g>

<g id="Layer0_2_FILL">
<path fill="#EB1D70" stroke="none" d="
M 2.5 -1.2
Q 2.4 -4.25 2.1 -7.35
L -1.45 -6.8
Q -5.3 -5.6 -7.4 -1.8 -9.5 1.95 -8.4 7.3 -7.3 12.65 -1.55 13.1 0.5 13.45 2.6 13.35 2.35 10.55 2.45 8.1 2.6 3.45 2.5 -1.2 Z"/>
</g>
</g>
</svg>
