
<svg xmlns="http://www.w3.org/2000/svg" version="1.1" xmlns:xlink="http://www.w3.org/1999/xlink" preserveAspectRatio="xMinYMin meet" x="0px" y="0px" width="800px" height="600px" viewBox="-20 -40 800 600">
<g id="Shirttail_R">
<g id="Layer0_0_FILL">
<path fill="#878AA3" stroke="none" d="
M 13.75 -2.6
L 10.95 -7.75 -5.75 -5.1
Q -5.95 -4.35 -6.35 -3.7 -11.05 4 -15.7 11.35 -13.9 11.05 -12.1 10.75 -6.3 9.6 -0.8 7.25
L -0.75 8.45
Q -3.65 11.1 -7.5 11.7 -11.45 12.3 -14.7 14.3 -13.35 14.25 -12 14.25 4.9 12.1 13.75 -2.6 Z"/>

<path fill="#B3B3CC" stroke="none" d="
M 14.85 -0.55
Q 14.5119140625 -1.2166015625 14.15 -1.9 13.9671875 -2.238671875 13.75 -2.6 4.9 12.1 -12 14.25 -13.35 14.25 -14.7 14.3 -11.45 12.3 -7.5 11.7 -3.65 11.1 -0.75 8.45
L -0.8 7.25
Q -6.3 9.6 -12.1 10.75 -13.9 11.05 -15.7 11.35 -15.7234375 11.6994140625 -15.7 12.05 -15.70390625 12.09921875 -15.7 12.15 -15.6869140625 12.325 -15.7 12.5 -15.6630859375 12.6439453125 -15.65 12.8 -15.6376953125 12.9384765625 -15.65 13.05
L -15.1 17
Q -12.509765625 30.9083984375 -1.3 42.8 13.8 33.7 24.55 18.9 23.65 17.55 23.05 16.25 18.9619140625 7.296484375 14.85 -0.55 Z"/>
</g>

<g id="Layer0_1_FILL">
<path fill="#53B5B5" stroke="none" d="
M 21.8 24.55
Q 24.15 21.7 24.3 18.75 24.15 18.7 24 18.7 22.7 19.25 22.2 20.5 20.35 24.2 17.35 27.45 15.2 29.8 12.8 31.95 6.25 37.65 -1.35 42.05 -2.4 40.85 -3.4 39.7 -5.7 37.05 -7.85 34.1 -9.85 31.3 -10.85 28 -12.65 22.25 -15.4 13.8
L -15.4 17.55
Q -14.45 22 -12.95 26.4 -12.15 28.8 -11 30.9 -7.1 38.1 -1.25 43.85 -1.05 43.8 -0.9 43.7 -0.8 43.7 -0.8 43.65 -0.7 43.5 -0.65 43.4 -0.3 43.25 0 43 3.15 41.15 6 38.95 9.3 36.4 12.4 33.9 17.5 29.75 21.8 24.55 Z"/>
</g>
</g>
</svg>
