
<svg xmlns="http://www.w3.org/2000/svg" version="1.1" xmlns:xlink="http://www.w3.org/1999/xlink" preserveAspectRatio="xMinYMin meet" x="0px" y="0px" width="800px" height="600px" viewBox="-20 -40 800 600">
<g id="Shirttail_L">
<g id="Layer0_0_FILL">
<path fill="#B3B3CC" stroke="none" d="
M 5 8.4
Q 4.25 7.85 3.4 7.4 4.75 10.85 7.65 13 8.6 13.65 9.55 14.3
L 8.85 14.55
Q -1.2330078125 13.1353515625 -7.05 -0.2
L -13.8 23.45
Q -6.75 32.8 -1.25 43.25 -0.55 44.6 0.95 45.45 1.7 45.85 2.5 46.2 4.4 44.05 6 41.95 6.6 40.75 7.25 39.45 10.9 32.7 13.1 28.15 14.23671875 24.1875 14.35 20.15 14.3923828125 18.6041015625 14.25 17 14.2666015625 16.825 14.25 16.6
L 13.85 13.65
Q 13.81640625 13.4619140625 13.75 13.25 8.95 11.65 5 8.4 Z"/>

<path fill="#878AA3" stroke="none" d="
M 7.05 -2.1
Q 6.25 -3.1 5.5 -4.1
L -7.4 -2.45 -6.5 -2 -7.05 -0.2
Q -1.2330078125 13.1353515625 8.85 14.55
L 9.55 14.3
Q 8.6 13.65 7.65 13 4.75 10.85 3.4 7.4 4.25 7.85 5 8.4 8.95 11.65 13.75 13.25 12.2 4.85 7.05 -2.1 Z"/>
</g>

<g id="Layer0_1_FILL">
<path fill="#53B5B5" stroke="none" d="
M 9.35 34.1
Q 8.8 35.3 8.25 36.4 7.6 37.8 6.85 39.1 5.95 40.65 4.75 42.05 3.55 43.45 2.5 44.9 2.3 45.1 2.25 45.4 1.4 44.25 0.35 43.35 -0.9 42.4 -1.9 41.25 -2.9 40.1 -3.55 38.8 -4.65 36.75 -5.8 34.5 -6.8 32.6 -7.95 30.85 -8.7 29.6 -9.4 28.55 -11.3 25.85 -13.6 23.5 -13.7 23.4 -13.95 23.4 -14.05 23.55 -14.15 23.75 -14.2 23.85 -14.2 24 -14.2 24.15 -14.15 24.35 -12.6 26.3 -11.1 28.1 -10.1 29.35 -9.35 30.7 -8.3 32.5 -7.35 34.3 -6.95 35.05 -6.5 35.8 -6.05 36.45 -5.75 37.15 -4.8 39.1 -3.7 40.65 -3.05 41.55 -2.35 42.45 -1.6 43.35 -0.7 44.2 -0.25 44.75 0.3 45.3 0.7 45.65 1.1 46.05 1.35 46.3 1.65 46.55 2.35 46.7 2.9 46 3.45 45.35 4.2 44.75 4.9 44.25 5.2 43.7 6.1 42.25 7.35 40.6 7.7 40.2 8 39.75 9.2 37.8 10.1 35.8 10.5513671875 34.797265625 12.25 31.95 13.9453125 29.108203125 14.4 20.8 12.1 29.8 11.05 31.25 10 32.7 9.35 34.1 Z"/>
</g>
</g>
</svg>
