
<svg xmlns="http://www.w3.org/2000/svg" version="1.1" xmlns:xlink="http://www.w3.org/1999/xlink" preserveAspectRatio="xMinYMin meet" x="0px" y="0px" width="800px" height="600px" viewBox="-20 -40 800 600">
<g id="Shoulder_R">
<g id="Layer0_0_FILL">
<path fill="#FFDBC4" stroke="none" d="
M 5.5 -0.25
Q 5.2 -0.75 3.65 -2 2.9 -3.45 1.1 -3.65 -0.8 -3.8 -1.4 -2.65 -2.95 -2.3 -3.5 -1.1 -5.35 2.3 -5.35 3.3 -4.85 5.2 -4.1 7.05 -3.35 9 -2.65 9.95 -2.65 10.15 -2.65 10.35 -2.65 12.5 -2.25 14.9 -1.7 18.7 -0.4 19.8
L 1.1 19.8
Q 3.65 17.7 4.45 12.95 4.85 10.7 4.9 6.4 5.75 3.9 5.75 2.75 5.75 0.2 5.5 -0.25 Z"/>
</g>

<g id="Layer0_0_MEMBER_0_FILL">
<path fill="#3F4152" stroke="none" d="
M 5.55 15.85
Q 6.25 13.25 6.25 9.8 6.25 7.35 6.2 6.8 5.95 4.7 5 3.9 -3.7 3.5 -4.5 4.15 -5.2 4.7 -5.25 6.4 -5.15 9.1 -5.15 11.25 -5.15 14.6 -4.9 16.15 -4.3 19.85 -2.4 20.65
L 1.5 20.65
Q 4.35 20.15 5.55 15.85 Z"/>
</g>

<g id="Layer0_1_FILL">
<path fill="#EB1D70" stroke="none" d="
M 4.1 2.35
Q 4.05 1.95 4.05 1.75 4.25 0.9 4.25 0.5 4.25 0.05 3.6 0.05 2.45 0.05 2.2 0.35 2.15 0.4 2.15 1.05
L 2.2 1.75 2.1 2.5 2.15 3.05 2.3 3.15 2.5 3.15
Q 2.8 3 3.7 2.95 4.1 2.7 4.1 2.35
M 3.5 0.7
L 3.6 0.7 3.4 2.35 2.65 2.5 2.7 0.75 3.5 0.7
M 5.2 1.95
L 5.45 0.7
Q 5.45 0.4 5.15 0.4
L 4.8 0.4
Q 4.8 1.1 4.6 2.15
L 4.75 2.85
Q 5.15 2.95 5.2 2.5 5.2 2.1 5.2 1.95 Z"/>
</g>
</g>

</svg>
