
<svg xmlns="http://www.w3.org/2000/svg" version="1.1" xmlns:xlink="http://www.w3.org/1999/xlink" preserveAspectRatio="xMinYMin meet" x="0px" y="0px" width="800px" height="600px" viewBox="-60 -40 800 600">
<g id="Tail_L">
<g id="Layer0_0_FILL">
<path fill="#9CEBDA" stroke="none" d="
M -18.6 18.65
L -18.6 18.6
Q -18.75 18.9 -18.85 19.25
L -24.9 39.95
Q -24.95 40.1 -24.95 40.2 -25 40.35 -25 40.45 -25.05 40.6 -25.05 40.75 -25.1 40.85 -25.1 41 -25.15 41.1 -25.15 41.35 -25.25 41.6 -25.25 41.9 -25.3 42 -25.3 42.15 -25.35 42.45 -25.4 42.8 -25.45 43.05 -25.5 43.4 -25.55 43.55 -25.55 43.65 -26.1 47.15 -26.45 50.75 -26.55 52 -26.65 53.15 -28.7 74.45 -31.35 95.7 -30.35 92.75 -29.15 89.3 -22.55 69.7 -22.55 65.7 -22.55 65.05 -21.4 55.75 -20.25 46.3 -20.2 42.15 -20.1 37.55 -19.35 28.45 -19.05 25.2 -18.9 23.1 -18.85 22.5 -18.8 22.05 -18.6 19.35 -18.6 18.95 -18.6 18.8 -18.6 18.65
M -9.95 60.9
Q -9.05 55.55 -9.05 54.9 -9.05 52 -12.85 51 -16.65 50 -16.65 52.9 -16.65 53.1 -18.05 54.5 -19.7 56.15 -20.45 57.85 -21.15 59.25 -21.35 61.1 -21.5 62.25 -21.5 64.55 -21.5 65.3 -17.55 68.25 -13.6 71.2 -12.6 71.2 -10.95 71.2 -10.8 70.95
L -11 70.65 -10.5 68.15
Q -10.8 65.8 -9.95 60.9
M 1.35 59.3
Q 0.7 59.3 0.1 59.35 -1.8 59.85 -4.45 60.1 -8.5 57.15 -8.5 61.95 -8.5 63.4 -8.15 63.5 -7.9 63.55 -7.2 63.55 0.8 61.05 3 59.6 2.65 59.3 1.35 59.3 Z"/>

<path fill="#42B5A8" stroke="none" d="
M 13.6 52.2
Q 12.5 52.6 11.25 52.6 -2.3 52.6 -11.75 39.05 -15.25 34.05 -17.4 28.2 -18.45 25.3 -18.9 23.1 -19.05 25.2 -19.35 28.45 -20.1 37.55 -20.2 42.15 -20.25 46.3 -21.4 55.75 -22.55 65.05 -22.55 65.7 -22.55 69.7 -29.15 89.3 -30.35 92.75 -31.35 95.7 -35.15 126.1 -40.15 156.4 -38.1 157.9 -35.6 157.7 -32.9 157.65 -31.3 155.9 -23.05 146.5 -15 136.5 -5.4 155.5 9.1 170.25
L 10.55 170
Q 11 168.4 11.2 166.8 12.6 154.3 17.95 142.75 19.7 143.7 21.25 144.9 34.45 153.55 48.85 154.5 40.05 145.3 35 134 17.6 94.5 13.6 52.2
M 0.1 59.35
Q 0.7 59.3 1.35 59.3 2.65 59.3 3 59.6 0.8 61.05 -7.2 63.55 -7.9 63.55 -8.15 63.5 -8.5 63.4 -8.5 61.95 -8.5 57.15 -4.45 60.1 -1.8 59.85 0.1 59.35
M -9.05 54.9
Q -9.05 55.55 -9.95 60.9 -10.8 65.8 -10.5 68.15
L -11 70.65 -10.8 70.95
Q -10.95 71.2 -12.6 71.2 -13.6 71.2 -17.55 68.25 -21.5 65.3 -21.5 64.55 -21.5 62.25 -21.35 61.1 -21.15 59.25 -20.45 57.85 -19.7 56.15 -18.05 54.5 -16.65 53.1 -16.65 52.9 -16.65 50 -12.85 51 -9.05 52 -9.05 54.9 Z"/>

<path fill="#448888" stroke="none" d="
M 7.55 -4.15
Q -0.9 -11.65 -8.05 -1.1 -12.2 5.05 -15.4 11.55 -17.15 15.05 -18.6 18.65 -18.6 18.8 -18.6 18.95 -18.6 19.35 -18.8 22.05 -18.85 22.5 -18.9 23.1 -18.45 25.3 -17.4 28.2 -15.25 34.05 -11.75 39.05 -2.3 52.6 11.25 52.6 12.5 52.6 13.6 52.2 13.2 48.25 12.95 44.35
L 12.7 40.1
Q 12.6 38.45 12.55 36.85 11.9 20.15 11.25 3.4 11.05 -1.1 7.55 -4.15 Z"/>
</g>
</g>
</svg>
