
<svg xmlns="http://www.w3.org/2000/svg" version="1.1" xmlns:xlink="http://www.w3.org/1999/xlink" preserveAspectRatio="xMinYMin meet" x="0px" y="0px" width="800px" height="600px" viewBox="-20 -40 800 600">
<g id="Tie">
<g id="Layer0_0_FILL">
<path fill="#53B5B5" stroke="none" d="
M 12.35 41.25
Q 10.26328125 35.2955078125 9.3 30.8 6.757421875 17.6626953125 5.55 9.9 5.460546875 9.45859375 5.35 9 5.2568359375 9.55 0.25 9.55 -1.0150390625 9.55 -3.45 8.45
L -9.35 41.9
Q -4.9 46.4 -3 52.5 -1.45 57.6 3.4 58.85 8.2314453125 50.3484375 12.35 41.25 Z"/>

<path fill="#449998" stroke="none" d="
M 4.1 -1.65
Q 3.9701171875 -1.719921875 3.85 -1.8 2.65 -2.2 1.5 -2.4 -0.85 -2.65 -3 -1.5 -2.6498046875 0.3955078125 -3.2 3.6 -3.752734375 6.859765625 -4.1 9.3 -4.443359375 11.7427734375 -3.45 8.45 -1.0150390625 9.55 0.25 9.55 5.2568359375 9.55 5.35 9 5.383203125 8.9771484375 5.4 8.95 4.82109375 4.965234375 4.6 2.55 4.2462890625 0.4013671875 4.1 -1.65 Z"/>
</g>

<g id="Layer0_1_FILL">
<path fill="#42474F" stroke="none" d="
M -1 29.9
Q -2.037890625 29.75 -4 29.75 -6.85 29.75 -7.5 30 -7.75 30.55 -7.75 31.85 -7.75 33.25 -7.6 34
L -6.85 34.2
Q -6.75 34.25 -6 34.25 -4.35 34.25 -2.5 33.55 -1.6099609375 33.213671875 -1.1 32.8 -1 31.9458984375 -1 31.3
L -1 29.9
M -5 28.5
Q -4.5 28.2 -2.6 27.85 -1.662890625 27.6685546875 -1 27.55
L -1 24.75
Q -4.7755859375 25 -5.75 25 -6.001171875 25 -6.25 25 -8 26.0794921875 -8 27.25 -8 28.05 -7.7 28.25 -7.55 28.4 -7 28.5
L -5 28.5 Z"/>
</g>
</g>

</svg>
