
<svg xmlns="http://www.w3.org/2000/svg" version="1.1" xmlns:xlink="http://www.w3.org/1999/xlink" preserveAspectRatio="xMinYMin meet" x="0px" y="0px" width="800px" height="600px" viewBox="-20 -40 800 600">
<g id="Mouth_duck_a">
<g id="Layer1_0_FILL">
<path fill="#F3B4A5" stroke="none" d="
M -4.75 -7.25
Q -4.75 -9.25 -1.9 -9.65 -1.45 -8.75 -1 -8.75 0 -8.75 0 -10.15 0 -12.45 -3.3 -11.5 -6.65 -10.6 -6.65 -7.15 -6.65 -5.95 -6.3 -5.45 -5.6 -4.55 -3.15 -3.9 -2.65 -3.35 -2.65 -1.75
L -2.65 0
Q -2.85 0.45 -2.7 1.05 -2.75 1.5 -4.25 1.75 -5.8 2 -6.55 3.2 -7.15 4.15 -7.15 5.35 -7.1 6.35 -6.55 7.3 -5.45 9.15 -2.75 9.15 -1.45 9.15 -1 9 -0.5 8.8 -0.5 8.25 -0.5 7.6 -1.5 7.25
L -4 7.15
Q -5.25 6.2 -5.25 5.4 -5.25 4.55 -4.25 3.75 -0.75 4.1 -0.5 3.25 -1 2.2 -1 1.9 -1 1 -0.75 -0.85
L -0.75 -4.25
Q -0.75 -5.75 -2.75 -6 -4.75 -6.25 -4.75 -7.25 Z"/>
</g>
</g>
</svg>
