
<svg xmlns="http://www.w3.org/2000/svg" version="1.1" xmlns:xlink="http://www.w3.org/1999/xlink" preserveAspectRatio="xMinYMin meet" x="0px" y="0px" width="800px" height="600px" viewBox="-20 -40 800 600">
<g id="Mouth_duck_u">
<g id="Layer1_0_FILL">
<path fill="#F3B4A5" stroke="none" d="
M -6.75 -6.4
L -5.75 -6.5
Q -5.25 -5.9 -4.9 -4.45 -4.65 -3.5 -3.75 -3.5 -3.25 -3.5 -3 -3.95 -2.75 -4.4 -2.75 -4.9 -2.75 -8.3 -6.05 -8.35 -9.4 -8.4 -9.4 -3.9 -9.4 -3.8 -9.45 -3.05 -9.5 -2.6 -9.4 -2.25 -9.25 -1.55 -8.25 -0.4 -9.65 2.9 -9.65 3.3 -9.55 4.3 -8.95 5.25 -7.75 7.15 -5.1 7.15 -3.9 7.15 -3.2 6.75 -2.5 6.3 -2.5 5.55 -2.5 5.3 -2.65 5 -2.95 4.5 -3.5 4.5 -3.9 4.5 -4.3 5.15
L -6 5.15
Q -6.5 4.9 -7.15 4.15 -7.75 3.4 -7.75 3.25 -7.75 2.15 -6.35 1.25 -5 0.4 -5 0 -5 -0.45 -6.25 -1.5 -7.5 -2.55 -7.5 -3.8 -7.5 -4.95 -7.45 -5.1 -7.35 -5.65 -6.75 -6.4 Z"/>
</g>
</g>
</svg>
