
<svg xmlns="http://www.w3.org/2000/svg" version="1.1" xmlns:xlink="http://www.w3.org/1999/xlink" preserveAspectRatio="xMinYMin meet" x="0px" y="0px" width="800px" height="600px" viewBox="-20 -40 800 600">
<g id="Mouth_drool_default">
<g id="Layer1_0_FILL">
<path fill="#FFFFFF" stroke="none" d="
M 4.6 1.15
L 3.05 0.6 1.7 1.75 1.7 2.15 2 2.15
Q 2 2.2111328125 2 2.25
L 2 2.3 2.1 3
Q 2.4 3.9 3.35 3.9 4.65 3.9 4.65 2.3 4.65 2.1380859375 4.6 2
L 4.8 1.95
Q 4.7431640625 1.6375 4.65 1.35 4.6 1.25 4.6 1.15 Z"/>

<path fill="#F39494" stroke="none" d="
M -4.15 -0.55
Q -4.2 -0.7 -4.3 -1.25 -4.5 -1.65 -5.25 -1.65 -5.7 -1.65 -6.05 -1.15 -6.4 -0.7 -6.4 -0.3 -6.4 0.15 -5.55 1.05 -4.5 2.15 -3.25 2.15
L 1.7 2.15 1.7 1.75 3.05 0.6 4.6 1.15
Q 4.6 1.25 4.65 1.35 4.7431640625 1.6375 4.8 1.95
L 4.85 1.9
Q 5.81171875 1.6181640625 6.5 0.9 7.4 0 7.4 -0.75 7.4 -1.9 6.4 -1.9 5.4 -1.9 4.85 -0.25
L 4.25 0 0.25 0.15
Q -3.25 0.15 -3.75 0 -4.15 -0.15 -4.15 -0.55 Z"/>
</g>
</g>
</svg>
