
<svg xmlns="http://www.w3.org/2000/svg" version="1.1" xmlns:xlink="http://www.w3.org/1999/xlink" preserveAspectRatio="xMinYMin meet" x="0px" y="0px" width="800px" height="600px" viewBox="-20 -40 800 600">
<g id="Mouth_drool_a">
<g id="Layer1_0_FILL">
<path fill="#FFFFFF" stroke="none" d="
M 4.55 5.25
L 3.75 5.25
Q 2.95 5.35 1.95 6.15 1.8521484375 6.2375 1.75 6.3 1.75625 6.4408203125 1.75 6.55
L 1.75 6.65
Q 1.75 6.7 1.75 7.7 2.0404296875 8.619921875 3.15 8.65
L 3.25 8.65
Q 4.65 8.6279296875 4.65 6.2 4.65 5.65234375 4.55 5.25 Z"/>

<path fill="#F39494" stroke="none" d="
M -6 -4
Q -6.55 -3.8 -6.7 -3.5 -6.9634765625 -3.1486328125 -7 -2.45 -7.59375 4.7107421875 -2.15 6.4 -1.5 6.45 -0.8 6.55 0.6197265625 6.4869140625 1.75 6.2 1.7546875 6.3876953125 1.75 6.55 1.75625 6.4408203125 1.75 6.3 1.8521484375 6.2375 1.95 6.15 2.95 5.35 3.75 5.25
L 4.55 5.25
Q 4.5509765625 5.1455078125 4.5 5.05 7.6185546875 2.8708984375 6.65 -2.45 6.399609375 -3.48046875 6 -4
L -6 -4 Z"/>
</g>
</g>
</svg>
