
<svg xmlns="http://www.w3.org/2000/svg" version="1.1" xmlns:xlink="http://www.w3.org/1999/xlink" preserveAspectRatio="xMinYMin meet" x="0px" y="0px" width="800px" height="600px" viewBox="-20 -40 800 600">
<g id="Mouth_drool_i">
<g id="Layer1_0_FILL">
<path fill="#FFFFFF" stroke="none" d="
M 9.15 -2.4
Q 7.85 -3.25 5.35 -3.6 3.75 -3.15 3.5 -3.05 2.6 -2.85 -2 -2.7 -6.15 -2.55 -6.5 -2.3 -7.5 -1.5 -7.65 -0.95 -7.65 -0.9 -7.65 0.4 -7.65 2.1 -6.9 2.85 -5.05 4.65 1 4.65 2.3748046875 4.65 3.5 4.5 3.5 4.7875 3.5 5.1 3.5 5.15 3.5 6 3.75 6.9 5 6.9 6.2 6.9 6.4 6.1 6.4 5.05 6.4 4.5 6.4 4.10859375 6.35 3.75 7.88203125 3.1306640625 8.65 2 9.4 0.95 9.4 -1.3 9.4 -1.75 9.4 -2 9.25 -2.25 9.15 -2.4 Z"/>
</g>
</g>
</svg>
