
<svg xmlns="http://www.w3.org/2000/svg" version="1.1" xmlns:xlink="http://www.w3.org/1999/xlink" preserveAspectRatio="xMinYMin meet" x="0px" y="0px" width="800px" height="600px" viewBox="-20 -40 800 600">
<g id="Mouth_tongue_a">
<g id="Layer1_0_FILL">
<path fill="#FBB7B7" stroke="none" d="
M 8.25 0.4
Q 7.1751953125 0.2544921875 5.55 0.35 0.5 0.65 -2.25 2.75 -3.5537109375 3.687109375 -4.75 4.8 -4.71171875 5.070703125 -4.65 5.3
L -4.55 5.75
Q -5.000390625 6.30078125 -5.35 6.95 -5.472265625 7.1869140625 -5.6 7.4
L -5.6 7.45
Q -5.61171875 7.502734375 -5.65 7.5
L -6.05 8.9
Q -6.15 9.520703125 -6.15 10.15 -6.15 10.2 -6.15 11.55 -5.65 12.9 -3 12.9 -1.25 12.9 0.6 11.75 2.5 10.35 3.25 9.85 4.5 9.05 5.65 7.95 6.1734375 7.4474609375 6.45 7.05
L 6.75 7.15
Q 8.0251953125 6.4416015625 8.35 2.5 8.3833984375 2.291015625 8.4 2.05
L 8.3 1
Q 8.3083984375 0.7 8.25 0.4
M -3 7.8
Q -3 8.85 -4.25 9.15
L -5.05 8.85
Q -5.15 8.6 -5.15 8 -5.15 6.7 -4.05 6.8 -3 6.85 -3 7.8 Z"/>

<path fill="#FFFFFF" stroke="none" d="
M -4.25 9.15
Q -3 8.85 -3 7.8 -3 6.85 -4.05 6.8 -5.15 6.7 -5.15 8 -5.15 8.6 -5.05 8.85
L -4.25 9.15 Z"/>

<path fill="#F39494" stroke="none" d="
M -4.5 -5.95
Q -4.9 -5.3 -4.9 -0.3 -5 1.55 -4.9 3.35 -4.8537109375 4.1716796875 -4.75 4.8 -3.5537109375 3.687109375 -2.25 2.75 0.5 0.65 5.55 0.35 7.1751953125 0.2544921875 8.25 0.4 8.0244140625 -2.1650390625 7.3 -4.3 5.45 -9.85 1.5 -7.8 -3.6 -7.6 -4.5 -5.95 Z"/>
</g>
</g>
</svg>
