
<svg xmlns="http://www.w3.org/2000/svg" version="1.1" xmlns:xlink="http://www.w3.org/1999/xlink" preserveAspectRatio="xMinYMin meet" x="0px" y="0px" width="800px" height="600px" viewBox="-20 -40 800 600">
<g id="Mouth_drool_o">
<g id="Layer1_0_FILL">
<path fill="#FFFFFF" stroke="none" d="
M 3.4 5.75
Q 3.4 5.6197265625 3.4 5.5 1.815625 5.5228515625 0.8 6.2 0.633984375 6.29609375 0.5 6.4 0.625 6.4 0.75 6.4
L 0.75 6.4
Q 0.75 6.5921875 0.75 6.8 0.65 8.4 2 8.4 3.05 8.4 3.4 5.75 Z"/>

<path fill="#F39494" stroke="none" d="
M 3.4 -3.2
Q 2.05 -4.65 0.05 -4.75 -1.9 -4.85 -3.3 -3.55 -4.8 -2.05 -4.8 0.5 -4.8 3.55 -2.4 6 -0.8044921875 6.3646484375 0.5 6.4 0.633984375 6.29609375 0.8 6.2 1.815625 5.5228515625 3.4 5.5 3.38671875 5.395703125 3.35 5.3 3.818359375 4.828515625 4.15 4.15 4.9 2.65 4.9 1.1 4.9 -1.55 3.4 -3.2 Z"/>
</g>
</g>
</svg>
