
<svg xmlns="http://www.w3.org/2000/svg" version="1.1" xmlns:xlink="http://www.w3.org/1999/xlink" preserveAspectRatio="xMinYMin meet" x="0px" y="0px" width="800px" height="600px" viewBox="-20 -40 800 600">
<g id="Mouth_drool_e">
<g id="Layer1_0_FILL">
<path fill="#F39494" stroke="none" d="
M 5.5 8.4
Q 5.904296875 8.2162109375 6.25 7.35 5.634765625 7.8521484375 4.85 8.4
L 5.5 8.4
M 3.55 5.9
Q 3.8017578125 5.5771484375 4.05 5.35 4.1306640625 5.312109375 4.2 5.25 4.141796875 5.29921875 4.05 5.3 3.802734375 5.4466796875 3.5 5.55 3.5544921875 5.910546875 3.65 6.35 3.60546875 6.1234375 3.55 5.9
M 7.45 -3.7
Q 3.45 -3.25 2.8 -3.2 -2.3 -2.9 -3.95 -2.9 -5.7 -2.9 -7.05 -3.1
L -7.05 -1
Q -7 -0.85 -6.85 2.6 -6.75 4.5 -4.9 5.25 -1.482421875 7.543359375 4.05 5.3 4.398046875 5.0171875 4.75 4.9 5.5740234375 4.63984375 6.85 4.2 6.890625 4.3369140625 6.9 4.5 6.8931640625 4.2341796875 6.85 4 7.4859375 3.6869140625 8.1 2.5 8.4 2 9 0.95 9 0.55 9 0.15 9 -0.9498046875 8.7 -1.9 8.5369140625 -2.380859375 8.3 -2.85 8.039453125 -3.2822265625 7.7 -3.7 7.55 -3.7 7.45 -3.7 Z"/>

<path fill="#FFFFFF" stroke="none" d="
M 6.9 4.5
Q 6.890625 4.3369140625 6.85 4.2 5.5740234375 4.63984375 4.75 4.9 4.398046875 5.0171875 4.05 5.3 4.141796875 5.29921875 4.2 5.25 4.1306640625 5.312109375 4.05 5.35 3.8017578125 5.5771484375 3.55 5.9 3.60546875 6.1234375 3.65 6.35
L 3.7 6.65
Q 3.741015625 6.715625 3.75 6.75 3.8 7.05 3.7 7.65 3.8 8.1 4.75 8.4
L 4.85 8.4
Q 5.634765625 7.8521484375 6.25 7.35 6.315234375 7.23046875 6.35 7.05
L 6.5 6.7
Q 6.9 5.5 6.9 4.7
L 6.9 4.5 Z"/>
</g>
</g>
</svg>
