
<svg xmlns="http://www.w3.org/2000/svg" version="1.1" xmlns:xlink="http://www.w3.org/1999/xlink" preserveAspectRatio="xMinYMin meet" x="0px" y="0px" width="800px" height="600px" viewBox="-20 -40 800 600">
<g id="Mouth_angry_o">
<g id="Layer1_0_FILL">
<path fill="#F39494" stroke="none" d="
M 9.75 -0.5
Q 9.75 -1.45 9.3 -3.2 8.85 -4.1 8.15 -5.4 6.1 -8.75 3.15 -8.6 1.15 -8.5 -2.4 -6.5 -2.45 -6.5 -3.5 -7.2 -4.6 -7.85 -5.4 -7.75 -6.35 -7.25 -6.95 -6.55 -7.35 -6.45 -7.8 -6.05 -8.2 -5.8 -8.3 -5.15 -8.4 -4.4 -8.5 -4.05 -8.7 -3.35 -8.8 -2.75 -8.9 -2.4 -8.95 -2 -9.15 -0.85 -9.15 -0.05 -9.15 0.95 -8.95 1.9
L -8.95 1.95
Q -8.95 2.05 -8.95 2.1 -8.95 4.75 -6.8 7.05 -4.35 9.65 -0.6 9.65 3.9 9.65 7.35 5.35 7.9 4.7 8.35 4.1 8.55 3.45 8.8 2.6 9.75 -0.1 9.75 -0.5 Z"/>
</g>
</g>
</svg>
