
<svg xmlns="http://www.w3.org/2000/svg" version="1.1" xmlns:xlink="http://www.w3.org/1999/xlink" preserveAspectRatio="xMinYMin meet" x="0px" y="0px" width="800px" height="600px" viewBox="-20 -40 800 600">
<g id="Mouth_drool_u">
<g id="Layer1_0_FILL">
<path fill="#F39494" stroke="none" d="
M 2.25 6.9
Q 2.6462890625 6.9 2.9 6.55 2.534765625 6.734375 2.1 6.9 2.179296875 6.9 2.25 6.9
M 3.75 -0.15
Q 3.75 -4.3 0.75 -5.15 -2.25 -6.05 -2.25 -0.1 -2.25 1.55 -2.1 2 -1.7 3.35 0 4.25
L 1 4.25
Q 1.0060546875 4.4296875 1 4.6 1.5806640625 4.203515625 2.4 3.75 2.9123046875 3.4705078125 3.3 3.3 3.254296875 2.927734375 3.1 2.65 2.863671875 2.9513671875 2.5 3.25 3.3994140625 2.4017578125 3.6 1.9 3.75 1.5 3.75 -0.15 Z"/>

<path fill="#FFFFFF" stroke="none" d="
M 1 4.75
Q 1 4.8 1 5.85 1.183984375 6.8162109375 2.1 6.9
L 2.1 6.9
Q 2.534765625 6.734375 2.9 6.55 2.981640625 6.4775390625 3.05 6.35
L 3.35 5
Q 3.4 4.6517578125 3.4 4.2 3.4 3.698046875 3.3 3.3 2.9123046875 3.4705078125 2.4 3.75 1.5806640625 4.203515625 1 4.6 1 4.68671875 1 4.75 Z"/>
</g>
</g>
</svg>
