
<svg xmlns="http://www.w3.org/2000/svg" version="1.1" xmlns:xlink="http://www.w3.org/1999/xlink" preserveAspectRatio="xMinYMin meet" x="0px" y="0px" width="800px" height="600px" viewBox="-20 -40 800 600">
<g id="Mouth_happy_e">
<g id="Layer1_0_FILL">
<path fill="#F39494" stroke="none" d="
M 8.7 -1.9
Q 8.5369140625 -2.380859375 8.3 -2.85 8.039453125 -3.2822265625 7.7 -3.7 7.55 -3.7 7.45 -3.7 3.45 -3.25 2.8 -3.2 -2.3 -2.9 -3.95 -2.9 -5.7 -2.9 -7.05 -3.1
L -7.05 -1
Q -7 -0.85 -6.85 2.6 -6.75 4.5 -4.9 5.25 -0.7400390625 8.04140625 6.6 4.15
L 6.65 4.1
Q 7.371875 3.9076171875 8.1 2.5 8.4 2 9 0.95 9 0.55 9 0.15 9 -0.9498046875 8.7 -1.9 Z"/>
</g>
</g>
</svg>
