
<svg xmlns="http://www.w3.org/2000/svg" version="1.1" xmlns:xlink="http://www.w3.org/1999/xlink" preserveAspectRatio="xMinYMin meet" x="0px" y="0px" width="800px" height="600px" viewBox="-20 -40 800 600">
<g id="Mouth_duck_default">
<g id="Layer1_0_FILL">
<path fill="#F3B4A5" stroke="none" d="
M 0.9 -4.55
Q 0.9 -4.95 0.55 -5.4 0.15 -5.9 -0.5 -6.15 -4.05 -6.55 -5.7 -5 -6.9 -3.95 -6.9 -2.4 -6.9 -1.55 -6.55 -1.05 -5.85 -0.3 -5.25 0.6 -6.2 1.65 -6.8 2.2 -6.9 2.35 -6.9 3.4 -6.9 4.5 -6.25 5.55 -4.95 7.65 -1.5 7.65 -0.65 7.65 -0.3 7.5 0.15 7.3 0.15 6.75 0.15 6.1 -0.75 5.75 -3.5 5.3 -4.45 4.65 -5 4.25 -5 3.55 -5 2.3 -4 2 -2.35 2.05 -1.75 1.45 -1.5 1.2 -1.5 0.8 -1.5 0.05 -3.25 -0.6 -5 -1.3 -5 -2.4 -5 -3.25 -3.5 -4.15
L -1.05 -4.25
Q -0.6 -3.5 -0.1 -3.5 0.9 -3.5 0.9 -4.55 Z"/>
</g>
</g>
</svg>
