
<svg xmlns="http://www.w3.org/2000/svg" version="1.1" xmlns:xlink="http://www.w3.org/1999/xlink" preserveAspectRatio="xMinYMin meet" x="0px" y="0px" width="800px" height="600px" viewBox="-20 -40 800 600">
<g id="Mouth_duck_n">
<g id="Layer1_0_FILL">
<path fill="#FFFFFF" stroke="none" d="
M -0.9 -0.25
Q -2.0884765625 -0.1875 -3.05 -0.45 -3.4232421875 -0.280078125 -3.75 0 -3.75 0.1224609375 -3.75 0.25 -3.75 1.5935546875 -4.25 2.35
L -4.25 2.35
Q -2.8888671875 1.494140625 -0.9 1.15
L -0.9 -0.25 Z"/>

<path fill="#F3B4A5" stroke="none" d="
M -0.5 -7
Q -0.5 -9 -3.45 -7.65 -6.4 -6.35 -6.4 -3.95 -6.4 -3.918359375 -6.4 -3.9 -6.3814453125 -3.36328125 -6.1 -2.8 -5.79375 -2.3162109375 -5.3 -1.8 -4.6697265625 -1.1087890625 -3.85 -0.75 -3.4580078125 -0.559375 -3.05 -0.45 -2.0884765625 -0.1875 -0.9 -0.25
L -0.9 1.15
Q -2.8888671875 1.494140625 -4.25 2.35 -4.65234375 2.6369140625 -5 2.95 -5.051953125 2.999609375 -5.1 3.05 -6.15 4.0900390625 -6.15 5.05 -6.15 7.5 -2 8.9
L -0.25 8.9
Q 0.65 8.6 0.65 7.8 0.65 7.15 -1.8 6.65 -4.25 6.15 -4.25 5.25 -4.25 4.7 -3.5 4.1 -3 3.65 -1.6 3.6 -0.15 3.55 0.25 3.1 0.9 2.5 0.9 0.45 0.9 -1.5 0 -2.15 -2.15 -1.75 -3.5 -2.75 -4.2 -3.2 -4.5 -3.8 -3.8 -6.05 -2.1 -6.05 -1.25 -6.05 -1 -6.15 -0.5 -6.35 -0.5 -7 Z"/>
</g>
</g>
</svg>
