
<svg xmlns="http://www.w3.org/2000/svg" version="1.1" xmlns:xlink="http://www.w3.org/1999/xlink" preserveAspectRatio="xMinYMin meet" x="0px" y="0px" width="800px" height="600px" viewBox="-20 -40 800 600">
<g id="Mouth_cat_e">
<g id="Layer1_0_FILL">
<path fill="#F39494" stroke="none" d="
M 8.15 -0.15
Q 7.35 -0.55 6.45 -0.3 5.15 0 3.65 0.05 2.65 -0.15 1.75 -0.8
L -0.2 -1.7
Q -0.9 -1.3 -1.65 -0.95 -3.8 0.2 -6.15 0.55 -7.15 0.65 -7.4 1.55 -7.3 2.4 -6.7 3 -5.8 3.95 -4.55 4.55 -3.8 4.9 -3 5.15 0.75 6.0171875 3 5.2 5.3 4.437109375 6.05 3.75 6.8 3.104296875 7.6 2.35 8.8 1.2 8.15 -0.15 Z"/>
</g>
</g>
</svg>
