
<svg xmlns="http://www.w3.org/2000/svg" version="1.1" xmlns:xlink="http://www.w3.org/1999/xlink" preserveAspectRatio="xMinYMin meet" x="0px" y="0px" width="800px" height="600px" viewBox="-20 -40 800 600">
<g id="Mouth_angry_a">
<g id="Layer1_0_FILL">
<path fill="#F39494" stroke="none" d="
M 4.1 -6.75
Q 1.3 -4.5 0.9 -4.5 0.2 -4.5 -1.55 -5.7 -3.3 -6.9 -4.25 -6.9 -5.35 -6.9 -5.9 -3.95 -6.2 -2.4 -6.4 -0.3 -6.7 0.65 -7.15 3.45 -7.65 6.15 -7.65 6.55 -7.05 7.9 -5.5 7.9 -5.1 7.9 -4.9 7.85
L -4.75 7.75 8.5 7.65
Q 9.4 7.15 9.4 6.65 9.4 6.25 8.9 4.25 8.4 2.2 8.4 2.15 8.4 -0.8 8.1 -2.25 7.95 -3.1 7.7 -4.6 7.4 -5.8 6.6 -6.75 6.15 -8.15 4.1 -6.75 Z"/>
</g>
</g>
</svg>
