
<svg xmlns="http://www.w3.org/2000/svg" version="1.1" xmlns:xlink="http://www.w3.org/1999/xlink" preserveAspectRatio="xMinYMin meet" x="0px" y="0px" width="800px" height="600px" viewBox="-20 -40 800 600">
<g id="Mouth_pout_default">
<g id="Layer1_0_FILL">
<path fill="#F3B4A5" stroke="none" d="
M 7.9 -2.1
Q 6.85 -2.35 6.6 -0.8 6.5380859375 -0.3048828125 6.45 0.1 4.5810546875 -0.15 0.6 -0.15 -4.1 -0.15 -4.9 0 -5.4 0.1 -5.4 0.8 -5.4 1 -5.15 1.2 -4.75 1.45 -4.5 1.65 -1 1.75 3.5 1.75 4.7 1.75 5.95 1.95 6.107421875 1.976171875 6.25 2
L 6.25 2.1
Q 6.25 3.25 6.35 3.6
L 7.25 3.9
Q 8.05 3.8 8.15 2.9 8.15 2.0923828125 8.15 1.75 8.4 1.5400390625 8.4 1.25 8.4 1.04375 8.3 0.85 8.4326171875 0.5064453125 8.6 0.1 8.9 -0.65 8.9 -1 8.9 -1.8 7.9 -2.1 Z"/>
</g>
</g>
</svg>
