
<svg xmlns="http://www.w3.org/2000/svg" version="1.1" xmlns:xlink="http://www.w3.org/1999/xlink" preserveAspectRatio="xMinYMin meet" x="0px" y="0px" width="800px" height="600px" viewBox="-20 -40 800 600">
<g id="Mouth_tongue_o">
<g id="Layer1_0_FILL">
<path fill="#F39494" stroke="none" d="
M 6.15 5.7
Q 7.55 5.1 8.3 3.85 12.35 -2.85 4.3 -6.15 -2.2 -8.25 -5.35 -2.5 -6.35 -0.7 -5.9 1.2 -3.95 9.8 6.15 5.7 Z"/>
</g>

<g id="Layer1_1_FILL">
<path fill="#F8BABA" stroke="none" d="
M 5.45 12.35
Q 6.9 8.9 6.9 6.75 6.9 5.45 6.8 5.25 6.7 5.05 5.4 3.35 4.05 1.9 1.8 2.05 -0.75 2.5 -2 2.5 -3.55 2.55 -4.7 5 -5.65 7.1 -5.65 8.85 -5.3 11 -4.4 13.05 -2.6 17.15 0.25 17.15 3.45 17.15 5.45 12.35
M -3.55 10.05
Q -2.5 10.05 -2.5 11 -2.5 11.8 -3.6 11.9 -4.65 11.9 -4.65 11.05 -4.65 10.1 -3.55 10.05 Z"/>

<path fill="#FFFFFF" stroke="none" d="
M -2.5 11
Q -2.5 10.05 -3.55 10.05 -4.65 10.1 -4.65 11.05 -4.65 11.9 -3.6 11.9 -2.5 11.8 -2.5 11 Z"/>
</g>
</g>
</svg>
