
<svg xmlns="http://www.w3.org/2000/svg" version="1.1" xmlns:xlink="http://www.w3.org/1999/xlink" preserveAspectRatio="xMinYMin meet" x="0px" y="0px" width="800px" height="600px" viewBox="-20 -40 800 600">
<g id="Mouth_duck_o">
<g id="Layer1_0_FILL">
<path fill="#F39494" stroke="none" d="
M 7.5 -4.65
Q 5.05 -7 1.65 -7.5 -1.9 -8.05 -4.25 -6.15 -6.9 -4.05 -6.9 0.5 -6.9 3.9 -5 6.5 -3.6912109375 8.2544921875 -1.8 9 -0.7529296875 8.693359375 0.9 8.9 1.2169921875 8.94375 1.5 9 1.9962890625 9 2.4 9 3.628515625 8.9763671875 4.4 8.85 5.4603515625 8.323046875 6.65 7.4 10.15 4.75 10.15 1.4 10.15 -2.05 7.5 -4.65 Z"/>
</g>

<g id="Layer1_1_FILL">
<path fill="#F3B4A5" stroke="none" d="
M -4 12.15
Q -3 11.75 -2.95 11.15 -2.85 10.05 -2.8 10 -2.4 9.5 -1.05 9.15 -0.3162109375 8.975390625 -0.1 8.6 -1.271484375 8.2712890625 -2.65 7.65 -4.9 8.58671875 -4.9 10.6 -4.9 11.5 -4.8 11.85
L -4 12.15
M -1.4 -7.3
Q -1.0279296875 -7.464453125 -0.7 -7.6 -0.708203125 -7.6314453125 -0.75 -7.65 -4.7 -7.55 -6.15 -8.3 -7 -8.8 -7 -9.7 -7 -10 -7.05 -10.45 -7.05 -10.8 -6.65 -10.8 -5.85 -10.8 -5.5 -11.05 -5.25 -11.3 -5.25 -11.85 -5.25 -13.75 -7.05 -12.6 -8.9 -11.45 -8.9 -9.65 -8.9 -8.3 -7.9 -7.3 -6.9494140625 -6.37890625 -5.2 -6 -3.20625 -6.5447265625 -1.4 -7.3 Z"/>
</g>
</g>
</svg>
