
<svg xmlns="http://www.w3.org/2000/svg" version="1.1" xmlns:xlink="http://www.w3.org/1999/xlink" preserveAspectRatio="xMinYMin meet" x="0px" y="0px" width="800px" height="600px" viewBox="-20 -40 800 600">
<g id="Mouth_tongue_e">
<g id="Layer1_0_FILL">
<path fill="#F39494" stroke="none" d="
M 5.65 -0.65
Q 5.65 -1.4 4 -2.4 1 -2.4 1 -2.25 -0.7 -2.15 -6 -1.4 -6.55 -1.4 -7.25 -1.45 -7.65 -1.4 -7.65 -0.75 -7.65 0.85 -5 1.85 -2.8 2.65 -0.35 2.65 3.05 2.65 4.6 1.4 5.65 0.55 5.65 -0.65
M 0 -0.25
L 0 -0.15
Q 0 -0.053125 -0.75 0 -0.25 -0.15 0 -0.25 Z"/>
</g>

<g id="Layer1_1_FILL">
<path fill="#FBB7B7" stroke="none" d="
M 2.25 -2.75
Q 1.9234375 -3.2509765625 1.65 -4 0.15 -8.05 -1 -8.8 -4.7 -10.1 -6.75 -6.25 -7.4 -5.05 -7.45 -4.3 -7.4 -3.35 -7.4 -2.55 -7.65 -1 -6.9 0.5 -5.5 3.4 -0.6 3.4 2.65 3.4 3.7 2.75 4.4 2.3 4.4 1.3 4.4 0.75 4.1 0.25 4.1546875 0.25 4.2 0.25 3.6677734375 -0.269140625 3.2 -1 2.538671875 -1.9919921875 2.25 -2.75
M -4.55 -7.35
Q -3.5 -7.35 -3.5 -6.4 -3.5 -5.9 -4 -5.65 -4.35 -5.5 -4.6 -5.5 -5.3 -5.5 -5.55 -6 -5.65 -6.25 -5.65 -6.4 -5.65 -7.35 -4.55 -7.35 Z"/>

<path fill="#FFFFFF" stroke="none" d="
M -3.5 -6.4
Q -3.5 -7.35 -4.55 -7.35 -5.65 -7.35 -5.65 -6.4 -5.65 -6.25 -5.55 -6 -5.3 -5.5 -4.6 -5.5 -4.35 -5.5 -4 -5.65 -3.5 -5.9 -3.5 -6.4 Z"/>
</g>
</g>
</svg>
