
<svg xmlns="http://www.w3.org/2000/svg" version="1.1" xmlns:xlink="http://www.w3.org/1999/xlink" preserveAspectRatio="xMinYMin meet" x="0px" y="0px" width="800px" height="600px" viewBox="-20 -40 800 600">
<g id="Mouth_tongue_i">
<g id="Layer1_0_FILL">
<path fill="#F39494" stroke="none" d="
M 8.75 -3.15
Q 7.25 -2.4 6.25 -2.25
L -0.85 -2.25
Q -5.9 -3.4 -7.75 -2.15 -8.65 -1.55 -8.65 -0.45 -8.65 1.85 0.75 1.9
L 0.75 1.75
Q 3.55 1.75 6.35 1.45 11.9 0.9 11.9 -0.8 11.9 -1.2 11.55 -1.6 11.2 -2.15 10.95 -2.6 10.2 -3.15 8.95 -3.15 8.85 -3.15 8.75 -3.15 Z"/>
</g>

<g id="Layer1_1_FILL">
<path fill="#FBB7B7" stroke="none" d="
M 4.4 2.75
Q 4.4 1.35 3.75 0.25 2.9 -1.15 1.35 -1.15 -1.5 -1.15 -2.65 1.25 -3.4 2.75 -3.4 4.8 -3.4 6 -3 7.15 -2.1 9.4 0.25 9.4 4.4 9.4 4.4 2.75
M -3.15 5.05
Q -3.15 3.8 -1.85 3.8 -0.6 3.8 -0.6 4.75 -0.6 5.25 -1.05 5.6 -1.5 5.9 -2 5.9 -3.15 5.9 -3.15 5.05 Z"/>

<path fill="#FFFFFF" stroke="none" d="
M -1.85 3.8
Q -3.15 3.8 -3.15 5.05 -3.15 5.9 -2 5.9 -1.5 5.9 -1.05 5.6 -0.6 5.25 -0.6 4.75 -0.6 3.8 -1.85 3.8 Z"/>
</g>
</g>
</svg>
