
<svg xmlns="http://www.w3.org/2000/svg" version="1.1" xmlns:xlink="http://www.w3.org/1999/xlink" preserveAspectRatio="xMinYMin meet" x="0px" y="0px" width="800px" height="600px" viewBox="-20 -40 800 600">
<g id="Mouth_duck_e">
<g id="Layer1_0_FILL">
<path fill="#F39494" stroke="none" d="
M -3.7 -2.85
Q -3.8888671875 -2.85 -4.1 -2.8 -4.26015625 -2.6890625 -4.45 -2.65 -4.5193359375 -2.5603515625 -4.6 -2.5
L -4.15 -2.5
Q -3.95 -2.7 -3.7 -2.85
M 11.1 -7.8
L 11.1 -7.8
Q 7.9021484375 -7.714453125 4.75 -6.35 1.5 -4.65 0.35 -4.15 -1.95 -3.1 -5.2 -1.4 -6.080078125 -0.93828125 -6.7 -0.6 -6.1587890625 -0.5 -5.5 -0.5 -5.45 -0.5 -5.4 -0.5 -5.4 -0.426171875 -5.4 -0.35 -5.4 -0.2892578125 -5.4 -0.25 -5.4 0.1544921875 -5.4 0.5 -5.2330078125 2.2609375 -4.45 3.25 -2.25 6.15 4.85 6.15 5.7724609375 6.15 6.55 6.1 10.361328125 4.888671875 10.4 4.85 11.15 4.5 13.1 3.2 13.59765625 2.8587890625 14 2.6 14.9 1.3349609375 14.9 -0.5 14.9 -3.805078125 13.25 -5.95 12.480859375 -6.9173828125 11.35 -7.65
L 11.3 -7.7
Q 11.2068359375 -7.744140625 11.1 -7.8 Z"/>

<path fill="#F3B4A5" stroke="none" d="
M 0.35 -4.15
Q 1.5 -4.65 4.75 -6.35 7.9021484375 -7.714453125 11.1 -7.8 5.9703125 -10.8109375 -3.7 -2.85 -3.95 -2.7 -4.15 -2.5
L -4.6 -2.5 -6.75 -2.5
Q -7.25 -3 -7.25 -3.25
L -7.25 -3.45
Q -7.671875 -4.0533203125 -7.75 -5.05 -7.75 -5.9 -7.3 -6.85 -7.144140625 -7.1357421875 -6.9 -7.65 -6.984375 -7.65 -7.1 -7.65 -8.3 -7.65 -8.8 -6.05 -9.15 -5.1 -9.15 -4.05 -9.35 -3.1 -8.95 -2.25 -8.4177734375 -0.919140625 -6.7 -0.6 -6.080078125 -0.93828125 -5.2 -1.4 -1.95 -3.1 0.35 -4.15 Z"/>
</g>
</g>
</svg>
