
<svg xmlns="http://www.w3.org/2000/svg" version="1.1" xmlns:xlink="http://www.w3.org/1999/xlink" preserveAspectRatio="xMinYMin meet" x="0px" y="0px" width="800px" height="600px" viewBox="-20 -40 800 600">
<g id="Mouth_pout_i">
<g id="Layer1_0_FILL">
<path fill="#FFFFFF" stroke="none" d="
M 6.25 -0.95
L 1.25 -1.15
Q 0.8 -1.25 -5.5 -1.25 -5.881640625 -1.22265625 -6.2 -1.3 -6.420703125 -1.205859375 -6.55 -1.1 -6.9 -0.85 -6.9 -0.2 -6.9 0.05 -6.65 1 -6.4 1.95 -6.4 2.5 -6.4 3.4 -5.5 3.9 -5.25 4.05 1.5 4.4 5.25 4.9 5.35 4.9 5.6814453125 4.9 5.95 4.85 5.9875 4.4671875 6 4.05 6 0.9 6.05 0.5 6.1099609375 -0.2794921875 6.25 -0.95 Z"/>
</g>
</g>
</svg>
