
<svg xmlns="http://www.w3.org/2000/svg" version="1.1" xmlns:xlink="http://www.w3.org/1999/xlink" preserveAspectRatio="xMinYMin meet" x="0px" y="0px" width="800px" height="600px" viewBox="-20 -40 800 600">
<g id="Mouth_angry_n">
<g id="Layer1_0_FILL">
<path fill="#FFFFFF" stroke="none" d="
M 4.3 -1.75
Q 3.7 -1.05 3.6 -1 3.45 -0.8 2.15 0.1 0.75 1 0.5 1 0.35 1 -0.85 -0.2 -2.1 -1.4 -2.6 -1.4 -3.3 -1.4 -4.15 0.2 -4.9 1.65 -4.9 2.25 -4.9 3.6 -3.5 3.65
L 5.5 3.75
Q 6 3.9 7 3.9 7.9 3.7 7.9 2.9 7.9 2.6 7 1.05 5.9 -0.9 5.75 -1.25 5.05 -2.2 4.3 -1.75
M -2.55 1.65
L -2.5 1.5 -2.5 1.1
Q -2 1.5 -1.65 1.65
L -2.65 1.75 -2.55 1.65 Z"/>
</g>
</g>
</svg>
