
<svg xmlns="http://www.w3.org/2000/svg" version="1.1" xmlns:xlink="http://www.w3.org/1999/xlink" preserveAspectRatio="xMinYMin meet" x="0px" y="0px" width="800px" height="600px" viewBox="-20 -40 800 600">
<g id="Mouth_tongue_u">
<g id="Layer1_0_FILL">
<path fill="#F39494" stroke="none" d="
M 1.9 -1.35
Q 1.75 -2 1.25 -2.5 0.7 -3 -0.25 -3.45 -1.35 -3.95 -1.75 -3.8 -2.45 -3.5 -2.85 -2.85 -3.2 -2.1 -3.4 -1.8 -3.9 -1.15 -3.9 0.15 -4 1.1 -3.7 1.95 -3.15 3.65 -1.25 3.65 1.9 3.65 1.9 -0.3 1.9 -1.2 1.9 -1.35
M 0 -1
L 0 0.25
Q -0.1 0.9 -0.3 1.25 -1.2 1.15 -1.45 0.55 -1.5 0.4 -1.5 -0.15 -1.5 -0.9 -1.4 -1.05 -1.15 -1.5 0 -1 Z"/>
</g>

<g id="Layer1_1_FILL">
<path fill="#FBB7B7" stroke="none" d="
M 2.3 -0.5
Q 2.15 -0.95 1 -2.15 -4.15 -2 -7.35 1.5 -9.9 4.2 -9.9 6.65 -9.9 7.5 -9.65 7.9 -9.3 8.4 -8 9.15
L -6 9.15
Q -5.15 8.4 0.3 4.7 2.4 3.3 2.4 0.75 2.4 -0.3 2.3 -0.5
M -7.55 5.15
Q -7.85 5.4 -8.25 5.4 -9.15 5.4 -9.15 4.55 -9.15 3.6 -8.2 3.55 -7.25 3.55 -7.25 4.5 -7.25 4.9 -7.55 5.15 Z"/>

<path fill="#FFFFFF" stroke="none" d="
M -8.25 5.4
Q -7.85 5.4 -7.55 5.15 -7.25 4.9 -7.25 4.5 -7.25 3.55 -8.2 3.55 -9.15 3.6 -9.15 4.55 -9.15 5.4 -8.25 5.4 Z"/>
</g>
</g>
</svg>
