
<svg xmlns="http://www.w3.org/2000/svg" version="1.1" xmlns:xlink="http://www.w3.org/1999/xlink" preserveAspectRatio="xMinYMin meet" x="0px" y="0px" width="800px" height="600px" viewBox="-20 -40 800 600">
<g id="Mouth_tongue_n">
<g id="Layer1_0_FILL">
<path fill="#FFFFFF" stroke="none" d="
M -2.4 2.05
L -2.4 2.1
Q -2.2291015625 2.2716796875 -2 2.45
L -1.7 2.7
Q -1.5380859375 2.8029296875 -1.4 2.9
L -1.35 2.9
Q -1.0451171875 2.8541015625 -0.8 2.65 -0.5 2.4 -0.5 2 -0.5 1.05 -1.45 1.05 -2.4 1.1 -2.4 2.05 Z"/>

<path fill="#FBB7B7" stroke="none" d="
M 0.5 3.4
Q 1.6 3.05 2.55 2.2 3.4 1.45 3.4 1 3.4 -0.65 0.25 -0.5 -2.9 -0.3 -2.9 1.15 -2.9 1.597265625 -2.4 2.1
L -2.4 2.05
Q -2.4 1.1 -1.45 1.05 -0.5 1.05 -0.5 2 -0.5 2.4 -0.8 2.65 -1.0451171875 2.8541015625 -1.35 2.9 -0.53203125 3.364453125 0.5 3.4 Z"/>
</g>
</g>
</svg>
