
<svg xmlns="http://www.w3.org/2000/svg" version="1.1" xmlns:xlink="http://www.w3.org/1999/xlink" preserveAspectRatio="xMinYMin meet" x="0px" y="0px" width="800px" height="600px" viewBox="-20 -40 800 600">
<g id="Mouth_drool_n">
<g id="Layer1_0_FILL">
<path fill="#FFFFFF" stroke="none" d="
M 4.75 -2.65
L 3.75 -2.65 3.75 -2.5
Q 0.2 -2.35 -0.8 -2.1 -2.15 -1.8 -3.75 -1.65 -4.05 -1.4 -4.1 -1.25 -4.15 -1.15 -4.15 -0.65 -4.15 -0.05 -4.05 0.2 -3.8 0.7 -3.5 1.4 -3.3 1.9 -3.45 2.8 -3.2 3.4 -0.6 3.4 1.0416015625 3.4 2.45 2.8 2.1572265625 2.951953125 1.85 3.05 2.2828125 4.9 3.35 4.9 4.2 4.9 4.6 4 4.9 3.3 4.9 2.45 5.0224609375 1.739453125 4.75 1.35 5.9 0.3287109375 5.9 -0.75 5.9 -1.4 5.75 -1.7 5.55 -2.1 4.75 -2.65 Z"/>
</g>
</g>
</svg>
