
<svg xmlns="http://www.w3.org/2000/svg" version="1.1" xmlns:xlink="http://www.w3.org/1999/xlink" preserveAspectRatio="xMinYMin meet" x="0px" y="0px" width="800px" height="600px" viewBox="-20 -40 800 600">
<g id="Mouth_cat_a">
<g id="Layer1_0_FILL">
<path fill="#F39494" stroke="none" d="
M 1.3 -4.45
Q 0.9 -4.75 0.5 -5 -0.15 -5.15 -0.7 -5.15 -1.1 -4.6 -1.6 -4 -2.1 -3.4 -2.55 -2.9 -3.2 -1.9 -3.65 -1.3 -4.1 -0.8 -5 0.7 -5 0.85 -5 1 -5 1.75 -5 2.9 -4.9 3.85 -4.15 4.9 -3 6.5 -2.45 7.05 -1.1 8.35 0.75 8.85
L 2.75 8.85
Q 4.95 8.2 5.95 5.4 6.6 3.55 6.6 1.3 6.6 -0.3 6.55 -0.65 6.5 -0.8 6.5 -0.9 6.05 -1.25 5.6 -1.5 4.5 -2.2 3.25 -3 3.2 -3.05 3.15 -3.1 2.35 -3.75 1.3 -4.45 Z"/>
</g>
</g></svg>
