
<svg xmlns="http://www.w3.org/2000/svg" version="1.1" xmlns:xlink="http://www.w3.org/1999/xlink" preserveAspectRatio="xMinYMin meet" x="0px" y="0px" width="800px" height="600px" viewBox="-20 -40 800 600">
<g id="Mouth_duck_i">
<g id="Layer1_0_FILL">
<path fill="#FFFFFF" stroke="none" d="
M 11 -0.7
Q 10.6 -1.45 10.15 -1.75 7.05 -1.9 6.45 -1.9 4.25 -1.9 0.5 -0.75
L -3.45 0.2
Q -3.6279296875 0.226171875 -3.8 0.25 -4.7919921875 0.4 -5.6 0.4 -5.68828125 0.4 -5.8 0.4 -5.8224609375 0.5349609375 -5.85 0.7 -5.9 0.95 -5.9 2 -6.0001953125 2.2671875 -6.05 2.5 -4.6072265625 2.6857421875 -2.75 3.15 -0.506640625 3.4748046875 1.1 3.7 1.51796875 3.7640625 1.9 3.8 1.8064453125 3.84140625 1.7 3.85 1.3513671875 3.99609375 2.25 3.95 2.933984375 3.950390625 4.3 3.85 7.4978515625 3.5986328125 11.4 0.35 11.4 -0.05 11 -0.7 Z"/>

<path fill="#F3B4A5" stroke="none" d="
M -3.9 -1.5
L -7.5 -1.5
Q -8.25 -2 -8.25 -2.55 -8.15 -4.25 -6.55 -4.25 -6.05 -3.5 -5.75 -3.5 -5.25 -3.5 -5 -3.95 -4.75 -4.35 -4.75 -4.8 -4.75 -6.05 -5.75 -6.15 -8.35 -5.9 -9.45 -4.55 -10.15 -3.65 -10.15 -2.5 -10.2 -1.7 -9.65 -1 -8.63203125 0.3572265625 -5.8 0.4 -5.68828125 0.4 -5.6 0.4 -4.7919921875 0.4 -3.8 0.25 -3.6279296875 0.226171875 -3.45 0.2
L 0.5 -0.75
Q 4.25 -1.9 6.45 -1.9 7.05 -1.9 10.15 -1.75 10.6 -1.45 11 -0.7 11.4 -0.05 11.4 0.35 7.4978515625 3.5986328125 4.3 3.85 2.933984375 3.950390625 2.25 3.95 2.25 4.05390625 2.25 4.15 2.25 4.25 2.55 4.6 2.95 5.1 3.5 5.4 4.9873046875 5.1134765625 6.25 4.8 6.2935546875 4.7896484375 6.35 4.75
L 11.25 3.1
Q 13.4 1.95 13.4 0.25 13.55 -0.85 12.75 -1.85 11.2 -3.9 6.5 -3.9 4.35 -3.9 0.1 -2.7 -2 -2.1 -3.9 -1.5 Z"/>
</g>
</g>
</svg>
