
<svg xmlns="http://www.w3.org/2000/svg" version="1.1" xmlns:xlink="http://www.w3.org/1999/xlink" preserveAspectRatio="xMinYMin meet" x="0px" y="0px" width="800px" height="600px" viewBox="-20 -40 800 600">
<g id="Mouth_pout_n">
<g id="Layer1_0_FILL">
<path fill="#F3B4A5" stroke="none" d="
M 3.75 -0.3
Q 3.75 -0.25 3.75 -0.2
L 3.75 0.45
Q 3.75 0.6 3.8 0.75 3.8 1.1 3.85 1.35
L 4.75 1.65
Q 5.7 1.45 5.75 0.5 5.8 0.05 5.65 -0.65 5.65 -1 6.05 -1.9 6.4 -2.8 6.4 -3.1 6.4 -4.25 5.45 -4 4.5 -3.8 4.25 -2.9 4.1 -2.4 4.05 -2 3.8 -1.05 3.75 -0.5
L 3.75 -0.3 Z"/>

<path fill="#FFFFFF" stroke="none" d="
M 3.75 -0.2
Q 3.75 -0.25 3.75 -0.3
L 3.75 -0.5
Q 3.8 -1.05 4.05 -2 2.85 -2.4 0.4 -2.15 -4.4 -1.7 -4.4 -0.1 -4.4 0.4 -4.15 0.7 -3.8 1.15 -2.75 1.65
L -1 1.65
Q -0.55 1.55 -0.25 1.25 1.65 2.1 3.55 0.9 3.65 0.8 3.8 0.75 3.75 0.6 3.75 0.45
L 3.75 -0.2 Z"/>
</g>
</g>
</svg>
