
<svg xmlns="http://www.w3.org/2000/svg" version="1.1" xmlns:xlink="http://www.w3.org/1999/xlink" preserveAspectRatio="xMinYMin meet" x="0px" y="0px" width="800px" height="600px" viewBox="-20 -40 800 600">
<g id="Mouth_angry_default">
<g id="Layer1_0_FILL">
<path fill="#F3B4A5" stroke="none" d="
M 9.85 2.15
Q 10.9 2.15 10.9 1.05 10.9 0.8 7.25 -2.4 5.55 -2.3 0.1 0.5 -0.05 0.5 -1.8 -1.1 -3.4 -2.6 -4.75 -2.15 -5.15 -1.95 -6.5 -0.15 -7.9 1.7 -7.9 2.1 -7.9 2.75 -7.8 2.85
L -7 3.15
Q -6.6 3 -5.55 1.3 -4.55 -0.25 -4 -0.25 -3.65 -0.25 -1.85 1.2 -0.1 2.65 0.25 2.65 0.55 2.65 3.35 1.1 6.2 -0.5 6.75 -0.5 7.5 -0.5 8.25 0.85 9.05 2.15 9.85 2.15 Z"/>
</g>
</g>
</svg>
