
<svg xmlns="http://www.w3.org/2000/svg" version="1.1" xmlns:xlink="http://www.w3.org/1999/xlink" preserveAspectRatio="xMinYMin meet" x="0px" y="0px" width="800px" height="600px" viewBox="-20 -40 800 600">
<g id="Mouth_tongue_default">
<g id="Layer1_0_FILL">
<path fill="#FBB7B7" stroke="none" d="
M 1.9 2.3
Q 1.9 1 1 0.25
L -3.25 0.25
Q -4.15 0.75 -4.35 2.35 -4.4 2.75 -4.4 4.8 -4.4 4.85 -4.4 6.65 -4.05 8.4 -2.25 8.4 0.3 8.4 1.35 5.5 1.9 3.95 1.9 2.3
M -3.05 3.05
Q -2 3.05 -2 4.05 -2 5.15 -3 5.15 -3.7 5.15 -4 4.45 -4.15 4.15 -4.15 3.9 -4.15 3.05 -3.05 3.05 Z"/>

<path fill="#FFFFFF" stroke="none" d="
M -2 4.05
Q -2 3.05 -3.05 3.05 -4.15 3.05 -4.15 3.9 -4.15 4.15 -4 4.45 -3.7 5.15 -3 5.15 -2 5.15 -2 4.05 Z"/>
</g>
</g>
</svg>
