
<svg xmlns="http://www.w3.org/2000/svg" version="1.1" xmlns:xlink="http://www.w3.org/1999/xlink" preserveAspectRatio="xMinYMin meet" x="0px" y="0px" width="800px" height="600px" viewBox="-20 -40 800 600">
<g id="Mouth_happy_default">
<g id="Layer1_0_FILL">
<path fill="#F3B4A5" stroke="none" d="
M 6.75 -2.25
Q 6.15 -2.35 5.6 -2.45 4.6 -1.5 3.85 -0.8 3.7 -0.65 3.5 -0.45 2.15 0.65 0.65 0.95 0.2 1.05 -0.2 1.05 -0.25 1.05 -0.3 1 -2.8 0.95 -3.75 -0.95 -4 -1.45 -4.1 -1.95 -5.2 -1.8 -5.85 -1.75 -6 -1.55 -6 -1.25 -6 -0.15 -4.45 1.5 -2.75 3.3 -1.15 3 -0.7 3.2 -0.25 3.25 3 3.35 5.2 1.25 7.05 -0.45 7.05 -2 7.05 -2.1 7.05 -2.2 6.9 -2.2 6.75 -2.25 Z"/>
</g>
</g>
</svg>
