
<svg xmlns="http://www.w3.org/2000/svg" version="1.1" xmlns:xlink="http://www.w3.org/1999/xlink" preserveAspectRatio="xMinYMin meet" x="0px" y="0px" width="800px" height="600px" viewBox="-80 -40 800 600">
<defs>
<g id="Miku_parts_Bang_L_0_Layer0_0_FILL">
<path fill="#9CEBDA" stroke="none" d="
M -41.5 11.25
Q -50.55 19.4 -55.9 30.4 -61.8 42.6 -61.8 56.65 -58.35 43.95 -53 32.1 -50.6 26.6 -47.7 23
L -48.4 27.15 -47.55 28.55
Q -47.05 25.75 -43.55 22.95 -43.25 25.15 -41.1 25.65 -34.3 27.6 -27.4 28.3 -36.15 26.75 -41.8 23.55 -43.45 21.9 -40.25 17.55
L -46 23.2
Q -43.2 15.85 -36.95 11 -27.5 3.75 -18.05 -3.4 -31.15 1.85 -41.5 11.25 Z"/>

<path fill="#42B5A8" stroke="none" d="
M 5.7 -6.7
L 5.9 -7.1
Q 4.05 -9.6 -3.1 -8.45 -10.3 -7.3 -6.8 -7.15 -12.75 -5.5 -18.05 -3.4 -27.5 3.75 -36.95 11 -43.2 15.85 -46 23.2
L -40.25 17.55
Q -43.45 21.9 -41.8 23.55 -36.15 26.75 -27.4 28.3 -34.3 27.6 -41.1 25.65 -43.25 25.15 -43.55 22.95 -47.05 25.75 -47.55 28.55
L -48.4 27.15 -47.7 23
Q -50.6 26.6 -53 32.1 -58.35 43.95 -61.8 56.65 -61.75 63.45 -59.9 70.1 -55.6 52.55 -46.45 45.2 -52.25 65.45 -44 82.65 -35.75 99.8 -30.4 104.85
L -31.5 102.6 -30.8 103.1
Q -32.3 95.3 -32.15 87.4 -31.95 70.75 -26.2 55.55 -26.65 58.35 -26.9 61.15 -27.55 67.9 -27.2 74.75 -26.85 72.85 -26.25 70.05 -23.5 56.9 -16.9 41.75 -10.4 26.55 1.1 15.5 7.75 9.1 8.1 -0.05 8.25 -3.75 5.7 -6.7 Z"/>
</g>

<g id="Miku_parts_Bang_M_0_Layer0_0_FILL">
<path fill="#9CEBDA" stroke="none" d="
M -25.5 16.8
Q -26.25 12.65 -24.15 7.9 -28.4 16.75 -29.15 26.5 -30 37.5 -27.4 48.2
L -26.75 50.1
Q -29.5 39.1 -27 33.35 -24.55 27.55 -24.35 27 -21.7 29.9 -11 28.45 -10.6 28.4 -10.2 28.35 -18.65 29.05 -21.65 25.35 -24.65 21.6 -25.5 16.8
M 5.95 29.4
Q 12.2 31.75 12.25 37
L 16.15 15.75
Q 12.9 26.4 1.75 27.55 -1.35 27.7 -4.45 27.95 1.75 27.8 5.95 29.4 Z"/>

<path fill="#42B5A8" stroke="none" d="
M 17.35 -0.85
L 9 -9.9
Q 6.95 -9.8 4.95 -9.65 -1.95 -9.35 -8.45 -6.6 -17.9 -2.45 -23.35 6.35 -23.6 6.8 -23.85 7.25
L -24.15 7.9
Q -26.25 12.65 -25.5 16.8 -24.65 21.6 -21.65 25.35 -18.65 29.05 -10.2 28.35 -10.6 28.4 -11 28.45 -21.7 29.9 -24.35 27 -24.55 27.55 -27 33.35 -29.5 39.1 -26.75 50.1
L -27.4 48.2
Q -25.05 56.2 -20.9 63.45 -19.45 65.9 -17.95 68.4
L -12.2 45.15
Q -10.6 56.7 -4.8 66.5 -3.85 68.15 -2.8 69.8 -1.75 71.35 -0.65 72.9 5.5 59.9 9.65 46.1 10.3 43.85 10.95 41.55 11.6 39.3 12.25 37 12.2 31.75 5.95 29.4 1.75 27.8 -4.45 27.95 -1.35 27.7 1.75 27.55 12.9 26.4 16.15 15.75
L 17.35 -0.85 Z"/>
</g>

<g id="Miku_parts_Bang_R_0_Layer0_0_FILL">
<path fill="#9CEBDA" stroke="none" d="
M 1.8 34.35
Q 5.15 35.7 13.4 37.3 22.5 39.1 25.15 33.9 25.55 35 25.75 36.05 26.3 39.15 26.35 43.2 28.4 41.4 28.35 40.75
L 28.35 40.7
Q 29.35 39.55 30.55 36.3 32.1 44.1 32.3 51.9
L 32.35 46.85
Q 32.75 61.55 28.25 77.65
L 28.9 75.9
Q 31.5 67.15 32.8 58.35 34.5 46.35 33.7 34.4 32.95 23.45 29.75 13.25 32 23.3 31.4 33.45
L 29.5 30.05 28.15 37.75
Q 27.65 35.95 27.35 34.2 27.15 32.6 26.3 29.5 24.35 31.9 23.3 33.2 21.1 36.05 17.1 36 9.3 36.15 1.8 34.35
M -11.4 33.9
L -13.35 32.95 -11.45 37.8
Q -10.35 35.8 -11.4 33.9
M -2.3 34
Q -9.25 31 -9.75 30.65 -17.15 24.7 -19 15.05 -19.05 21.5 -17.2 27.6 -17.2 27.65 -17.15 27.7 -17 28.2 -16.8 28.85 -17 28.8 -17.2 28.8 -18.55 28.7 -16.5 29.7 -15.85 31.5 -15 33.35
L -13.35 32.95
Q -14.5 32 -15.05 30.75 -15.2 30.5 -15.25 30.25 -9.45 32.95 -2.3 34 Z"/>

<path fill="#42B5A8" stroke="none" d="
M -17.2 27.6
Q -18.25 27.05 -19.95 26.3 -18.25 27.15 -17.15 27.7 -17.2 27.65 -17.2 27.6
M -9.75 30.65
Q -9.25 31 -2.3 34 -9.45 32.95 -15.25 30.25 -15.2 30.5 -15.05 30.75 -14.5 32 -13.35 32.95
L -11.4 33.9
Q -10.35 35.8 -11.45 37.8 -7.2 48.1 -2.3 57.95 2.65 67.75 8.25 77.25
L 8.4 50.4 21.6 95.1 28.25 77.65
Q 32.75 61.55 32.35 46.85
L 32.3 51.9
Q 32.1 44.1 30.55 36.3 29.35 39.55 28.35 40.7
L 28.35 40.75
Q 28.4 41.4 26.35 43.2 26.3 39.15 25.75 36.05 25.55 35 25.15 33.9 22.5 39.1 13.4 37.3 5.15 35.7 1.8 34.35 9.3 36.15 17.1 36 21.1 36.05 23.3 33.2 24.35 31.9 26.3 29.5 27.15 32.6 27.35 34.2 27.65 35.95 28.15 37.75
L 29.5 30.05 31.4 33.45
Q 32 23.3 29.75 13.25 25.55 1.75 14.8 -4.05 6.05 -8.8 -4.1 -9.1 -16.2 0.25 -19 15.05 -17.15 24.7 -9.75 30.65 Z"/>
</g>
</defs>

<g id="Bangs">
<g id="L" transform="matrix( 1, 0, 0, 1, -13.55,-1.3) ">
<g transform="matrix( 1, 0, 0, 1, 0,0) ">
<use xlink:href="#Miku_parts_Bang_L_0_Layer0_0_FILL"/>
</g>
</g>

<g id="M" transform="matrix( 1, 0, 0, 1, 7.5,-1.7) ">
<g transform="matrix( 1, 0, 0, 1, 0,0) ">
<use xlink:href="#Miku_parts_Bang_M_0_Layer0_0_FILL"/>
</g>
</g>

<g id="R" transform="matrix( 1, 0, 0, 1, 34.35,0) ">
<g transform="matrix( 1, 0, 0, 1, 0,0) ">
<use xlink:href="#Miku_parts_Bang_R_0_Layer0_0_FILL"/>
</g>
</g>
</g>
</svg>
