<svg xmlns="http://www.w3.org/2000/svg" version="1.1" xmlns:xlink="http://www.w3.org/1999/xlink" preserveAspectRatio="xMinYMin meet" x="0px" y="0px" width="800px" height="600px" viewBox="-20 -40 800 600">
<defs>
<g id="Miku_parts_Tie_0_Layer0_0_FILL">
<path fill="#53B5B5" stroke="none" d="
M 12.35 41.25
Q 10.26328125 35.2955078125 9.3 30.8 6.757421875 17.6626953125 5.55 9.9 5.460546875 9.45859375 5.35 9 5.2568359375 9.55 0.25 9.55 -1.0150390625 9.55 -3.45 8.45
L -9.35 41.9
Q -4.9 46.4 -3 52.5 -1.45 57.6 3.4 58.85 8.2314453125 50.3484375 12.35 41.25 Z"/>

<path fill="#449998" stroke="none" d="
M 4.1 -1.65
Q 3.9701171875 -1.719921875 3.85 -1.8 2.65 -2.2 1.5 -2.4 -0.85 -2.65 -3 -1.5 -2.6498046875 0.3955078125 -3.2 3.6 -3.752734375 6.859765625 -4.1 9.3 -4.443359375 11.7427734375 -3.45 8.45 -1.0150390625 9.55 0.25 9.55 5.2568359375 9.55 5.35 9 5.383203125 8.9771484375 5.4 8.95 4.82109375 4.965234375 4.6 2.55 4.2462890625 0.4013671875 4.1 -1.65 Z"/>
</g>

<g id="Miku_parts_Tie_0_Layer0_1_FILL">
<path fill="#42474F" stroke="none" d="
M -1 29.9
Q -2.037890625 29.75 -4 29.75 -6.85 29.75 -7.5 30 -7.75 30.55 -7.75 31.85 -7.75 33.25 -7.6 34
L -6.85 34.2
Q -6.75 34.25 -6 34.25 -4.35 34.25 -2.5 33.55 -1.6099609375 33.213671875 -1.1 32.8 -1 31.9458984375 -1 31.3
L -1 29.9
M -5 28.5
Q -4.5 28.2 -2.6 27.85 -1.662890625 27.6685546875 -1 27.55
L -1 24.75
Q -4.7755859375 25 -5.75 25 -6.001171875 25 -6.25 25 -8 26.0794921875 -8 27.25 -8 28.05 -7.7 28.25 -7.55 28.4 -7 28.5
L -5 28.5 Z"/>
</g>




</defs>

<g id="Collar">
<g id="Layer0_0_FILL">
<path fill="#449998" stroke="none" d="
M -3.25 1.5
Q -3.5603515625 1.2783203125 -3.9 1.15 -4.797265625 1.587890625 -6.05 2.65 -5.15 2.85 -4.65 3.15 -4.55546875 3.161328125 -4.45 3.15 -3.566796875 2.314453125 -3.25 1.5
M 8.85 5.5
Q 6.998046875 2.9849609375 5.75 2.15 5.2845703125 1.8513671875 4.9 1.8
L 4.85 1.8
Q 4.7923828125 1.7935546875 4.7 1.8 4.6498046875 1.7986328125 4.55 1.8 4.5111328125 1.8125 4.45 1.8 4.344921875 2.2119140625 4.3 2.75
L 4.9 2.75
Q 5.65 3.25 6.25 5.7 6.6380859375 7.1111328125 6.7 7.85 8.0162109375 6.552734375 8.85 5.5 Z"/>

<path fill="#878AA3" stroke="none" d="
M -1.5 1.75
Q -1.18984375 1.644921875 -1 1.55 -1.2 1.2 -1.7 0.65 -2.2 0.1 -2.5 -0.1 -5.6 -0.65 -8.2 1.55 -9.7 2.8 -12.35 6 -12.7 6.35 -15.75 9 -16.0958984375 9.327734375 -16.4 9.6 -16.2607421875 11.00078125 -15.75 11.75 -14.35 11.05 -9.05 5.45 -8.65 5 -8.2 4.65 -7.05 3.45 -6.05 2.65 -4.797265625 1.587890625 -3.9 1.15 -3.1509765625 0.781640625 -2.65 0.85 -2.54921875 0.88359375 -1.5 1.75
M -3.45 -9.5
Q -3.925390625 -9.0353515625 -4.3 -8.4 -5 -7.3 -5 -6.35 -5 -4.9 -4.15 -4.6 -2.55 -4.05 -1.5 -2.85
L -0.75 -3.1
Q -0.65 -3.2 -0.5 -3.4
L -0.5 -3.45
Q -1.223046875 -5.18125 -1.75 -6.4 -2.7408203125 -8.64609375 -3.45 -9.5
M 12.25 10.1
Q 12.436328125 10.3162109375 12.65 10.55 12.96640625 10.5599609375 13.3 10.35
L 14.45 9
Q 14.53359375 8.9126953125 14.6 8.8 14.3349609375 8.4466796875 14.05 8.1 11.8 5.7 10.75 4.3 8.75 1.2 5.45 0.2 2.05 -0.8 2.05 2 2.05 2.8123046875 2.15 2.8
L 2.15 2.75
Q 2.2359375 2.7296875 2.3 2.55 2.28515625 2.623828125 2.35 2.65 2.5486328125 2.589453125 2.75 2.5 3.9 1.865625 4.55 1.8 4.6498046875 1.7986328125 4.7 1.8 4.7923828125 1.7935546875 4.85 1.8
L 4.9 1.8
Q 5.2845703125 1.8513671875 5.75 2.15 6.998046875 2.9849609375 8.85 5.5 9.1578125 5.8671875 9.45 6.25 9.473828125 6.3130859375 9.5 6.35 10.933203125 8.186328125 12.25 10.1
M 10.05 -11.25
Q 10.05 -11.4083984375 10.05 -11.55
L 10 -11.55
Q 9.85 -11.3 9.75 -11.3 9.7 -11.25 9.65 -10.9 7.65 -9.95 5.9 -7.7 2.4240234375 -3.302734375 0.85 -1.95 1.1162109375 -1.85 1.75 -1.85 2.4 -1.85 3.65 -2.9 5.3 -4.3 8 -5.25 9.05 -5.9 10.05 -11.25 Z"/>

<path fill="#A3A4BA" stroke="none" d="
M 2.15 2.8
Q 2.257421875 2.739453125 2.35 2.65 2.28515625 2.623828125 2.3 2.55 2.2359375 2.7296875 2.15 2.75
L 2.15 2.8
M 12.25 10.1
Q 12.398828125 10.32578125 12.55 10.55 12.9138671875 10.603515625 13.3 10.35 12.96640625 10.5599609375 12.65 10.55 12.436328125 10.3162109375 12.25 10.1 Z"/>

<path fill="#B3B3CC" stroke="none" d="
M 10.05 -11.55
Q 10.05 -11.4083984375 10.05 -11.25 9.05 -5.9 8 -5.25 5.3 -4.3 3.65 -2.9 2.4 -1.85 1.75 -1.85 1.1162109375 -1.85 0.85 -1.95 0.57734375 -1.654296875 0.35 -1.5 -0.0935546875 -2.5408203125 -0.5 -3.45
L -0.5 -3.4
Q -0.65 -3.2 -0.75 -3.1
L -1.5 -2.85
Q -2.55 -4.05 -4.15 -4.6 -5 -4.9 -5 -6.35 -5 -7.3 -4.3 -8.4 -3.925390625 -9.0353515625 -3.45 -9.5 -3.778515625 -9.8990234375 -4.05 -9.95 -5.1 -10.1 -8.35 -7.35 -12 -4.25 -12.65 -3.95 -14.1 -3.35 -14.95 -0.35 -15.45 1.25 -15.95 4.25 -16.4 7.2 -16.45 8.2 -16.466015625 8.9814453125 -16.4 9.6 -16.0958984375 9.327734375 -15.75 9 -12.7 6.35 -12.35 6 -9.7 2.8 -8.2 1.55 -5.6 -0.65 -2.5 -0.1 -2.2 0.1 -1.7 0.65 -1.2 1.2 -1 1.55 -1.18984375 1.644921875 -1.5 1.75 -0.9541015625 2.176953125 -0.2 2.8 -0.2 2.99375 -0.1 3.1 0.1 3.25 0.75 3.45 0.9 3.4 1.15 3.3
L 1.45 3.25
Q 1.5 3.2 1.55 3.1 1.75 3.05 2 2.9 2.0724609375 2.8515625 2.15 2.8 2.05 2.8123046875 2.05 2 2.05 -0.8 5.45 0.2 8.75 1.2 10.75 4.3 11.8 5.7 14.05 8.1 14.3349609375 8.4466796875 14.6 8.8 15.4904296875 7.2439453125 16.5 4.35 16.85 3.25 18.5 0.25 20.25 -2.6 20.3 -2.85 15.75 -8.95 12.4 -10.75 12.35 -11 12.35 -11.2 12.25 -11.55 12.3 -11.7 11.55 -11.65 10.85 -11.4 10.4275390625 -11.4939453125 10.05 -11.55 Z"/>
</g>

<g id="tie" transform="matrix( 1, 0, 0, 1, -1.9,9.2) ">
<g transform="matrix( 1, 0, 0, 1, 0,0) ">
<use xlink:href="#Miku_parts_Tie_0_Layer0_0_FILL"/>
</g>

<g transform="matrix( 1, 0, 0, 1, 0,0) ">
<use xlink:href="#Miku_parts_Tie_0_Layer0_1_FILL"/>
</g>
</g>

<g id="Layer0_2_FILL">
    <path fill="#53B5B5" stroke="none" d="
    M 6.7 8.35
    Q 6.7294921875 8.15859375 6.7 7.85 6.6380859375 7.1111328125 6.25 5.7 5.65 3.25 4.9 2.75
    L 2 2.9
    Q 1.75 3.05 1.55 3.1 1.5 3.2 1.45 3.25
    L 1.15 3.3
    Q 0.9 3.4 0.75 3.45 0.1 3.25 -0.1 3.1
    L -0.15 3.05
    Q -3.154296875 3.2810546875 -4.45 3.15 -4.55546875 3.161328125 -4.65 3.15 -5.15 2.85 -6.05 2.65 -7.05 3.45 -8.2 4.65
    L -8.25 4.8
    Q -8.3 5.4 -8 7.35 -7.75 9.35 -7.85 10.4 -8.25 13.75 -6.05 15.25 -4.65 16.25 -1.3 16.75 3.05 17.4 5.1 13.7 6.15 11.85 6.7 8.35 Z"/>
</g>

<g id="Layer0_3_FILL">
    <path fill="#53B5B5" stroke="none" d="
    M -12.85 5
    Q -12.6 5.25 -12.6 4 -12.6 3.85 -13.15 2.95 -13.75 2 -14 1.8 -14.45 2.15 -14.75 3.05 -15.1 3.9 -15.1 4.85 -15.1 5.65 -14.8 5.65
    L -14.5 5.5 -12.85 5
    M 14 5.3
    Q 15.8 3 15.8 2.25 15.8 2.05 15.45 1.4 15.05 0.6 14.5 0 14.2 0.3 12.6 1 11.55 1.45 11.55 2.4 11.55 3 12.55 4.1 13.5 5.15 14 5.3 Z"/>
</g>
</g>
</svg>
