
<svg xmlns="http://www.w3.org/2000/svg" version="1.1" xmlns:xlink="http://www.w3.org/1999/xlink" preserveAspectRatio="xMinYMin meet" x="0px" y="0px" width="800px" height="600px" viewBox="-80 -40 800 600">
<defs>
<g id="Miku_parts_Eyes_0_Layer1_0_FILL">
<path fill="#185649" stroke="none" d="
M -21.5 -17.75
Q -25.65 -18.6 -28.6 -16.2 -29.3 -15.6 -29.7 -14.65 -30.05 -13.8 -30.3 -12.85
L -35.7 -16.3 -35.9 -15.3 -30.6 -10.9 -32.15 9.7
Q -32.15 9.8 -32.1 9.85 -31.7 11.05 -31.65 12.1 -31.5 14.9 -29.05 15.45 -27 15.05 -24.9 15.2 -24.35 14.9 -23.95 14.5 -22.1 12.45 -21.55 9.7
L -20.3 -12.8
Q -20.35 -13.05 -20.4 -13.3 -20.85 -15.5 -21.5 -17.75
M 31 -17.75
Q 26.85 -18.6 23.9 -16.2 23.2 -15.6 22.8 -14.65 22.45 -13.8 22.2 -12.85
L 16.8 -16.3 16.6 -15.3 21.9 -10.9 20.35 9.7
Q 20.35 9.8 20.4 9.85 20.8 11.05 20.85 12.1 21 14.9 23.45 15.45 25.5 15.05 27.6 15.2 28.15 14.9 28.55 14.5 30.4 12.45 30.95 9.7
L 32.2 -12.8
Q 32.15 -13.05 32.1 -13.3 31.65 -15.5 31 -17.75 Z"/>
</g>

<g id="Miku_parts_Mouth_0_Layer1_0_FILL">
<path fill="#F39494" stroke="none" d="
M 6.65 -2.45
Q 6.399609375 -3.48046875 6 -4
L -6 -4
Q -6.55 -3.8 -6.7 -3.5 -6.9634765625 -3.1486328125 -7 -2.45 -7.59375 4.7107421875 -2.15 6.4 -1.5 6.45 -0.8 6.55 8.2 6.15 6.65 -2.45 Z"/>
</g>


</defs>

<g id="Face">
<g id="eyes" transform="matrix( 1, 0, 0, 1, 0.5,-6.9) ">
<g transform="matrix( 1, 0, 0, 1, 0,0) ">
<use xlink:href="#Miku_parts_Eyes_0_Layer1_0_FILL"/>
</g>

<g id="Layer_2"/>
</g>

<g id="mouth" transform="matrix( 1, 0, 0, 1, 0.2,18.75) ">
<g transform="matrix( 1, 0, 0, 1, 0,0) ">
<use xlink:href="#Miku_parts_Mouth_0_Layer1_0_FILL"/>
</g>
</g>

<g id="Layer0_2_FILL">
    <path fill="#FF9999" stroke="none" d="
    M -31 10.25
    Q -34.75 10.25 -35.95 11.45 -36.75 12.3 -36.75 14.5 -36.75 15.15 -36.45 15.65 -36.1 16.3 -35 17.25
    L -33 17.25
    Q -29.85 16.05 -29.15 15.7 -28.25 15.25 -28.25 13.6 -28.25 12.55 -28.4 12.2 -28.95 11.1 -31 10.25
    M 31.4 14.25
    Q 34.35 14.25 36.45 12.75 38.15 11.5 38.15 10.5 38.15 9.65 37.75 9.25 37.55 9 36.9 8.75 33 7.8 30 9 27.25 10.1 27.25 11.75 27.25 12.4 27.85 13.05 28.9 14.25 31.4 14.25 Z"/>
</g>
</g>
</svg>
