
<svg xmlns="http://www.w3.org/2000/svg" version="1.1" xmlns:xlink="http://www.w3.org/1999/xlink" preserveAspectRatio="xMinYMin meet" x="0px" y="0px" width="800px" height="600px" viewBox="-80 -160 800 600">
<defs>
<g id="Miku_parts_Phone_L_0_Layer0_0_FILL">
<path fill="#5C5A72" stroke="none" d="
M 12.75 8.75
L 13.7 8.95 14.75 6.5 14.65 -3.45 12.75 8.75
M 14.15 -8.15
L 11.35 -7.05 14.15 -6.3 14.5 -5.45 14.15 -8.15
M 7.4 -6.4
L 10.05 -6.65 9.9 11.55
Q 11.85 1.85 11 -7.85
L 8.75 -8.2 7.25 -7.25 7.4 -6.4 Z"/>

<path fill="#363443" stroke="none" d="
M 14.65 -3.45
L 14.5 -5.45 14.15 -6.3 11.35 -7.05 14.15 -8.15
Q 14.2 -22.35 2.8 -22.65 -7 -22.55 -12.9 -15.85 -14 -14.65 -14.3 -12.65 -17.05 5.1 -11.15 22 -3.943359375 25.268359375 8.25 23.55 14.2 19.3 14.65 11.5 14.75 9.15 14.75 6.5
L 13.7 8.95 12.75 8.75 14.65 -3.45
M 10.05 -6.65
L 7.4 -6.4 7.25 -7.25 8.75 -8.2 11 -7.85
Q 11.85 1.85 9.9 11.55
L 10.05 -6.65 Z"/>
</g>

<g id="Miku_parts_Momi_L_0_Layer0_0_FILL">
<path fill="#42B5A8" stroke="none" d="
M -1.4 -9.85
Q -2.0806640625 -10.212890625 -2.8 -10.55 -2.8720703125 -10.5662109375 -2.95 -10.6 -3.6001953125 -10.713671875 -4.15 -10.7 -4.34375 -10.6978515625 -4.55 -10.7 -4.5103515625 -9.219921875 -4.6 -7.65 -4.85 -2.75 -5.75 7 -5.75 12.4 -3.4 27.5 -1.6 39.4 -0.25 45.85 0.3 48.35 0.8 55.3 0.82109375 55.5748046875 0.85 55.85 5.0115234375 49.496875 6.7 42.05 7.381640625 38.9884765625 7.95 35.9 9.0779296875 30.3263671875 9.9 24.7 9.967578125 24.322265625 10 23.9 10.3181640625 21.91796875 10.55 19.9 10.6166015625 19.640625 10.65 19.35 10.728125 18.7693359375 10.8 18.15 10.877734375 17.5490234375 10.95 16.9 11.0244140625 16.2404296875 11.1 15.55 13.1056640625 -2.2138671875 -1.4 -9.85 Z"/>

<path fill="#9CEBDA" stroke="none" d="
M -4.55 -10.7
Q -6.2208984375 -10.4294921875 -6.8 -8.55 -6.7880859375 -8.517578125 -6.8 -8.5 -6.8939453125 -8.1767578125 -6.95 -7.85 -13 25.4 -0.5 57.8
L 0.35 56.6
Q 0.6068359375 56.2384765625 0.85 55.85
L 0.85 55.85
Q 0.82109375 55.5748046875 0.8 55.3 0.3 48.35 -0.25 45.85 -1.6 39.4 -3.4 27.5 -5.75 12.4 -5.75 7 -4.85 -2.75 -4.6 -7.65 -4.5103515625 -9.219921875 -4.55 -10.7 Z"/>
</g>

<g id="Miku_parts_Clip_Back_0_Layer0_0_FILL">
<path fill="#C91481" stroke="none" d="
M 7.15 13.05
Q 6.5 13.65 4.4 15.55 3.937890625 16.06640625 3.25 16.85 5.96640625 14.463671875 8.2 12 7.586328125 12.6365234375 7.15 13.05
M 8.4 2.35
Q 5.8580078125 5.8888671875 0.65 12.2 0.4 12.45 -2.7 15.6 -3.8080078125 16.7337890625 -4.65 17.65 -4.1095703125 17.772265625 -3.6 17.65 -1.796875 17.2318359375 -0.85 17.7 0.3048828125 16.2578125 2.8 13.6 5.2 11.1 8.25 8 9.37109375 6.7814453125 12.55 2.65 10.801953125 2.8142578125 9.1 2.5 8.7462890625 2.4626953125 8.4 2.35 Z"/>

<path fill="#3F4152" stroke="none" d="
M 0.65 12.2
Q 5.8580078125 5.8888671875 8.4 2.35 7.8689453125 2.261328125 7.35 2.1 6.95 1.7 6.45 1.35 -1 8.25 -6.05 16.75 -5.976953125 16.823046875 -5.9 16.9 -5.8708984375 16.9265625 -5.85 16.95 -5.8201171875 16.976171875 -5.8 17 -5.483203125 17.2671875 -5.2 17.4 -4.894140625 17.576953125 -4.65 17.65 -3.8080078125 16.7337890625 -2.7 15.6 0.4 12.45 0.65 12.2
M 12.8 2.65
Q 12.68203125 2.663671875 12.55 2.65 9.37109375 6.7814453125 8.25 8 5.2 11.1 2.8 13.6 0.3048828125 16.2578125 -0.85 17.7 0.058984375 18.1828125 0.25 19.4 1.8310546875 18.13828125 3.25 16.85 3.937890625 16.06640625 4.4 15.55 6.5 13.65 7.15 13.05 7.586328125 12.6365234375 8.2 12 12.4703125 7.2705078125 15.05 2.25 14.2947265625 2.4388671875 13.55 2.55
L 12.8 2.65 Z"/>

<path fill="#363443" stroke="none" d="
M 1.8 -29.95
Q 1.6060546875 -30.72578125 1.05 -31.4
L -0.8 -31.2 -1.8 -29.95 6.45 1.35
Q 6.95 1.7 7.35 2.1 7.8689453125 2.261328125 8.4 2.35 8.7462890625 2.4626953125 9.1 2.5 7.745703125 -1.82109375 7.7 -2.05
L 6.25 -7.1
Q 5.75 -8.75 5.1 -12.2 4.55 -14.25 4 -17.25 3.7 -18.9 3.15 -22.3 3.05 -22.9 2.55 -24.8 2.15 -26.4 2.05 -27.35 1.95 -28.25 1.8 -29.95
M 5.5 -31.8
Q 5.9328125 -29.8771484375 6.55 -27.1 8.45 -18.55 9.45 -15.4 10.1 -13.3 10.8 -10 11.8 -5.35 11.9 -4.95 12.3 -3.15 12.9 0.4 13.1775390625 1.5474609375 13.55 2.55 14.2947265625 2.4388671875 15.05 2.25
L 16.3 1.25
Q 13.75 -12.5 8.45 -25.7 7.2 -28.7 6.55 -31.9
L 5.5 -31.8 Z"/>

<path fill="#8B0E59" stroke="none" d="
M 6.55 -27.1
Q 5.9328125 -29.8771484375 5.5 -31.8
L 1.05 -31.4
Q 1.6060546875 -30.72578125 1.8 -29.95 1.95 -28.25 2.05 -27.35 2.15 -26.4 2.55 -24.8 3.05 -22.9 3.15 -22.3 3.7 -18.9 4 -17.25 4.55 -14.25 5.1 -12.2 5.75 -8.75 6.25 -7.1
L 7.7 -2.05
Q 7.745703125 -1.82109375 9.1 2.5 10.801953125 2.8142578125 12.55 2.65 12.68203125 2.663671875 12.8 2.65
L 13.55 2.55
Q 13.1775390625 1.5474609375 12.9 0.4 12.3 -3.15 11.9 -4.95 11.8 -5.35 10.8 -10 10.1 -13.3 9.45 -15.4 8.45 -18.55 6.55 -27.1 Z"/>
</g>

<g id="Miku_parts_Clip_Front_0_Layer0_0_FILL">
<path fill="#363443" stroke="none" d="
M -5.3 10.1
Q -6.65 8.55 -7.3 7.7 -8.55 6.2 -9.15 4.85 -9.78203125 3.52265625 -10.75 2.35 -10.981640625 2.3681640625 -11.25 2.35
L -11.85 2.3
Q -12.7984375 2.1845703125 -13.8 1.9 -11.05 5.95 -5.85 12.75 -5.05 13.9 -2.35 17.2 -1.6712890625 16.7787109375 -0.85 16.25 -2.539453125 13.8626953125 -5.3 10.1
M -4.25 0.4
Q -4.31015625 0.2982421875 -4.4 0.2 -4.95 0.65 -5.5 1 -6.0330078125 1.29375 -6.6 1.5 -6.0568359375 2.85 -4.15 4.5 -3.3 5.25 -2.55 6.45 -1.55 8.1 -1.25 8.5 -0.25 9.7 1.75 12.5 2.36328125 13.301953125 2.95 14 3.659375 13.55078125 4.3 13.1 4.2048828125 12.912109375 4.1 12.7
L 1.25 7.75
Q 0.801953125 6.9544921875 0.3 6.2 0.2544921875 6.14453125 0.2 6.1 -0.101171875 5.698046875 -0.4 5.25 -1.3 3.9 -1.9 3.25
L -1.95 3.1 -2 3.05
Q -2.249609375 2.703515625 -2.55 2.35
L -4.25 0.4 Z"/>

<path fill="#8B0E59" stroke="none" d="
M -6.6 1.5
Q -6.7865234375 1.61796875 -7 1.7 -9.0423828125 2.46484375 -11.25 2.35 -10.981640625 2.3681640625 -10.75 2.35 -9.78203125 3.52265625 -9.15 4.85 -8.55 6.2 -7.3 7.7 -6.65 8.55 -5.3 10.1 -2.539453125 13.8626953125 -0.85 16.25 0.1298828125 15.69140625 1.3 15 2.1669921875 14.50078125 2.95 14 2.36328125 13.301953125 1.75 12.5 -0.25 9.7 -1.25 8.5 -1.55 8.1 -2.55 6.45 -3.3 5.25 -4.15 4.5 -6.0568359375 2.85 -6.6 1.5
M -1.95 3.1
L -1.9 3.25
Q -1.3 3.9 -0.4 5.25 -0.101171875 5.698046875 0.2 6.1 -0.840625 4.526953125 -1.95 3.1 Z"/>

<path fill="#C91481" stroke="none" d="
M -13.1 -4.6
Q -13.1654296875 -4.0626953125 -13.25 -3.55 -13.1265625 -3.8939453125 -13 -4.25 -13 -4.4142578125 -13.1 -4.6
M 2.6 -30.9
Q 2.92265625 -32.0294921875 3.95 -34.75
L 0 -34.45
Q -0.774609375 -32.1142578125 -1.9 -29 -6.05 -17.5 -6.8 -14.3 -7.8 -10.1 -10.5 -1 -10.7 -0.25 -11.75 2.1 -11.79375 2.196484375 -11.85 2.3
L -11.25 2.35
Q -9.0423828125 2.46484375 -7 1.7 -7 1.42734375 -7 1.1 -7 -0.3 -4.4 -8.25 -0.85 -19 -0.5 -20.25
L 2.6 -30.9 Z"/>

<path fill="#3F4152" stroke="none" d="
M -6.8 -14.3
Q -6.05 -17.5 -1.9 -29 -0.774609375 -32.1142578125 0 -34.45
L -2.4 -34.25
Q -3.65 -30.85 -5.25 -27.55 -11.05625 -16.2904296875 -13.1 -4.6 -13 -4.4142578125 -13 -4.25 -13.1265625 -3.8939453125 -13.25 -3.55 -13.67578125 -0.8490234375 -13.9 1.85 -13.85 1.85 -13.8 1.9 -12.7984375 2.1845703125 -11.85 2.3 -11.79375 2.196484375 -11.75 2.1 -10.7 -0.25 -10.5 -1 -7.8 -10.1 -6.8 -14.3
M 3.95 -34.75
Q 2.92265625 -32.0294921875 2.6 -30.9
L -0.5 -20.25
Q -0.85 -19 -4.4 -8.25 -7 -0.3 -7 1.1 -7 1.42734375 -7 1.7 -6.7865234375 1.61796875 -6.6 1.5 -6.0330078125 1.29375 -5.5 1 -4.95 0.65 -4.4 0.2 -3.1 -6.7 -0.6 -13.35 3.4 -23.75 6.45 -34.2
L 5.8 -34.9 3.95 -34.75 Z"/>
</g>

<g id="Miku_parts_Head_Base_0_Layer0_0_FILL">
<path fill="#FFDBC4" stroke="none" d="
M 46.4 -52.1
Q 47.4 -55.7 47.5 -59.6 48.5958984375 -79.9640625 25.5 -86.3 9.25 -90.7 -7.35 -86.5 -24.8328125 -83.5423828125 -28.2 -82.6 -41.52578125 -75.1478515625 -45.5 -64.7
L -46.6 -62.6
Q -46.65 -62.4 -46.75 -62.15 -46.95 -61.7 -47.15 -61.2 -48.95 -56.55 -49.6 -51.45 -50.7466796875 -42.49375 -49.7 -32.55 -48.66015625 -22.6123046875 -49.15 -16.4 -49.6400390625 -10.1380859375 -49.65 -4.35 -49.603515625 1.443359375 -46.1 4.45 -39 10.45 -29.75 11.75 -26.5 12.25 -23.2 12.85 -15.3 14.05 -7.35 14.1 2.555078125 14.3587890625 14.5 12.35 18.5 11.6732421875 22.2 10.8 34.754296875 7.825 36.15 6.75 38.65 4.2 41 1.5 43.2 -0.95 45.2 -3.5 47.7 -6.65 48.9 -10.4 50.1 -14.25 50.8 -18.1 51.15 -19.95 51.15 -21.85 51.15 -22.15 51.1 -22.4 50.9 -23.6 50.7 -24.75 49.95 -28.5 48 -31.95 46.55 -34.6 45.05 -37.1 44 -38.95 43.75 -40.95 43.45 -43.05 44.2 -44.95 44.85 -46.65 45.35 -48.35 45.9 -50.2 46.4 -52.1 Z"/>

<path fill="#448888" stroke="none" d="
M 47.5 -59.6
Q 47.4 -55.7 46.4 -52.1 45.9 -50.2 45.35 -48.35 44.85 -46.65 44.2 -44.95 43.45 -43.05 43.75 -40.95 44 -38.95 45.05 -37.1 46.55 -34.6 48 -31.95 49.95 -28.5 50.7 -24.75 50.9 -23.6 51.1 -22.4 51.15 -22.15 51.15 -21.85 51.15 -19.95 50.8 -18.1 50.1 -14.25 48.9 -10.4 47.7 -6.65 45.2 -3.5 43.2 -0.95 41 1.5 38.65 4.2 36.15 6.75 38.05 5.9 39.9 5 41.7 4.15 43.45 3.25 45.85 2 48.2 0.3 50.35 -1.15 52.3 -2.85 54.8 -5 57.1 -7.35 59 -9.3 60.7 -11.75 62.95 -15 64.2 -18.75 65.2 -21.7 66.15 -24.65 67.15 -27.75 68.1 -30.9 69 -33.95 69.95 -36.95 70.9 -39.85 71.85 -42.95 72.9 -46.5 73.2 -50.3 73.55 -54.15 73.65 -58.05 73.75 -61.4 73.7 -64.7 70.05 -63.35 66.4 -62.15 65.4 -61.8 64.35 -61.6 61.25 -61.1 58.1 -60.65 54 -60.25 50.15 -59.75 48.8 -59.65 47.5 -59.6 Z"/>

<path fill="#42B5A8" stroke="none" d="
M 72.1 -75.05
Q 70.3 -79.05 66.8 -85.15 63.6 -90.65 55.05 -96.7 53.7935546875 -97.5947265625 52.55 -98.4 36.9 -107.3 18.7 -109.75 -5.7 -112.65 -25.9 -98.4 -27.630078125 -96.9798828125 -28.95 -95.55 -33.6 -91.25 -35.8 -89 -39.6 -85.05 -40.8 -81.6 -40.8265625 -81.5203125 -41.1 -81 -41.1208984375 -80.958203125 -41.15 -80.95
L -41.1 -80.95
Q -41.801953125 -79.4423828125 -44.25 -74.4 -47.25 -67.95 -47.8 -65.95 -47.946484375 -65.42265625 -47.95 -64.6
L -48.95 -63.3
Q -48.8421875 -63.3720703125 -47.9 -63.8 -47.840234375 -63.4984375 -47.8 -63.2 -47.65 -62 -47.15 -61.2 -46.95 -61.7 -46.75 -62.15 -46.65 -62.4 -46.6 -62.6
L -45.5 -64.7
Q -41.52578125 -75.1478515625 -28.2 -82.6 -24.8328125 -83.5423828125 -7.35 -86.5 9.25 -90.7 25.5 -86.3 48.5958984375 -79.9640625 47.5 -59.6 48.8 -59.65 50.15 -59.75 54 -60.25 58.1 -60.65 61.25 -61.1 64.35 -61.6 65.4 -61.8 66.4 -62.15 70.05 -63.35 73.7 -64.7 73.703125 -65.5416015625 73.7 -66.45 73.75 -71.3 72.1 -75.05 Z"/>
</g>

<g id="Miku_parts_Head_Base_0_Layer0_1_FILL">
<path fill="#64627B" stroke="none" d="
M -24.05 -98.7
Q -32.2 -96.55 -38 -90.4
L -21.5 -99.25
Q -22.8 -99 -24.05 -98.7
M 54 -85.2
Q 56.8 -79.7 57.9 -77 59 -74.3 58 -73.75 57 -73.25 54.9 -73.25
L 55.35 -72
Q 55.8 -72 55.95 -72.5 56.05 -73.05 60.75 -72.85 60.55 -71.8 62.8 -67.4 65 -63.05 66.85 -50.9 68 -63.25 61.45 -74.5 59.3 -78.2 56.85 -81.55 55.5 -83.45 54 -85.2 Z"/>

<path fill="#353443" stroke="none" d="
M -19.35 -99.55
L -21.5 -99.25 -38 -90.4 -41.05 -86.45 -40.25 -85.65
Q -30.9 -94.3 -19.35 -99.55
M 55.95 -72.5
Q 55.8 -72 55.35 -72 59 -61.2 61.55 -50.3 62.4 -46.65 63.1 -42.95 64.15 -44.65 65.05 -46.4 65.8 -47.8 66.4 -49.35 66.65 -50.1 66.85 -50.9 65 -63.05 62.8 -67.4 60.55 -71.8 60.75 -72.85 56.05 -73.05 55.95 -72.5
M 54 -85.2
Q 48.95 -89.95 43 -93.5 41.85 -94.15 40.75 -94.75 51.5 -86.55 54.9 -73.25 57 -73.25 58 -73.75 59 -74.3 57.9 -77 56.8 -79.7 54 -85.2 Z"/>
</g>

<g id="Miku_parts_Phone_R_0_Layer0_0_FILL">
<path fill="#64627B" stroke="none" d="
M 9.35 -17.75
Q 11.65 -17.05 12.9 -15.1 8.75 -24.85 -1.9 -22.35 -9.75 -20.6 -13.75 -14.05 -2.9 -20.9 9.35 -17.75
M 13.75 -13.6
L 13.8 -13.6 13.8 -13.6 13.6 -13.9 13.75 -13.6 Z"/>

<path fill="#363443" stroke="none" d="
M 14.7 -3.25
L 14.25 -7.95
Q 14.3056640625 -11.12109375 13.75 -13.6
L 13.6 -13.9 12.9 -15.1
Q 11.65 -17.05 9.35 -17.75 -2.9 -20.9 -13.75 -14.05
L -13.95 -13.6
Q -14.031640625 -13.2400390625 -14.1 -12.85 -17.1 4.85 -11.45 21.9 -3.237109375 25.40390625 10.5 19.7 12.98359375 16.0677734375 13.8 12.65 14.61640625 9.2322265625 14.65 6.7
L 14.7 -3.25 Z"/>
</g>

<g id="Miku_parts_Phone_R_0_Layer0_1_FILL">
<path fill="#64627B" stroke="none" d="
M 1.5 13.5
L 0.75 13.3
Q -8.5 13.35 -8.2 5.05
L -8.75 4.6
Q -9.4 8.95 -7.3 13.2 -2.494921875 16.1255859375 1.5 13.5
M 12.25 -4.1
L 11.6 -4.5
Q 11 0 11.3 4.45 11.55 7.95 11.3 11.1 10.9 11.15 10.55 11.25 10.1 11.5 9.65 11.75 9.55 11.8 9.55 11.9 9.5 12 9.55 12.15 9.6 12.2 9.65 12.35 10.25 12.3 10.9 12.35 11.55 12.1 12.15 11.75 12.45 11.6 12.7 11.35 12.4 8.35 12.5 5.3 12.65 0.6 12.25 -4.1
M 6.7 -3.95
L 6.4 -0.4 6.5 11.8 4.65 12.35 4.3 13
Q 4.3 13.15 4.4 13.25 4.65 13.4 5 13.55 5.05 13.45 5.15 13.4 5.3 13.35 5.45 13.35 5.85 13.2 6.25 13.05 6.7 13 7.15 12.8 7.25 12.8 7.35 12.7 7.6 9.05 7.5 5.2 7.35 0.65 7.05 -3.7
L 6.7 -3.95 Z"/>

<path fill="#FFE788" stroke="none" d="
M 8.85 -9.25
L 8.65 -6.2 8.85 -5.8
Q 9.8 -5.55 10.7 -5.7 11.3 -5.95 11.55 -6.3 11.6 -6.55 11.65 -6.75 12.1 -8.05 11.55 -9.3
L 8.85 -9.25
M 6.75 -8.65
L 5.75 -8.5
Q 5.35 -8.45 5 -8.35 4.7 -8.35 4.4 -8.3 4 -8.1 3.65 -7.85 3.5 -7.05 3.6 -6.15 3.7 -5.5 3.85 -4.85 4.45 -4.85 5.05 -4.85 5.65 -5 6.25 -5.1 6.4 -5.25 6.6 -5.35
L 6.75 -8.65 Z"/>
</g>

<g id="Miku_parts_Phone_R_0_Layer0_2_FILL">
<path fill="#EB1D70" stroke="none" d="
M 2.5 -1.2
Q 2.4 -4.25 2.1 -7.35
L -1.45 -6.8
Q -5.3 -5.6 -7.4 -1.8 -9.5 1.95 -8.4 7.3 -7.3 12.65 -1.55 13.1 0.5 13.45 2.6 13.35 2.35 10.55 2.45 8.1 2.6 3.45 2.5 -1.2 Z"/>
</g>

<g id="Miku_parts_Eyes_0_Layer1_0_FILL">
<path fill="#185649" stroke="none" d="
M -21.5 -17.75
Q -25.65 -18.6 -28.6 -16.2 -29.3 -15.6 -29.7 -14.65 -30.05 -13.8 -30.3 -12.85
L -35.7 -16.3 -35.9 -15.3 -30.6 -10.9 -32.15 9.7
Q -32.15 9.8 -32.1 9.85 -31.7 11.05 -31.65 12.1 -31.5 14.9 -29.05 15.45 -27 15.05 -24.9 15.2 -24.35 14.9 -23.95 14.5 -22.1 12.45 -21.55 9.7
L -20.3 -12.8
Q -20.35 -13.05 -20.4 -13.3 -20.85 -15.5 -21.5 -17.75
M 31 -17.75
Q 26.85 -18.6 23.9 -16.2 23.2 -15.6 22.8 -14.65 22.45 -13.8 22.2 -12.85
L 16.8 -16.3 16.6 -15.3 21.9 -10.9 20.35 9.7
Q 20.35 9.8 20.4 9.85 20.8 11.05 20.85 12.1 21 14.9 23.45 15.45 25.5 15.05 27.6 15.2 28.15 14.9 28.55 14.5 30.4 12.45 30.95 9.7
L 32.2 -12.8
Q 32.15 -13.05 32.1 -13.3 31.65 -15.5 31 -17.75 Z"/>
</g>

<g id="Miku_parts_Mouth_0_Layer1_0_FILL">
<path fill="#F39494" stroke="none" d="
M 6.65 -2.45
Q 6.399609375 -3.48046875 6 -4
L -6 -4
Q -6.55 -3.8 -6.7 -3.5 -6.9634765625 -3.1486328125 -7 -2.45 -7.59375 4.7107421875 -2.15 6.4 -1.5 6.45 -0.8 6.55 8.2 6.15 6.65 -2.45 Z"/>
</g>

<g id="Miku_parts_Face_0_Layer0_2_FILL">
<path fill="#FF9999" stroke="none" d="
M -31 10.25
Q -34.75 10.25 -35.95 11.45 -36.75 12.3 -36.75 14.5 -36.75 15.15 -36.45 15.65 -36.1 16.3 -35 17.25
L -33 17.25
Q -29.85 16.05 -29.15 15.7 -28.25 15.25 -28.25 13.6 -28.25 12.55 -28.4 12.2 -28.95 11.1 -31 10.25
M 31.4 14.25
Q 34.35 14.25 36.45 12.75 38.15 11.5 38.15 10.5 38.15 9.65 37.75 9.25 37.55 9 36.9 8.75 33 7.8 30 9 27.25 10.1 27.25 11.75 27.25 12.4 27.85 13.05 28.9 14.25 31.4 14.25 Z"/>
</g>

<g id="Miku_parts_Momi_R_0_Layer0_0_FILL">
<path fill="#9CEBDA" stroke="none" d="
M -6.45 4.3
Q -6.1431640625 24.9703125 -3.95 45.7 -3.61484375 48.7767578125 -3.25 51.8 -3.0298828125 53.627734375 -2.8 55.4 -2.673046875 56.344921875 -2.55 57.25 -2.211328125 59.7865234375 -1.85 62.3
L -1.2 62.3
Q -3.4904296875 20.266796875 -6.45 4.3 Z"/>

<path fill="#42B5A8" stroke="none" d="
M -2.45 -12.65
Q -8.7794921875 -8.29765625 -7.65 -3.65 -6.4603515625 1.045703125 -6.45 4.3 -3.4904296875 20.266796875 -1.2 62.3
L -0.7 62.35
Q 1.338671875 56.7546875 6.4 41.05 11.4837890625 25.39296875 8.7 7.3 5.9109375 -10.7423828125 -2.45 -12.65 Z"/>
</g>

<g id="Miku_parts_Bang_L_0_Layer0_0_FILL">
<path fill="#9CEBDA" stroke="none" d="
M -41.5 11.25
Q -50.55 19.4 -55.9 30.4 -61.8 42.6 -61.8 56.65 -58.35 43.95 -53 32.1 -50.6 26.6 -47.7 23
L -48.4 27.15 -47.55 28.55
Q -47.05 25.75 -43.55 22.95 -43.25 25.15 -41.1 25.65 -34.3 27.6 -27.4 28.3 -36.15 26.75 -41.8 23.55 -43.45 21.9 -40.25 17.55
L -46 23.2
Q -43.2 15.85 -36.95 11 -27.5 3.75 -18.05 -3.4 -31.15 1.85 -41.5 11.25 Z"/>

<path fill="#42B5A8" stroke="none" d="
M 5.7 -6.7
L 5.9 -7.1
Q 4.05 -9.6 -3.1 -8.45 -10.3 -7.3 -6.8 -7.15 -12.75 -5.5 -18.05 -3.4 -27.5 3.75 -36.95 11 -43.2 15.85 -46 23.2
L -40.25 17.55
Q -43.45 21.9 -41.8 23.55 -36.15 26.75 -27.4 28.3 -34.3 27.6 -41.1 25.65 -43.25 25.15 -43.55 22.95 -47.05 25.75 -47.55 28.55
L -48.4 27.15 -47.7 23
Q -50.6 26.6 -53 32.1 -58.35 43.95 -61.8 56.65 -61.75 63.45 -59.9 70.1 -55.6 52.55 -46.45 45.2 -52.25 65.45 -44 82.65 -35.75 99.8 -30.4 104.85
L -31.5 102.6 -30.8 103.1
Q -32.3 95.3 -32.15 87.4 -31.95 70.75 -26.2 55.55 -26.65 58.35 -26.9 61.15 -27.55 67.9 -27.2 74.75 -26.85 72.85 -26.25 70.05 -23.5 56.9 -16.9 41.75 -10.4 26.55 1.1 15.5 7.75 9.1 8.1 -0.05 8.25 -3.75 5.7 -6.7 Z"/>
</g>

<g id="Miku_parts_Bang_M_0_Layer0_0_FILL">
<path fill="#9CEBDA" stroke="none" d="
M -25.5 16.8
Q -26.25 12.65 -24.15 7.9 -28.4 16.75 -29.15 26.5 -30 37.5 -27.4 48.2
L -26.75 50.1
Q -29.5 39.1 -27 33.35 -24.55 27.55 -24.35 27 -21.7 29.9 -11 28.45 -10.6 28.4 -10.2 28.35 -18.65 29.05 -21.65 25.35 -24.65 21.6 -25.5 16.8
M 5.95 29.4
Q 12.2 31.75 12.25 37
L 16.15 15.75
Q 12.9 26.4 1.75 27.55 -1.35 27.7 -4.45 27.95 1.75 27.8 5.95 29.4 Z"/>

<path fill="#42B5A8" stroke="none" d="
M 17.35 -0.85
L 9 -9.9
Q 6.95 -9.8 4.95 -9.65 -1.95 -9.35 -8.45 -6.6 -17.9 -2.45 -23.35 6.35 -23.6 6.8 -23.85 7.25
L -24.15 7.9
Q -26.25 12.65 -25.5 16.8 -24.65 21.6 -21.65 25.35 -18.65 29.05 -10.2 28.35 -10.6 28.4 -11 28.45 -21.7 29.9 -24.35 27 -24.55 27.55 -27 33.35 -29.5 39.1 -26.75 50.1
L -27.4 48.2
Q -25.05 56.2 -20.9 63.45 -19.45 65.9 -17.95 68.4
L -12.2 45.15
Q -10.6 56.7 -4.8 66.5 -3.85 68.15 -2.8 69.8 -1.75 71.35 -0.65 72.9 5.5 59.9 9.65 46.1 10.3 43.85 10.95 41.55 11.6 39.3 12.25 37 12.2 31.75 5.95 29.4 1.75 27.8 -4.45 27.95 -1.35 27.7 1.75 27.55 12.9 26.4 16.15 15.75
L 17.35 -0.85 Z"/>
</g>

<g id="Miku_parts_Bang_R_0_Layer0_0_FILL">
<path fill="#9CEBDA" stroke="none" d="
M 1.8 34.35
Q 5.15 35.7 13.4 37.3 22.5 39.1 25.15 33.9 25.55 35 25.75 36.05 26.3 39.15 26.35 43.2 28.4 41.4 28.35 40.75
L 28.35 40.7
Q 29.35 39.55 30.55 36.3 32.1 44.1 32.3 51.9
L 32.35 46.85
Q 32.75 61.55 28.25 77.65
L 28.9 75.9
Q 31.5 67.15 32.8 58.35 34.5 46.35 33.7 34.4 32.95 23.45 29.75 13.25 32 23.3 31.4 33.45
L 29.5 30.05 28.15 37.75
Q 27.65 35.95 27.35 34.2 27.15 32.6 26.3 29.5 24.35 31.9 23.3 33.2 21.1 36.05 17.1 36 9.3 36.15 1.8 34.35
M -11.4 33.9
L -13.35 32.95 -11.45 37.8
Q -10.35 35.8 -11.4 33.9
M -2.3 34
Q -9.25 31 -9.75 30.65 -17.15 24.7 -19 15.05 -19.05 21.5 -17.2 27.6 -17.2 27.65 -17.15 27.7 -17 28.2 -16.8 28.85 -17 28.8 -17.2 28.8 -18.55 28.7 -16.5 29.7 -15.85 31.5 -15 33.35
L -13.35 32.95
Q -14.5 32 -15.05 30.75 -15.2 30.5 -15.25 30.25 -9.45 32.95 -2.3 34 Z"/>

<path fill="#42B5A8" stroke="none" d="
M -17.15 27.7
Q -17.2 27.65 -17.2 27.6 -18.25 27.05 -19.95 26.3 -18.25 27.15 -17.15 27.7
M -9.75 30.65
Q -9.25 31 -2.3 34 -9.45 32.95 -15.25 30.25 -15.2 30.5 -15.05 30.75 -14.5 32 -13.35 32.95
L -11.4 33.9
Q -10.35 35.8 -11.45 37.8 -7.2 48.1 -2.3 57.95 2.65 67.75 8.25 77.25
L 8.4 50.4 21.6 95.1 28.25 77.65
Q 32.75 61.55 32.35 46.85
L 32.3 51.9
Q 32.1 44.1 30.55 36.3 29.35 39.55 28.35 40.7
L 28.35 40.75
Q 28.4 41.4 26.35 43.2 26.3 39.15 25.75 36.05 25.55 35 25.15 33.9 22.5 39.1 13.4 37.3 5.15 35.7 1.8 34.35 9.3 36.15 17.1 36 21.1 36.05 23.3 33.2 24.35 31.9 26.3 29.5 27.15 32.6 27.35 34.2 27.65 35.95 28.15 37.75
L 29.5 30.05 31.4 33.45
Q 32 23.3 29.75 13.25 25.55 1.75 14.8 -4.05 6.05 -8.8 -4.1 -9.1 -16.2 0.25 -19 15.05 -17.15 24.7 -9.75 30.65 Z"/>
</g>

<g id="Miku_parts_Ahoge_0_Layer0_0_FILL">
<path fill="#42B5A8" stroke="none" d="
M 2.45 -29.9
L 0.45 -28.9
Q -11.2 -24.6 -11.45 -13.35 -11.55 -9.7 -9.5 -6.55 -5.75 -0.8 1.1 1.35 -7.45 -5.65 -5.95 -16.3 -5.15 -22.1 -1.25 -26.2 0.6 -28.05 2.45 -29.9 Z"/>
</g>
</defs>

<g id="Head">
<g id="phone_L" transform="matrix( 1, 0, 0, 1, -43,-26.85) ">
<g transform="matrix( 1, 0, 0, 1, 0,0) ">
<use xlink:href="#Miku_parts_Phone_L_0_Layer0_0_FILL"/>
</g>
</g>

<g id="momi_L" transform="matrix( 0.9978485107421875, -0.026641845703125, 0.026641845703125, 0.9978485107421875, -45.85,-35.5) ">
<g transform="matrix( 1, 0, 0, 1, 0,0) ">
<use xlink:href="#Miku_parts_Momi_L_0_Layer0_0_FILL"/>
</g>
</g>

<g id="Layer0_2_FILL">
    <path fill="#363443" stroke="none" d="
    M -49.75 -2.05
    Q -50 -3.55 -50 -4.3 -50 -6.65 -48.9 -10.65 -47.7 -15.1 -46.25 -16.85 -46.4 -17.5 -47.5 -17.85 -49.75 -17 -51.05 -11.1 -52.1 -6.45 -52.1 -1.8 -51.9 1.1 -51 4 -49.2 9.8 -45.75 9.8 -41.6 9.8 -41.6 6.75 -41.6 5.8 -42.35 4.75 -43.55 3.05 -46 3.05 -48.05 3.05 -49 3.2 -49.05 2.35 -49.35 0.3 -49.45 -0.4 -49.75 -2.05 Z"/>
</g>

<g id="clipBL" transform="matrix( 1, 0, 0, 1, -47.05,-86.05) ">
<g transform="matrix( 1, 0, 0, 1, 0,0) ">
<use xlink:href="#Miku_parts_Clip_Back_0_Layer0_0_FILL"/>
</g>
</g>

<g id="clipFL" transform="matrix( 1, 0, 0, 1, -48.4,-83.4) ">
<g transform="matrix( 1, 0, 0, 1, 0,0) ">
<use xlink:href="#Miku_parts_Clip_Front_0_Layer0_0_FILL"/>
</g>
</g>

<g id="base" transform="matrix( 1, 0, 0.07421875, 0.95465087890625, 1.05,-5.6) ">
<g transform="matrix( 1, 0, 0, 1, 0,0) ">
<use xlink:href="#Miku_parts_Head_Base_0_Layer0_0_FILL"/>
</g>

<g transform="matrix( 1, 0, 0, 1, 0,0) ">
<use xlink:href="#Miku_parts_Head_Base_0_Layer0_1_FILL"/>
</g>
</g>

<g id="phone_R" transform="matrix( 1, 0, 0, 1, 57.5,-28.9) ">
<g transform="matrix( 1, 0, 0, 1, 0,0) ">
<use xlink:href="#Miku_parts_Phone_R_0_Layer0_0_FILL"/>
</g>

<g transform="matrix( 1, 0, 0, 1, 0,0) ">
<use xlink:href="#Miku_parts_Phone_R_0_Layer0_1_FILL"/>
</g>

<g transform="matrix( 1, 0, 0, 1, 0,0) ">
<use xlink:href="#Miku_parts_Phone_R_0_Layer0_2_FILL"/>
</g>
</g>

<g id="clipFR" transform="matrix( 1, 0, 0, 1, 67.8,-74.95) ">
<g transform="matrix( 1, 0, 0, 1, 0,0) ">
<use xlink:href="#Miku_parts_Clip_Front_0_Layer0_0_FILL"/>
</g>
</g>

<g id="face" transform="matrix( 1, 0, 0, 1, -5.65,-22.9) ">
<g id="eyes" transform="matrix( 1, 0, 0, 1, 0.5,-6.9) ">
<g transform="matrix( 1, 0, 0, 1, 0,0) ">
<use xlink:href="#Miku_parts_Eyes_0_Layer1_0_FILL"/>
</g>

<g id="Layer_2"/>
</g>

<g id="mouth" transform="matrix( 1, 0, 0, 1, 0.2,18.75) ">
<g transform="matrix( 1, 0, 0, 1, 0,0) ">
<use xlink:href="#Miku_parts_Mouth_0_Layer1_0_FILL"/>
</g>
</g>

<g transform="matrix( 1, 0, 0, 1, 0,0) ">
<use xlink:href="#Miku_parts_Face_0_Layer0_2_FILL"/>
</g>
</g>

<g id="momi_R" transform="matrix( 0.960357666015625, 0.275634765625, -0.275634765625, 0.960357666015625, 44.55,-36.5) ">
<g transform="matrix( 1, 0, 0, 1, 0,0) ">
<use xlink:href="#Miku_parts_Momi_R_0_Layer0_0_FILL"/>
</g>
</g>

<g id="bangs" transform="matrix( 1, 0, 0, 1, -4.7,-96.4) ">
<g id="L" transform="matrix( 1, 0, 0, 1, -13.55,-1.3) ">
<g transform="matrix( 1, 0, 0, 1, 0,0) ">
<use xlink:href="#Miku_parts_Bang_L_0_Layer0_0_FILL"/>
</g>
</g>

<g id="M" transform="matrix( 1, 0, 0, 1, 7.5,-1.7) ">
<g transform="matrix( 1, 0, 0, 1, 0,0) ">
<use xlink:href="#Miku_parts_Bang_M_0_Layer0_0_FILL"/>
</g>
</g>

<g id="R" transform="matrix( 1, 0, 0, 1, 34.35,0) ">
<g transform="matrix( 1, 0, 0, 1, 0,0) ">
<use xlink:href="#Miku_parts_Bang_R_0_Layer0_0_FILL"/>
</g>
</g>
</g>

<g id="ahoge" transform="matrix( 1, 0, 0, 1, -19.3,-103.45) ">
<g transform="matrix( 1, 0, 0, 1, 0,0) ">
<use xlink:href="#Miku_parts_Ahoge_0_Layer0_0_FILL"/>
</g>
</g>
</g>
</svg>
