
<svg xmlns="http://www.w3.org/2000/svg" version="1.1" xmlns:xlink="http://www.w3.org/1999/xlink" preserveAspectRatio="xMinYMin meet" x="0px" y="0px" width="800px" height="600px" viewBox="-60 -40 800 600">
<defs>
<g id="Miku_parts_Skirt_0_Layer0_0_FILL">
<path fill="#3F4152" stroke="none" d="
M -5.4 32.1
L -5.35 32.05 -5.4 32.05 -5.4 32.1
M -0.45 -2.35
Q -12.1 -0.85 -16 -2.2
L -32.3 12.65
Q -29.45 13.6 -25.4 17.35 -21.7 20.7 -21.7 21.4 -21.7 22 -22.7 22.75 -24 23.75 -24.2 24 -12.55 25.75 -8.5 26.45 -5.4095703125 27.0046875 -5.3 29.45 -5.147265625 29.6314453125 -5.05 29.85 -4.75 30.45 -4.75 31.25
L -4.75 31.75
Q 0.93984375 28.7296875 3.25 27.55 7.35 25.35 8.7 25.35 9.2 25.35 10.15 25.9 11.05 26.45 11.55 26.45
L 15.7 24.1
Q 20.25 21.55 22.85 20.6 23.9 20.25 25.1 18.85 26.5 17 27.2 16.05 27.85 15.25 30.05 13.6 32.55 11.7 33.9 11.35
L 16.25 -4.85
Q 5.8 -3.15 -0.45 -2.35 Z"/>

<path fill="#53B5B5" stroke="none" d="
M 33.9 11.35
Q 32.55 11.7 30.05 13.6 27.85 15.25 27.2 16.05 26.5 17 25.1 18.85 23.9 20.25 22.85 20.6 20.25 21.55 15.7 24.1
L 11.55 26.45
Q 11.05 26.45 10.15 25.9 9.2 25.35 8.7 25.35 7.35 25.35 3.25 27.55 0.93984375 28.7296875 -4.75 31.75
L -4.75 31.25
Q -4.75 30.45 -5.05 29.85 -5.147265625 29.6314453125 -5.3 29.45 -5.4095703125 27.0046875 -8.5 26.45 -12.55 25.75 -24.2 24 -24 23.75 -22.7 22.75 -21.7 22 -21.7 21.4 -21.7 20.7 -25.4 17.35 -29.45 13.6 -32.3 12.65
L -35 15.1
Q -35 15.85 -34.8 16.15 -34.3 17.1 -32.25 17.8 -31.85 17.9 -29.5 20.25 -27.15 22.65 -27.1 22.7 -25.25 23.85 -24.95 24.3 -24.7423828125 24.7048828125 -25.5 26.15 -26.21875 27.640625 -25.3 28.55 -24.3748046875 29.4625 -22.8 29.75
L -21.75 29.9
Q -20.95 30.1 -20.95 30.35 -19.05 30.6 -16.85 30.9 -11.2 31.562109375 -7.95 32.3 -7.492578125 32.400390625 -7.1 32.5 -6.55 32.6 -6.1 32.75
L -5.7 32.2 -5.4 31.95 -5.4 32.05 -5.35 32.05 -5.4 32.1
Q -5.15 32.7 -4.8 33.2 -4.55 33.3 -4.35 33.4 -3.3 33.9 -2.7 34.8 -2.4 34.85 -2.1 34.85 -0.75 34.85 1.95 33.8 3.9 33 11.15 29.9
L 16.25 30.15
Q 24.2 25.75 26.9 24.55 27.6 23.55 31.4 19.55 35.9 15.5 36 15.05 35.1 14.3 33.9 11.35
M -5.35 31.2
Q -5.3 31.3 -5.2 31.4 -5.3 31.45 -5.35 31.5 -5.4 31.5 -5.45 31.55
L -6.4 32.05
Q -6.2 31.9 -5.9 31.65 -5.7 31.4 -5.45 31.05 -5.4 31 -5.35 30.9
L -5.35 31.2 Z"/>

<path fill="#7AD1C8" stroke="none" d="
M -5.2 31.4
Q -5.3 31.3 -5.35 31.2
L -5.35 31.5
Q -5.3 31.45 -5.2 31.4 Z"/>
</g>

<g id="Miku_parts_Skirt_0_Layer0_1_FILL">
<path fill="#808080" stroke="none" d="
M -31.25 13.25
Q -29.65 12.1 -26.4 9.15 -22.9 5.85 -21.8 5 -23.7 5.35 -27.2 8.25 -30.5 10.95 -31.75 12.9
L -31.25 13.25
M -12.9 4.9
Q -14.55 6.35 -16.55 9.45 -17.65 11.15 -19.5 14.35 -20.15 15.55 -22 19.5 -24.05 23.8 -24.05 24.3 -24.05 24.7 -24 24.75 -23.95 24.75 -23.8 24.85 -22.45 23.05 -21.05 19.85 -19.2 15.8 -18.75 15 -14.3 8.15 -12.9 4.9
M -2.85 14.8
Q -3.25 16.5 -3.75 19.75 -4.8 25.5 -4.8 29.55 -4.8 30.25 -4.8 30.3 -4.7 30.9 -4.25 31.1
L -3.65 30.9
Q -3.35 26.75 -2.5 20.45 -1.45 13.55 -1.05 10.25 -2.15 11.85 -2.85 14.8
M 8.6 12.5
L 8.25 12.5
Q 8.25 13.25 8 14.9 8 17.3 8.85 21.8 9.85 26.8 10.75 27.5 11.25 27.2 11.25 26.75 10.2 24.05 9.55 19.65 9 14.75 8.6 12.5
M 25.75 18.4
Q 25.55 18.05 23.2 12.3 21.65 8.65 20 6.4
L 19.85 6.4
Q 21.8 14.35 25.25 19.15 25.45 19.1 25.65 18.75
L 25.75 18.4 Z"/>
</g>

<g id="Miku_parts_Belt_0_Layer0_0_FILL">
<path fill="#449998" stroke="none" d="
M -3.8 19.85
Q -2.8 20.8 -1.55 21.1 -0.95 21.3 -0.35 21.3
L -0.95 19.3
Q -1.35 19.25 -1.75 19 -1.8 18.95 -1.85 19 -2.7 19.6 -3.8 19.85
M -5.4 4.15
Q -5.4 4 -5.35 3.9
L -7.1 3.55
Q -7.15 3.8 -7.15 4.1 -7.2 4.6 -7.25 5.25 -7.35 6.45 -7.25 7.85 -7.3 8.8 -7.2 9.9 -7.2 9.95 -7.15 10.1 -7 12.35 -6.2 15 -6.1 15.15 -6.05 15.35 -6 15.7 -5.9 16.05 -5.35 17.45 -4.7 18.55
L -3.5 16.35
Q -3.65 16 -3.85 15.65 -3.85 15.55 -3.85 15.5
L -5.85 15.35
Q -5.45 15.1 -5.05 14.6 -4.75 14.2 -4.45 13.75 -4.5 13.65 -4.5 13.55 -4.65 12.95 -4.85 12.4 -5 11.9 -5 11.4
L -6.95 10.9 -5.45 9.45
Q -5.55 9.2 -5.55 8.9 -5.6 8.5 -5.6 8
L -7.15 7.7 -5.55 6.2
Q -5.55 5.45 -5.45 4.65 -5.45 4.45 -5.4 4.15
M -7.05 2.95
L -5.25 1.9
Q -5.25 1.3 -5.2 0.75 -5.25 -0.05 -5.45 -0.6 -6.3 -0.25 -6.6 0.75 -6.65 1.05 -6.7 1.4 -6.9 2.1 -7.05 2.95
M 2.05 17.9
Q 1.7 18.2 1.3 18.4
L 0.45 21.25
Q 1.85 20.85 3.15 19.6
L 2.05 17.9
M 5.2 16.6
Q 5.4 16.2 5.6 15.9 5.5 15.8 5.45 15.8 4.8 15.65 4.25 15.45
L 3.7 18.9
Q 4.45 17.95 5.2 16.6
M 8.2 7.75
L 6 8.95 7.55 10.3
Q 8 8.7 8.2 7.75
M 5.3 11.65
Q 5.2 12 5.1 12.3 5.95 13.25 6.35 14.25 6.9 12.8 7.35 11.15 7.25 11.15 7.1 11.2 6.15 11.5 5.3 11.65
M 8.75 2.65
L 6.7 4
Q 6.65 4.75 6.55 5.5 7.45 5.9 8.55 6.25 8.7 4.95 8.75 2.65
M 9.05 -1.8
L 9.3 -3.9
Q 8.5 -5.2 7.9 -4.8 7.55 -4.6 7.35 -3.9 7.2 -3.4 7.1 -1.7
L 9 -1.15
Q 9.05 -1.6 9.05 -1.8
M 8.95 -0.85
L 7 -0.45
Q 6.95 0.15 6.95 0.8
L 8.8 1.7
Q 8.9 -0.05 8.95 -0.85 Z"/>
</g>

<g id="Miku_parts_Belt_0_Layer0_0_MEMBER_0_FILL">
<path fill="#3F4152" stroke="none" d="
M -3.5 16.35
L -4.7 18.55
Q -4.25 19.2 -3.8 19.85 -2.7 19.6 -1.85 19
L -1.8 18.95
Q -2.6662109375 18.213671875 -3.5 16.35
M -4.45 13.75
Q -4.75 14.2 -5.05 14.6 -5.45 15.1 -5.85 15.35
L -3.85 15.5
Q -4.2 14.65 -4.45 13.75
M -5.35 9.85
Q -5.4 9.65 -5.45 9.45
L -6.95 10.9 -5 11.4
Q -5.25 10.65 -5.35 9.85
M -5.6 7.15
Q -5.6 6.7 -5.55 6.2
L -7.15 7.7 -5.6 8
Q -5.6 7.65 -5.6 7.15
M -5.35 3.9
Q -5.25 2.8 -5.25 1.9
L -7.05 2.95
Q -7.05 3.25 -7.1 3.55
L -5.35 3.9
M 0.45 21.25
L 1.3 18.4
Q 0.45 19 -0.7 19.3 -0.85 19.35 -0.95 19.3
L -0.35 21.3
Q 0 21.3 0.45 21.25
M 2.05 17.9
L 3.15 19.6
Q 3.45 19.3 3.7 18.9
L 4.25 15.45
Q 4.8 15.65 5.45 15.8 5.5 15.8 5.6 15.9 5.95 15.1 6.35 14.25 5.95 13.25 5.1 12.3 4.4 14.45 3.95 15.3 3.2 16.85 2.05 17.9
M 8.4 6.85
Q 8.45 6.6 8.55 6.25 7.45 5.9 6.55 5.5 6.25 8.05 5.7 10.1 5.45 10.9 5.3 11.65 6.15 11.5 7.1 11.2 7.25 11.15 7.35 11.15 7.4 10.85 7.5 10.6 7.55 10.45 7.55 10.3
L 6 8.95 8.2 7.75
Q 8.35 7.15 8.4 6.85
M 8.8 1.7
L 6.95 0.8
Q 6.85 1.3 6.8 1.9 6.8 2.95 6.7 4
L 8.75 2.65
Q 8.75 2.6 8.75 2.45 8.75 2.05 8.8 1.7
M 8.95 -0.85
Q 9 -1.05 9 -1.15
L 7.1 -1.7
Q 7.05 -1.15 7 -0.45
L 8.95 -0.85 Z"/>
</g>
</defs>

<g id="Layer_1">
<g id="skirt" transform="matrix( 1, 0, 0, 1, 0,0) ">
<g transform="matrix( 1, 0, 0, 1, 0,0) ">
<use xlink:href="#Miku_parts_Skirt_0_Layer0_0_FILL"/>
</g>

<g transform="matrix( 1, 0, 0, 1, 0,0) ">
<use xlink:href="#Miku_parts_Skirt_0_Layer0_1_FILL"/>
</g>
</g>

<g id="belt" transform="matrix( 0.9659271240234375, -0.258819580078125, 0.258819580078125, 0.9659271240234375, 20,10.65) ">
<g transform="matrix( 1, 0, 0, 1, 0,0) ">
<use xlink:href="#Miku_parts_Belt_0_Layer0_0_FILL"/>
</g>

<g transform="matrix( 1, 0, 0, 1, 0,0) ">
<use xlink:href="#Miku_parts_Belt_0_Layer0_0_MEMBER_0_FILL"/>
</g>
</g>
</g>
</svg>
