
<svg xmlns="http://www.w3.org/2000/svg" version="1.1" xmlns:xlink="http://www.w3.org/1999/xlink" preserveAspectRatio="xMinYMin meet" x="0px" y="0px" width="800px" height="600px" viewBox="-40 -60 800 600">
<defs>
<g id="Miku_parts_Shirttail_R_0_Layer0_0_FILL">
<path fill="#878AA3" stroke="none" d="
M 13.75 -2.6
L 10.95 -7.75 -5.75 -5.1
Q -5.95 -4.35 -6.35 -3.7 -11.05 4 -15.7 11.35 -13.9 11.05 -12.1 10.75 -6.3 9.6 -0.8 7.25
L -0.75 8.45
Q -3.65 11.1 -7.5 11.7 -11.45 12.3 -14.7 14.3 -13.35 14.25 -12 14.25 4.9 12.1 13.75 -2.6 Z"/>

<path fill="#B3B3CC" stroke="none" d="
M 14.85 -0.55
Q 14.5119140625 -1.2166015625 14.15 -1.9 13.9671875 -2.238671875 13.75 -2.6 4.9 12.1 -12 14.25 -13.35 14.25 -14.7 14.3 -11.45 12.3 -7.5 11.7 -3.65 11.1 -0.75 8.45
L -0.8 7.25
Q -6.3 9.6 -12.1 10.75 -13.9 11.05 -15.7 11.35 -15.7234375 11.6994140625 -15.7 12.05 -15.70390625 12.09921875 -15.7 12.15 -15.6869140625 12.325 -15.7 12.5 -15.6630859375 12.6439453125 -15.65 12.8 -15.6376953125 12.9384765625 -15.65 13.05
L -15.1 17
Q -12.509765625 30.9083984375 -1.3 42.8 13.8 33.7 24.55 18.9 23.65 17.55 23.05 16.25 18.9619140625 7.296484375 14.85 -0.55 Z"/>
</g>

<g id="Miku_parts_Shirttail_R_0_Layer0_1_FILL">
<path fill="#53B5B5" stroke="none" d="
M 21.8 24.55
Q 24.15 21.7 24.3 18.75 24.15 18.7 24 18.7 22.7 19.25 22.2 20.5 20.35 24.2 17.35 27.45 15.2 29.8 12.8 31.95 6.25 37.65 -1.35 42.05 -2.4 40.85 -3.4 39.7 -5.7 37.05 -7.85 34.1 -9.85 31.3 -10.85 28 -12.65 22.25 -15.4 13.8
L -15.4 17.55
Q -14.45 22 -12.95 26.4 -12.15 28.8 -11 30.9 -7.1 38.1 -1.25 43.85 -1.05 43.8 -0.9 43.7 -0.8 43.7 -0.8 43.65 -0.7 43.5 -0.65 43.4 -0.3 43.25 0 43 3.15 41.15 6 38.95 9.3 36.4 12.4 33.9 17.5 29.75 21.8 24.55 Z"/>
</g>

<g id="Miku_parts_Shirttail_L_0_Layer0_0_FILL">
<path fill="#B3B3CC" stroke="none" d="
M 5 8.4
Q 4.25 7.85 3.4 7.4 4.75 10.85 7.65 13 8.6 13.65 9.55 14.3
L 8.85 14.55
Q -1.2330078125 13.1353515625 -7.05 -0.2
L -13.8 23.45
Q -6.75 32.8 -1.25 43.25 -0.55 44.6 0.95 45.45 1.7 45.85 2.5 46.2 4.4 44.05 6 41.95 6.6 40.75 7.25 39.45 10.9 32.7 13.1 28.15 14.23671875 24.1875 14.35 20.15 14.3923828125 18.6041015625 14.25 17 14.2666015625 16.825 14.25 16.6
L 13.85 13.65
Q 13.81640625 13.4619140625 13.75 13.25 8.95 11.65 5 8.4 Z"/>

<path fill="#878AA3" stroke="none" d="
M 7.05 -2.1
Q 6.25 -3.1 5.5 -4.1
L -7.4 -2.45 -6.5 -2 -7.05 -0.2
Q -1.2330078125 13.1353515625 8.85 14.55
L 9.55 14.3
Q 8.6 13.65 7.65 13 4.75 10.85 3.4 7.4 4.25 7.85 5 8.4 8.95 11.65 13.75 13.25 12.2 4.85 7.05 -2.1 Z"/>
</g>

<g id="Miku_parts_Shirttail_L_0_Layer0_1_FILL">
<path fill="#53B5B5" stroke="none" d="
M 9.35 34.1
Q 8.8 35.3 8.25 36.4 7.6 37.8 6.85 39.1 5.95 40.65 4.75 42.05 3.55 43.45 2.5 44.9 2.3 45.1 2.25 45.4 1.4 44.25 0.35 43.35 -0.9 42.4 -1.9 41.25 -2.9 40.1 -3.55 38.8 -4.65 36.75 -5.8 34.5 -6.8 32.6 -7.95 30.85 -8.7 29.6 -9.4 28.55 -11.3 25.85 -13.6 23.5 -13.7 23.4 -13.95 23.4 -14.05 23.55 -14.15 23.75 -14.2 23.85 -14.2 24 -14.2 24.15 -14.15 24.35 -12.6 26.3 -11.1 28.1 -10.1 29.35 -9.35 30.7 -8.3 32.5 -7.35 34.3 -6.95 35.05 -6.5 35.8 -6.05 36.45 -5.75 37.15 -4.8 39.1 -3.7 40.65 -3.05 41.55 -2.35 42.45 -1.6 43.35 -0.7 44.2 -0.25 44.75 0.3 45.3 0.7 45.65 1.1 46.05 1.35 46.3 1.65 46.55 2.35 46.7 2.9 46 3.45 45.35 4.2 44.75 4.9 44.25 5.2 43.7 6.1 42.25 7.35 40.6 7.7 40.2 8 39.75 9.2 37.8 10.1 35.8 10.5513671875 34.797265625 12.25 31.95 13.9453125 29.108203125 14.4 20.8 12.1 29.8 11.05 31.25 10 32.7 9.35 34.1 Z"/>
</g>
</defs>

<g id="Layer_1">
<g id="shirt_R" transform="matrix( 0.92083740234375, -0.386932373046875, 0.386932373046875, 0.92083740234375, 6.6,-7.2) ">
<g transform="matrix( 1, 0, 0, 1, 0,0) ">
<use xlink:href="#Miku_parts_Shirttail_R_0_Layer0_0_FILL"/>
</g>

<g transform="matrix( 1, 0, 0, 1, 0,0) ">
<use xlink:href="#Miku_parts_Shirttail_R_0_Layer0_1_FILL"/>
</g>
</g>

<g id="shirt_L" transform="matrix( 0.8914794921875, 0.45013427734375, -0.45013427734375, 0.8914794921875, -8.65,-11.35) ">
<g transform="matrix( 1, 0, 0, 1, 0,0) ">
<use xlink:href="#Miku_parts_Shirttail_L_0_Layer0_0_FILL"/>
</g>

<g transform="matrix( 1, 0, 0, 1, 0,0) ">
<use xlink:href="#Miku_parts_Shirttail_L_0_Layer0_1_FILL"/>
</g>
</g>

<g id="Layer0_2_FILL">
    <path fill="#71778E" stroke="none" d="
    M -8.05 -3.8
    L -8.05 -3.7 -7.95 -3.7
    Q -8 -3.75 -8.05 -3.8
    M -15.4 -14.2
    Q -15.45 -14.3 -15.55 -14.3
    L -15.55 -14.15 -15.4 -14.2
    M -2.8 -16.1
    L -3.25 -16.1 -2.75 -2.25 -1.45 -2
    Q -1 -6.75 -1.95 -11.4 -2.15 -12.45 -2.3 -13.45 -2.55 -14.8 -2.8 -16.1 Z"/>
    
    <path fill="#B3B3CC" stroke="none" d="
    M -13.5 -31.25
    Q -14.4 -29.25 -15.25 -24.95 -15.6955078125 -22.54453125 -15.95 -21.25 -15.6775390625 -21.27109375 -15.4 -21.3 -12.4865234375 -21.585546875 -4.1 -22 -4.6 -24.47734375 -4.6 -24.8 -4.6 -26.4509765625 -2.95 -32.1 -3.0548828125 -31.7703125 -3.15 -31.45 -6.296875 -31.9408203125 -8.8 -35.25 -9.3546875 -35.97734375 -9.8 -36.6 -12.7931640625 -32.993359375 -13.5 -31.25
    M 14.05 -40.5
    Q 12.943359375 -38.6220703125 9.35 -35.85 3.4751953125 -31.4068359375 -1.9 -31.35 -3.35 -25.414453125 -3.35 -24.75 -3.35 -23.4802734375 -3.05 -22.05 2.927734375 -22.2853515625 11.5 -22.6 15.12265625 -22.147265625 17.65 -21.65 17.8595703125 -24.259765625 17.9 -27.05 18.05 -37.45 15 -40.05 14.54609375 -40.288671875 14.05 -40.5 Z"/>
    
    <path fill="#878AA3" stroke="none" d="
    M 9.35 -35.85
    Q 12.943359375 -38.6220703125 14.05 -40.5 13.7423828125 -40.6580078125 13.4 -40.8 12.4427734375 -41.1951171875 11.4 -41.5 7.8138671875 -42.548046875 3.4 -42.45 -3.614453125 -42.242578125 -7.8 -38.65 -8.5169921875 -38.0376953125 -9.15 -37.35 -9.278125 -37.194140625 -9.4 -37.05 -9.59296875 -36.8224609375 -9.8 -36.6 -9.3546875 -35.97734375 -8.8 -35.25 -6.296875 -31.9408203125 -3.15 -31.45 -3.0548828125 -31.7703125 -2.95 -32.1 -4.6 -26.4509765625 -4.6 -24.8 -4.6 -24.47734375 -4.1 -22 -12.4865234375 -21.585546875 -15.4 -21.3 -15.6775390625 -21.27109375 -15.95 -21.25 -15.9736328125 -21.0873046875 -16 -20.95 -16.033203125 -20.8505859375 -15.85 -18.2 -15.7982421875 -17.49140625 -15.75 -16.6
    L -15.55 -14.3
    Q -15.45 -14.3 -15.4 -14.2
    L -15.55 -14.15 -15.5 -10.1 -10.95 -4.3 -8.05 -3.7 -8.05 -3.8
    Q -8 -3.75 -7.95 -3.7
    L -2.75 -2.25 -3.25 -16.1 -2.8 -16.1
    Q -2.55 -14.8 -2.3 -13.45 -2.15 -12.45 -1.95 -11.4 -1 -6.75 -1.45 -2 3.3 -1.55 7.65 -3.45 8.75 -3.95 9.85 -4.45 10.5 -4.8 11.15 -5.15 15.85 -7.65 16.5 -13.05 16.75 -14.85 17.05 -16.6 17.11171875 -16.8490234375 17.15 -17.1 17.4615234375 -19.302734375 17.65 -21.65 15.12265625 -22.147265625 11.5 -22.6 2.927734375 -22.2853515625 -3.05 -22.05 -3.35 -23.4802734375 -3.35 -24.75 -3.35 -25.414453125 -1.9 -31.35 3.4751953125 -31.4068359375 9.35 -35.85 Z"/>
</g>

<g id="Layer0_3_FILL">
    <path fill="#B3B3CC" stroke="none" d="
    M 9.55 -47.25
    Q 10.4728515625 -46.57890625 11.1 -46.15 11.0857421875 -46.7482421875 10.9 -47.3 10.3076171875 -47.6373046875 8.55 -48.5 6.9171875 -48.85 4.65 -48.85 0.87421875 -48.85 -4.2 -46.1 -4.33984375 -45.4873046875 -4.5 -44.7
    L -4.65 -44
    Q -4.4587890625 -44 -4.25 -44 -3.2 -44 -1.25 -44.95 -0.05 -45.5 3.55 -47.25
    L 9.55 -47.25 Z"/>
    
    <path fill="#6C6C93" stroke="none" d="
    M 11.1 -46.15
    Q 10.4728515625 -46.57890625 9.55 -47.25
    L 3.55 -47.25
    Q -0.05 -45.5 -1.25 -44.95 -3.2 -44 -4.25 -44 -4.4587890625 -44 -4.65 -44
    L -4.9 -42.5
    Q -4.85 -40.25 -2.85 -39.9 1.45 -39.05 6.5 -41.35 10.75 -43.35 11 -44.65 11.1494140625 -45.441796875 11.1 -46.15 Z"/>
</g>

<g id="Layer0_4_FILL">
    <path fill="#FFE788" stroke="none" d="
    M 12 -26
    Q 13.55 -27.05 13.55 -28.1 13.55 -28.85 13.25 -28.95 12.8 -28.95 12.5 -29.1 3.3 -30.6 3.3 -27.8 3.3 -27.1 3.4 -26.85 3.75 -26.15 5 -25.85
    L 10.5 -25.85 12 -26 Z"/>
</g>
</g>
</svg>
