
<svg xmlns="http://www.w3.org/2000/svg" version="1.1" xmlns:xlink="http://www.w3.org/1999/xlink" preserveAspectRatio="xMinYMin meet" x="0px" y="0px" width="800px" height="600px" viewBox="-40 -40 800 600">
<g id="Eyes_o_o_shut">
<g id="Layer1_0_FILL">
<path fill="#185649" stroke="none" d="
M -15.75 10.8
Q -15.1 10.25 -15.1 9.35 -15.1 6.8 -21.75 4.8 -28.3 2.9 -30.5 4.3 -36.35 5.45 -37.75 6 -39.35 6.65 -39.35 8.1 -39.35 8.85 -39.25 9.05 -38.8 9.8 -37 9.8 -36.6 9.8 -34.45 8.95 -32.35 8.05 -27.75 8.05 -24.75 8.05 -20.95 9.7 -17.2 11.3 -17 11.3 -16.3 11.3 -15.75 10.8
M 38.3 7.35
Q 38.3 4.9 34.5 3.8 31.05 2.8 26.2 3.3 21.2 3.8 17.85 5.55 14.05 7.5 14.05 10.25 14.05 10.3 14.15 11.3 14.55 12.3 15.9 12.3 16.8 12.3 19.4 9.7 22.95 7.05 28.4 7.05 31.5 7.05 33.95 8.2 35.2 8.75 36.4 9.3 37.15 9.3 37.7 8.8 38.3 8.25 38.3 7.35 Z"/>
</g>

<g id="Layer1_1_FILL">
<path fill="#185649" stroke="none" d="
M -37.35 6.25
Q -36.5 7.75 -35 7.75 -34.25 7.75 -34 7.5 -33.9 7.25 -33.85 7.25 -33.75 7.35 -33.75 6.1 -33.75 5.2 -35.15 4.4 -36.45 3.55 -37.75 3.55 -38.2 4.8 -37.35 6.25
M 13.9 5
Q 13.8 5.2 13.7 5.2 13.65 5.2 13.65 5.9 13.65 6.3 14.7 7.65 15.9 9.25 16.9 9.25 17.7 9.25 17.85 9 17.95 8.85 18.05 8.5
L 18.15 7.65
Q 17.8 6.95 16.6 6.05 15.15 5 13.9 5 Z"/>
</g>
</g>
</svg>
