
<svg xmlns="http://www.w3.org/2000/svg" version="1.1" xmlns:xlink="http://www.w3.org/1999/xlink" preserveAspectRatio="xMinYMin meet" x="0px" y="0px" width="800px" height="600px" viewBox="-40 -40 800 600">
<g id="Eyes_eheh_shut">
<g id="Layer1_0_FILL">
<path fill="#185649" stroke="none" d="
M -10.6 9.85
Q -11.55 7.75 -15.25 5.75 -15.5 5.65 -23.6 1.8 -30.8 0.15 -36.65 3.65 -41.35 6.45 -41.35 8.6 -41.45 8.8 -41.25 9.3 -40.8 10.3 -39.25 10.3 -38.3 10.3 -37.5 9.55 -36.55 8.5 -35.85 7.95 -33.25 5.55 -28 5.55 -24.8 5.55 -18.7 8.7 -12.6 11.8 -12.5 11.8 -11.75 11.8 -11.3 11.55
L -10.85 11.25 -10.6 9.85
M 40.3 9
Q 40.3 5.6 33.35 2.3 26.35 -1.05 22.9 0.8 18.8 0.75 14.25 3.2 10.69765625 5.1029296875 10.15 6.4
L 10.15 7.75
Q 10.2080078125 7.966015625 10.3 8.15 10.85 9.3 12.4 9.3 13.55 9.3 15.55 6.95 18.8 4.55 25.9 4.55 30.35 4.55 34.2 7.7 38.1 10.8 38.15 10.8 40.3 10.75 40.3 9 Z"/>
</g>
</g>
</svg>
