
<svg xmlns="http://www.w3.org/2000/svg" version="1.1" xmlns:xlink="http://www.w3.org/1999/xlink" preserveAspectRatio="xMinYMin meet" x="0px" y="0px" width="800px" height="600px" viewBox="-40 -40 800 600">
<g id="Eyes_v_v_shut">
<g id="Layer1_0_FILL">
<path fill="#FF88F3" stroke="none" d="
M 15.25 -12.2
Q 15.05 -12.4 14.95 -12.5 19.2 -6.45 20.1 -2.15 20.2 -1.55 20.25 -0.8 20.25 -0.6 20.15 -0.4
L 13.6 11.55 25.25 5.1
Q 25.4 5.05 25.55 5 25.75 4.9 25.95 4.9 26.7 4.95 27.4 5.05 31.6 5.95 37.65 10.2 37.55 10.1 37.4 9.95 37.6 10.05 37.7 10.15 33.45 4.1 32.55 -0.1 32.45 -0.8 32.4 -1.55 32.4 -1.75 32.5 -1.85 32.6 -2.45 32.8 -3.05
L 37.8 -12.35
Q 38.1 -12.75 38.4 -13.05
L 39 -13.85
Q 38.1 -13.15 37.25 -12.4 37 -12.25 36.8 -12.05 32.75 -9.3 28.35 -7.7
L 27.9 -7.55
Q 27.55 -7.4 27.05 -7.3 26.9 -7.25 26.7 -7.25 25.95 -7.3 25.15 -7.4 21 -8.25 15 -12.55 15.1 -12.45 15.25 -12.2 Z"/>
</g>

<g id="Layer1_0_MEMBER_0_FILL">
<path fill="#FFFFFF" stroke="none" d="
M 17.8 -9.75
Q 17.9 -9.65 18 -9.45 17.85 -9.6 17.75 -9.7 20.95 -5.1 21.6 -1.95 21.65 -1.4 21.7 -0.85 21.65 -0.7 21.65 -0.6
L 16.6 8.45 25.4 3.55
Q 25.55 3.5 25.65 3.5 25.8 3.45 25.95 3.4 26.5 3.45 27.1 3.55 30.25 4.2 34.8 7.35 34.7 7.25 34.6 7.15 34.75 7.2 34.85 7.3 31.65 2.8 31 -0.35 30.9 -0.95 30.85 -1.5 30.9 -1.65 30.95 -1.8 31.05 -2.2 31.2 -2.65
L 35.05 -9.7
Q 35.3 -10.05 35.55 -10.3
L 35.95 -10.9
Q 35.3 -10.35 34.65 -9.8 34.45 -9.7 34.25 -9.5 31.25 -7.4 27.9 -6.15
L 27.6 -6.05
Q 27.2 -5.95 26.9 -5.85 26.75 -5.8 26.6 -5.75 26 -5.85 25.45 -5.9 22.3 -6.55 17.8 -9.75 Z"/>
</g>

<g id="Layer1_1_FILL">
<path fill="#FF88F3" stroke="none" d="
M -32.25 -0.8
Q -32.25 -0.6 -32.35 -0.4
L -38.9 11.55 -27.25 5.1
Q -27.1 5.05 -26.95 5 -26.75 4.9 -26.55 4.9 -25.8 4.95 -25.1 5.05 -20.9 5.95 -14.85 10.2 -14.95 10.1 -15.1 9.95 -14.9 10.05 -14.8 10.15 -19.05 4.1 -19.95 -0.1 -20.05 -0.8 -20.1 -1.55 -20.1 -1.75 -20 -1.85 -19.9 -2.45 -19.7 -3.05
L -14.7 -12.35
Q -14.4 -12.75 -14.1 -13.05
L -13.5 -13.85
Q -14.4 -13.15 -15.25 -12.4 -15.5 -12.25 -15.7 -12.05 -19.75 -9.3 -24.15 -7.7
L -24.6 -7.55
Q -24.95 -7.4 -25.45 -7.3 -25.6 -7.25 -25.8 -7.25 -26.55 -7.3 -27.35 -7.4 -31.5 -8.25 -37.5 -12.55 -37.4 -12.45 -37.25 -12.2 -37.45 -12.4 -37.55 -12.5 -33.3 -6.45 -32.4 -2.15 -32.3 -1.55 -32.25 -0.8 Z"/>
</g>

<g id="Layer1_1_MEMBER_0_FILL">
<path fill="#FFFFFF" stroke="none" d="
M -30.8 -0.85
Q -30.85 -0.7 -30.85 -0.6
L -35.9 8.45 -27.1 3.55
Q -26.95 3.5 -26.85 3.5 -26.7 3.45 -26.55 3.4 -26 3.45 -25.4 3.55 -22.25 4.2 -17.7 7.35 -17.8 7.25 -17.9 7.15 -17.75 7.2 -17.65 7.3 -20.85 2.8 -21.5 -0.35 -21.6 -0.95 -21.65 -1.5 -21.6 -1.65 -21.55 -1.8 -21.45 -2.2 -21.3 -2.65
L -17.45 -9.7
Q -17.2 -10.05 -16.95 -10.3
L -16.55 -10.9
Q -17.2 -10.35 -17.85 -9.8 -18.05 -9.7 -18.25 -9.5 -21.25 -7.4 -24.6 -6.15
L -24.9 -6.05
Q -25.3 -5.95 -25.6 -5.85 -25.75 -5.8 -25.9 -5.75 -26.5 -5.85 -27.05 -5.9 -30.2 -6.55 -34.7 -9.75 -34.6 -9.65 -34.5 -9.45 -34.65 -9.6 -34.75 -9.7 -31.55 -5.1 -30.9 -1.95 -30.85 -1.4 -30.8 -0.85 Z"/>
</g>
</g>
</svg>
