
<svg xmlns="http://www.w3.org/2000/svg" version="1.1" xmlns:xlink="http://www.w3.org/1999/xlink" preserveAspectRatio="xMinYMin meet" x="0px" y="0px" width="800px" height="600px" viewBox="-40 -40 800 600">
<g id="Eyes_@_@_open">
<g id="Layer1_0_FILL">
<path fill="#185649" stroke="none" d="
M -40.3 -4.5
Q -40.45 -3.65 -40.3 -2.95 -39.95 -1.6 -38.4 -1.6 -37.7 -1.6 -37 -3.2
L -35.45 -6.7
Q -32.7 -11.85 -26.65 -11.85 -19.8 -11.85 -16.4 -6.75 -14.3 -3.5 -14.3 -0.75 -14 1.7 -14.9 4.05 -16.75 8.8 -22.9 8.8 -27.15 8.8 -28.95 6.8 -30.05 5.6 -30.05 4 -29.95 2.2 -29.55 0.5 -28.7 -2.85 -27.15 -2.85 -25.5 -2.85 -24.15 -2 -22.8 -1.1 -22.8 0 -22.8 0.55 -23.05 1.65 -23.25 2.6 -23.15 3.25
L -21.4 3.8
Q -19.65 3.5 -19.2 2.05 -19.05 1.6 -19.05 0.05 -19.05 0 -20.3 -3.45 -22.45 -6.85 -27.15 -6.85 -31.25 -6.85 -32.9 -1.75 -33.8 1 -33.8 4.25 -33.8 6.55 -32.3 8.75 -29.6 12.8 -23.15 12.8 -15.25 12.8 -12.2 6.8 -10.55 3.55 -10.55 -0.85 -10.55 -7.6 -15.2 -11.7 -19.3 -15.25 -25.4 -15.6 -31.4 -15.95 -35.65 -13.05 -40.3 -9.95 -40.3 -4.5
M 19.35 -14.5
Q 16.45 -12.8 14.15 -10.35 12.1 -8.15 12.1 -7.25 12.05 -6.65 12.25 -6.1 12.65 -5.1 14 -5.1 14.4 -5.1 18.35 -8.95 23 -12.85 27 -12.85 32.2 -12.85 34.85 -7.35 36.6 -3.75 36.6 -0.6 36.5 1.55 35.35 3.5 33.1 7.3 27.75 7.3 24.2 7.3 22.5 5.3 21.35 4 21.35 2.5 21.35 -0.4 26 -2.85
L 29.5 -2.85
Q 29.6 -2.5 29.6 -1.75 27.95 -0.4 27.4 0.3 27.1 0.75 27.1 1.25 27.1 2.5 27.25 2.75
L 29 3.3
Q 32.3 2.2 33.1 0.65 33.35 0.1 33.35 -1.8 33.35 -3.95 33.2 -4.35 32.75 -5.5 30.5 -6.85
L 25.5 -6.85
Q 20.9 -5.35 18.95 -2.3 17.6 -0.25 17.6 2.35 17.6 6.9 20 9.1 22.45 11.3 27.75 11.3 35.3 11.3 38.5 6 40.35 2.95 40.35 -0.55 40.35 -3.95 38.65 -7.9 36.7 -12.55 33.5 -14.6 27.55 -19.45 19.35 -14.5 Z"/>
</g>
</g>
</svg>
