
<svg xmlns="http://www.w3.org/2000/svg" version="1.1" xmlns:xlink="http://www.w3.org/1999/xlink" preserveAspectRatio="xMinYMin meet" x="0px" y="0px" width="800px" height="600px" viewBox="-40 -40 800 600">
<g id="Eyes_happy_shut">
<g id="Layer1_0_FILL">
<path fill="#185649" stroke="none" d="
M -13.75 5.85
L -14.1 4.5
Q -33.65 1.55 -37.25 7.25
L -37.6 12.6
Q -36.75 12.3 -35.85 12.1 -28.15 10.2 -15.25 12.1 -14.8 11.35 -14.4 10.6 -13.2 8.4 -13.75 5.85
M 40.25 7.3
L 38.95 5.7
Q 25.95 0.55 14.5 5.5 14.45 7.4 14.6 9.35 14.75 10.25 15.15 11.1 15.5 11.95 16 12.8 25 9.3 40.75 13.25
L 40.25 7.3 Z"/>
</g>

<g id="Layer1_1_FILL">
<path fill="#185649" stroke="none" d="
M -36.3 8.5
Q -36.3 8.15 -36.35 8.1 -36.4 8.05 -36.55 8 -38.168359375 9.5267578125 -40.05 9.7 -40.1775390625 9.920703125 -40.25 10.15 -38.35 11.75 -37.5 11.75 -37.1 11.75 -37 11.65
L -37 11.5
Q -36.85 10.8 -36.5 9.85 -36.3 9.2 -36.3 8.5
M 15.95 6.5
Q 15.05 7.286328125 14.05 8.25 13.05 9.213671875 11.65 9.25 11.64921875 9.3990234375 11.7 9.75 11.80234375 10.107421875 12.9 10.9 14.00859375 11.7412109375 15.55 11.95 15.5 10.4 15.5 9.9 15.55 8.1 15.95 6.5 Z"/>
</g>
</g>
</svg>
