<svg xmlns="http://www.w3.org/2000/svg" version="1.1" xmlns:xlink="http://www.w3.org/1999/xlink" preserveAspectRatio="xMinYMin meet" x="0px" y="0px" width="800px" height="600px" viewBox="-40 -40 800 600">
<g id="Eyes_o_o_open">
<g id="Layer1_0_FILL">
<path fill="#185649" stroke="none" d="
M -34.6 -4.9
Q -35.85 -3.6 -36.55 -1.85 -38.15 1.4 -38.15 5.3 -38.15 8.35 -36.75 10.85 -35.65 12.8 -33.85 14 -31.3 16.65 -26.85 16.65 -22.2 16.65 -18.55 13.15 -15.1 9.8 -14.6 4.8 -14.25 3.35 -14.25 2 -14.25 -0.3 -14.75 -1.5 -15.1 -2.6 -15.85 -2.95 -15.95 -3.1 -16 -3.3 -16.05 -3.35 -16.05 -3.4 -16.85 -5.95 -20.6 -7.95 -24.65 -10.15 -28 -8.75 -31.9 -8.25 -34.6 -4.9
M -31.8 -4.6
Q -31.65 -4.7 -31.5 -4.75 -30.55 -5.05 -29.75 -5.25 -27.65 -6.5 -27.5 -6.65
L -26.75 -6.65
Q -26.55 -6.55 -26.35 -6.4 -26.25 -6.45 -26.15 -6.5 -21.6 -6.25 -19.15 -4 -19.25 -4.35 -19.4 -5.15 -18.7 -3.05 -18.1 -2.05 -17.6 -1.5 -17.4 -0.9 -17.15 -0.45 -16.9 0.05 -16.65 1.25 -16.65 2.65 -16.65 4.15 -16.65 4.75 -16.85 5.7 -17.2 6.95 -17.8 8.3 -18.75 9.7 -19.5 10.55 -20.45 11.4 -21.05 11.95 -21.6 12.45 -21.8 12.5 -22 12.6 -23.75 13.4 -25.5 13.4 -32.55 13.4 -34.8 9.15 -35.75 7.4 -35.75 4.2 -35.75 0.5 -34.35 -1.65 -33.4 -2.9 -31.8 -4.6
M 17.4 -6
Q 16.05 -4.65 15.25 -3.05
L 15.25 -2.95
Q 13.25 0.55 13.25 4.05 13.25 7.7 14.75 10.35 17.9 15.9 26.6 15.9 30.7 15.9 34.45 12.25 38.65 8.25 38.65 2.75 38.65 -1.65 36.35 -4.15 35.55 -5.2 35 -5.9 34 -7.15 33 -7.75 31.25 -9.25 28.35 -9.65 25.85 -9.95 23.5 -9.4 19.9 -8.6 17.4 -6
M 22.25 -6.65
L 24 -6.75
Q 24.4 -6.8 24.65 -7 26.1 -6.65 28.65 -6.25 31.85 -5.45 33.4 -3.35 33.5 -3.25 33.6 -3.15 34.4 -2.7 34.9 -1.65 35.3 -0.85 35.35 -0.15
L 35.35 -0.1
Q 35.9 1.05 35.9 2.4 35.9 3.75 34.35 7.85 33.8 9.35 32.05 11.05
L 32 11.1
Q 31.75 11.2 31.6 11.4 31.35 11.6 31.2 11.8 30.1 12.65 29.05 13 27.65 13.15 27.2 13.15 21.05 13.15 17.9 8.85 17.25 7.95 16.8 7.1 15.95 5.05 15.95 2.7
L 15.95 2.65
Q 16.15 0.5 17.25 -1.6 18.95 -4.9 22.25 -6.65 Z"/>

<path fill="#FFFFFF" stroke="none" d="
M -31.5 -4.75
Q -31.65 -4.7 -31.8 -4.6 -33.4 -2.9 -34.35 -1.65 -35.75 0.5 -35.75 4.2 -35.75 7.4 -34.8 9.15 -32.55 13.4 -25.5 13.4 -23.75 13.4 -22 12.6 -21.8 12.5 -21.6 12.45 -21.05 11.95 -20.45 11.4 -19.5 10.55 -18.75 9.7 -17.8 8.3 -17.2 6.95 -16.85 5.7 -16.65 4.75 -16.65 4.15 -16.65 2.65 -16.65 1.25 -16.9 0.05 -17.15 -0.45 -17.4 -0.9 -17.6 -1.5 -18.1 -2.05 -18.7 -3.05 -19.4 -5.15 -19.25 -4.35 -19.15 -4 -21.6 -6.25 -26.15 -6.5 -26.25 -6.45 -26.35 -6.4 -26.55 -6.55 -26.75 -6.65
L -27.5 -6.65
Q -27.65 -6.5 -29.75 -5.25 -30.55 -5.05 -31.5 -4.75
M 24 -6.75
L 22.25 -6.65
Q 18.95 -4.9 17.25 -1.6 16.15 0.5 15.95 2.65
L 15.95 2.7
Q 15.95 5.05 16.8 7.1 17.25 7.95 17.9 8.85 21.05 13.15 27.2 13.15 27.65 13.15 29.05 13 30.1 12.65 31.2 11.8 31.35 11.6 31.6 11.4 31.75 11.2 32 11.1
L 32.05 11.05
Q 33.8 9.35 34.35 7.85 35.9 3.75 35.9 2.4 35.9 1.05 35.35 -0.1
L 35.35 -0.15
Q 35.3 -0.85 34.9 -1.65 34.4 -2.7 33.6 -3.15 33.5 -3.25 33.4 -3.35 31.85 -5.45 28.65 -6.25 26.1 -6.65 24.65 -7 24.4 -6.8 24 -6.75 Z"/>
</g>

<g id="Layer1_1_FILL">
<path fill="#185649" stroke="none" d="
M -33.1 -8.65
Q -33.3 -9 -33.5 -9.55 -35.15 -10.35 -35.15 -8.7 -34.9 -8 -34.45 -7.25 -33.45 -5.75 -32.1 -5.75 -31.85 -5.75 -31.5 -5.9 -31 -6.15 -31 -6.65 -31 -7.05 -31.15 -7.25 -31.25 -7.35 -31.5 -7.5 -32.7 -7.95 -33.1 -8.65
M 16.35 -10.6
Q 15.75 -10.45 15.75 -9.4 15.75 -8.35 16.4 -7.75 16.85 -7.35 17.8 -6.8 18.85 -6.25 19.25 -6.25 19.55 -6.25 19.85 -6.5 20.15 -6.8 20.15 -7.15 20.15 -7.65 19.15 -8.25 17.95 -9 17.65 -9.55 17 -10.8 16.35 -10.6 Z"/>
</g>
</g>
</svg>
