
<svg xmlns="http://www.w3.org/2000/svg" version="1.1" xmlns:xlink="http://www.w3.org/1999/xlink" preserveAspectRatio="xMinYMin meet" x="0px" y="0px" width="800px" height="600px" viewBox="-40 -40 800 600">
<g id="Eyes_eheh_open">
<g id="Layer1_0_FILL">
<path fill="#185649" stroke="none" d="
M -20.75 -2.75
Q -20.8548828125 -2.753125 -20.95 -2.8 -23.187890625 -3.3 -25.75 -3.3 -27.6134765625 -3.3 -29.3 -3.05 -29.426953125 -3.004296875 -29.55 -3 -31.1806640625 -2.694921875 -32.65 -2.15 -32.75 -1.2818359375 -32.75 0.9 -32.75 3.75 -32.15 5.05 -30.4 8.75 -24.5 8.75 -20.15 8.75 -17.65 5.8 -15.75 3.6 -15.75 1.35 -15.78125 0.2927734375 -16 -0.75
L -16 -0.8
Q -16.54140625 -1.1072265625 -17.1 -1.4
L -20.75 -2.75
M 16.8 -2.05
Q 16.987890625 -1.428125 17.25 -0.85
L 17.25 1.25
Q 17.65 1.9 18.7 4.7 20.6 7.25 26.25 7.25 32.4 7.25 35.55 1.55 36.2921875 0.20703125 36.75 -1.1 35.7240234375 -1.8587890625 34.7 -2.5 34.2455078125 -2.7556640625 33.8 -3.05
L 32.9 -3.5
Q 32.8365234375 -3.5193359375 32.75 -3.55 27.59453125 -6.11640625 23.15 -5.15 22.325 -4.925390625 21.5 -4.6 20.790625 -4.3177734375 20.1 -4
L 20.1 -4
Q 19.4666015625 -3.69140625 18.85 -3.35
L 17.65 -2.6
Q 17.4474609375 -2.4673828125 17.25 -2.35 17.0357421875 -2.1787109375 16.8 -2.05 Z"/>

<path fill="#FFFFFF" stroke="none" d="
M -32.65 -2.15
Q -34.483203125 -1.450390625 -36.05 -0.35 -40.75 3 -40.75 8.75
L -40.75 11
Q -39.95 13.25 -36 13.25 -33.7 13.25 -31.7 11.65 -29.7 10 -26.55 10 -23.05 10 -20.15 12.15 -17.25 14.25 -15.5 14.25 -12.45 14.25 -11.4 12 -10.75 10.7 -10.75 8.15 -10.75 2.85 -15.45 -0.4 -15.7193359375 -0.5837890625 -16 -0.75 -15.78125 0.2927734375 -15.75 1.35 -15.75 3.6 -17.65 5.8 -20.15 8.75 -24.5 8.75 -30.4 8.75 -32.15 5.05 -32.75 3.75 -32.75 0.9 -32.75 -1.2818359375 -32.65 -2.15
M 17.25 -0.85
Q 16.987890625 -1.428125 16.8 -2.05 14.8375 -0.6048828125 13.05 1.3 9.25 5.35 9.25 8.25 9.25 8.3 10.05 10.8 11.7 13.25 16 13.25 18.05 13.25 21 11.15 23.9 9 26.35 9 29.65 9 31.7 10.85 34.3 13.2 34.5 13.25
L 37.9 13.25
Q 40.7 10.35 40.95 9.8 41.15 9.4 41.15 6.6 41.15 3.75 41 3.3 40.5 1.95 37.8 -0.35 35.74609375 -1.9240234375 33.8 -3.05 34.2455078125 -2.7556640625 34.7 -2.5 35.7240234375 -1.8587890625 36.75 -1.1 36.2921875 0.20703125 35.55 1.55 32.4 7.25 26.25 7.25 20.6 7.25 18.7 4.7 17.65 1.9 17.25 1.25
L 17.25 -0.85 Z"/>
</g>
</g>
</svg>
