
<svg xmlns="http://www.w3.org/2000/svg" version="1.1" xmlns:xlink="http://www.w3.org/1999/xlink" preserveAspectRatio="xMinYMin meet" x="0px" y="0px" width="800px" height="600px" viewBox="-40 -40 800 600">
<g id="Eyes_v_v_open">
<g id="Layer1_0_FILL">
<path fill="#FF88F3" stroke="none" d="
M 26.5 -25.25
Q 26.4 -26 26.4 -26.65
L 26.25 -28.15
Q 26.1 -26.45 26 -24.7 25.95 -24.3 25.9 -23.85 24.95 -16.65 22.8 -10.3
L 22.55 -9.7
Q 22.35 -9.15 22.1 -8.45 22 -8.3 21.85 -8.05 21.2 -7.3 20.55 -6.55 16.65 -3.1 8.7 -1.25 8.9 -1.25 9.15 -1.2 8.9 -1.15 8.7 -1.15 16.7 0.75 20.65 4.3 21.25 4.9 21.85 5.6 22 5.85 22.1 6.15
L 26.25 25.75 30.25 6.6
Q 30.3 6.4 30.4 6.2 30.5 5.85 30.65 5.6 31.25 4.9 31.9 4.25 35.85 0.75 43.75 -1.15 43.6 -1.15 43.35 -1.2 43.6 -1.25 43.75 -1.25 35.85 -3.15 31.9 -6.65 31.25 -7.3 30.65 -8.05 30.5 -8.3 30.45 -8.45 30.1 -9.25 29.8 -10.1
L 26.5 -25.25 Z"/>
</g>

<g id="Layer1_0_MEMBER_0_FILL">
<path fill="#FFFFFF" stroke="none" d="
M 13.05 -1.25
Q 13.2 -1.25 13.4 -1.2 13.2 -1.15 13.05 -1.15 19.05 0.3 22 3 22.45 3.45 22.9 4 23 4.2 23.1 4.4
L 26.2 19.35 29.2 4.75
Q 29.25 4.6 29.3 4.45 29.4 4.2 29.5 4 29.95 3.45 30.45 2.95 33.4 0.3 39.35 -1.15 39.2 -1.15 39.05 -1.2 39.2 -1.25 39.35 -1.25 33.4 -2.7 30.45 -5.35 29.95 -5.85 29.5 -6.4 29.4 -6.6 29.35 -6.75 29.1 -7.35 28.85 -8
L 26.4 -19.55
Q 26.3 -20.1 26.3 -20.65
L 26.2 -21.75
Q 26.1 -20.45 26 -19.15 25.95 -18.85 25.9 -18.5 25.25 -13 23.6 -8.15
L 23.45 -7.7
Q 23.25 -7.25 23.1 -6.75 23 -6.6 22.9 -6.4 22.4 -5.85 21.95 -5.3 19 -2.65 13.05 -1.25 Z"/>
</g>

<g id="Layer1_1_FILL">
<path fill="#FF88F3" stroke="none" d="
M -43.8 -1.25
Q -43.6 -1.25 -43.35 -1.2 -43.6 -1.15 -43.8 -1.15 -35.8 0.75 -31.85 4.3 -31.25 4.9 -30.65 5.6 -30.5 5.85 -30.4 6.15
L -26.25 25.75 -22.25 6.6
Q -22.2 6.4 -22.1 6.2 -22 5.85 -21.85 5.6 -21.25 4.9 -20.6 4.25 -16.65 0.75 -8.75 -1.15 -8.9 -1.15 -9.15 -1.2 -8.9 -1.25 -8.75 -1.25 -16.65 -3.15 -20.6 -6.65 -21.25 -7.3 -21.85 -8.05 -22 -8.3 -22.05 -8.45 -22.4 -9.25 -22.7 -10.1
L -26 -25.25
Q -26.1 -26 -26.1 -26.65
L -26.25 -28.15
Q -26.4 -26.45 -26.5 -24.7 -26.55 -24.3 -26.6 -23.85 -27.55 -16.65 -29.7 -10.3
L -29.95 -9.7
Q -30.15 -9.15 -30.4 -8.45 -30.5 -8.3 -30.65 -8.05 -31.3 -7.3 -31.95 -6.55 -35.85 -3.1 -43.8 -1.25 Z"/>
</g>

<g id="Layer1_1_MEMBER_0_FILL">
<path fill="#FFFFFF" stroke="none" d="
M -26.5 -19.15
Q -26.55 -18.85 -26.6 -18.5 -27.25 -13 -28.9 -8.15
L -29.05 -7.7
Q -29.25 -7.25 -29.4 -6.75 -29.5 -6.6 -29.6 -6.4 -30.1 -5.85 -30.55 -5.3 -33.5 -2.65 -39.45 -1.25 -39.3 -1.25 -39.1 -1.2 -39.3 -1.15 -39.45 -1.15 -33.45 0.3 -30.5 3 -30.05 3.45 -29.6 4 -29.5 4.2 -29.4 4.4
L -26.3 19.35 -23.3 4.75
Q -23.25 4.6 -23.2 4.45 -23.1 4.2 -23 4 -22.55 3.45 -22.05 2.95 -19.1 0.3 -13.15 -1.15 -13.3 -1.15 -13.45 -1.2 -13.3 -1.25 -13.15 -1.25 -19.1 -2.7 -22.05 -5.35 -22.55 -5.85 -23 -6.4 -23.1 -6.6 -23.15 -6.75 -23.4 -7.35 -23.65 -8
L -26.1 -19.55
Q -26.2 -20.1 -26.2 -20.65
L -26.3 -21.75
Q -26.4 -20.45 -26.5 -19.15 Z"/>
</g>
</g>
</svg>
