
<svg xmlns="http://www.w3.org/2000/svg" version="1.1" xmlns:xlink="http://www.w3.org/1999/xlink" preserveAspectRatio="xMinYMin meet" x="0px" y="0px" width="800px" height="600px" viewBox="-40 -40 800 600">
<g id="Eyes_jaded_shut">
<g id="Layer1_0_FILL">
<path fill="#185649" stroke="none" d="
M -16.95 6.45
Q -17.15 4.6 -18 3.9 -20.7 3.9 -29.35 3.75 -35.75 3.65 -36 3.75 -36.6 4 -36.6 4.75 -36.6 5.15 -36.5 5.75 -36.5 7 -36.75 9.65 -36.75 10.8 -34.75 10.75
L -17.75 10.75
Q -17.15 10.7 -16.95 10.15 -16.9 9.95 -16.9 9.35 -16.9 6.85 -16.95 6.45
M 34.15 11.75
Q 35.3 11.6 35.6 11.25 35.75 11.1 35.75 10.5 35.5 8.25 35.5 7.25
L 35.5 5.6
Q 35.5 5.1 35.05 4.75
L 26.05 4.65
Q 19.3 4.65 19.3 4.75 15.15 4.8 15.15 5.85 15.15 6.15 15.5 6.7 15.9 7.25 15.8 8.45 15.8 8.8 15.5 9.8 15.4 10.75 16.35 11.1 21.95 11.1 22.7 11.4 23.55 11.7 25.75 11.75
L 34.15 11.75 Z"/>
</g>
</g>
</svg>
