
<svg xmlns="http://www.w3.org/2000/svg" version="1.1" xmlns:xlink="http://www.w3.org/1999/xlink" preserveAspectRatio="xMinYMin meet" x="0px" y="0px" width="800px" height="600px" viewBox="-40 -40 800 600">
<g id="Eyes_sideglance_open">
<g id="Layer1_0_FILL">
<path fill="#185649" stroke="none" d="
M -40.8 -2.35
Q -40.95 -1.45 -40.8 -0.7 -40.45 0.8 -38.65 0.8 -36.55 0.8 -36.55 -1.05 -36.45 -4.15 -35.05 -7.25 -32.3 -13.35 -25.9 -13.35 -25.4859375 -13.2748046875 -25.1 -13.2
L -25.55 -13
Q -28.1 -11.5 -29.35 -7.4 -30.3 -4.4 -30.3 -1.15 -30.3 3.1 -29.3 6.5 -27.55 12.3 -23.4 12.3 -17.35 12.3 -14.65 6.8 -13.05 3.55 -13.05 0.1 -13.05 -0.9 -13.7 -4.2 -14.05 -5.95 -14.55 -8.1 -15.1 -10.75 -16.5 -12.6 -17.7265625 -14.1638671875 -19.7 -15.4 -20.173828125 -16.98515625 -22.85 -17.35 -26.1 -17.75 -30.15 -16.15 -40.8 -12.05 -40.8 -2.35
M 14.5 -10.2
Q 10.1 -6.4 10.1 -2.1 10.1 -0.85 10.25 -0.25
L 12 0.3
Q 13.85 -1.15 15.7 -5.45 18.4 -9.3 25.85 -10.5
L 25.5 -10.1
Q 24 -8.35 23.2 -3.95 22.6 -0.55 22.6 2.75 22.6 7.35 23.25 9.3 24.5 13.3 28.5 13.3 34.95 13.3 37.2 8.3 38.35 5.8 38.35 1.35 38.35 -7.75 33.95 -11.85 30.2 -15.35 24.25 -14.55 18.8 -13.85 14.5 -10.2 Z"/>
</g>

<g id="Layer1_1_FILL">
<path fill="#185649" stroke="none" d="
M -39 -11.75
Q -39.7 -12.95 -40.35 -12.6 -40.9 -12.3 -40.9 -11.6 -40.9 -11 -40 -10.05 -38.75 -8.75 -36.6 -8.75 -36.35 -8.75 -36 -8.9 -35.5 -9.15 -35.5 -9.65 -35.5 -10.4 -36.55 -10.7 -38.25 -11.2 -39 -11.75
M 10 -11.7
Q 9.5 -11.45 9.5 -11 9.5 -10.2 10.35 -9.5 11.45 -8.5 13.75 -8
L 15 -8
Q 15.25 -8.05 15.55 -8.3 15.9 -8.6 15.9 -8.9 15.9 -9.5 15 -9.9 13.75 -9.85 12.55 -10.6 11.45 -11.4 11.15 -11.55 10.55 -12 10 -11.7 Z"/>
</g>
</g>
</svg>
