
<svg xmlns="http://www.w3.org/2000/svg" version="1.1" xmlns:xlink="http://www.w3.org/1999/xlink" preserveAspectRatio="xMinYMin meet" x="0px" y="0px" width="800px" height="600px" viewBox="-40 -40 800 600">
<g id="Eyes_pumped_shut">
<g id="Layer1_0_FILL">
<path fill="#185649" stroke="none" d="
M -17.2 11.95
Q -17.00625 11.8208984375 -16.9 11.6
L -16.5 11.5
Q -16.45 11.4 -16.3 11 -16.25 10.85 -16.25 10.1 -16.25 8.35 -25.25 2.35 -34.25 -3.7 -34.25 -0.3 -34.25 0.0345703125 -34.1 0.3
L -34.25 1.1
Q -33.5 2.3 -31.3 3.65 -28.95 5.05 -28.25 5.5 -25.45 7.45 -24.1 8.3 -23.969140625 8.384375 -23.85 8.45
L -30.05 8.35
Q -35.138671875 8.3361328125 -35.75 8.55
L -35.75 9.75
Q -35.5 10.3 -36.25 10.75 -36.0486328125 11.15234375 -35.7 11.4 -35.75 11.62265625 -35.75 11.85 -35.75 13.1 -35.6 12.55 -35.25 13 -35.15 13.05 -34.85 13.25 -34 13.25 -32.35 13.05 -29.95 12.85 -25.2 12.4 -18 12.25 -17.45 12.1 -17.2 11.95
M 34.5 -1.6
Q 32.8 -2.75 29.75 -0.6 28.6841796875 0.1541015625 27.8 0.75 25.99296875 1.611328125 23.8 2.85 18.00078125 6.1404296875 16.95 8.55 14.25 10.84453125 14.25 11.35 14.25 12.15 14.6 12.45 14.65 12.45 15.5 12.75 18.25 12.55 21.45 12.7 24.6 12.85 26.5 13.25
L 32.5 13.25
Q 32.75 13.15 33.3 12.95 33.695703125 12.6861328125 33.75 12 33.834765625 11.976171875 33.9 11.9 34 11.75 34.25 11 34.05 10.5 33.3 9.85 32.7 9.35 32.5 9.25 31.7654296875 9.2611328125 31.15 9.3 31.0732421875 9.0337890625 30.85 8.95 30.3 8.9 30 8.75
L 25 8.75
Q 24.55 8.9 23.5 9
L 22.55 9.05 23 8.75
Q 24.45 7.75 29.45 4.35 33.75 1.2 33.75 0.1 33.75 0.01484375 33.75 -0.05 34.75 -0.8466796875 34.75 -1.05 34.75 -2.3 34.5 -1.6 Z"/>
</g>
</g>
</svg>
