
<svg xmlns="http://www.w3.org/2000/svg" version="1.1" xmlns:xlink="http://www.w3.org/1999/xlink" preserveAspectRatio="xMinYMin meet" x="0px" y="0px" width="800px" height="600px" viewBox="-40 -40 800 600">
<g id="Eyes_jaded_open">
<g id="Layer1_0_FILL">
<path fill="#185649" stroke="none" d="
M -23.4 -2.75
Q -29.6 -2.5 -36 -2.25
L -35.75 -1 -35.9 1.9 -33 1.95
Q -33.65 4.8 -33.25 7.9 -32.55 13.2 -27.5 14.55
L -27.15 14.95
Q -24.15 14.25 -22.25 11.95 -18.9 7.85 -19.15 2.5
L -16.15 1.75
Q -16.15 1.65 -16.05 1.5 -14.9 -0.85 -16.5 -3.05 -17.2 -3.05 -23.4 -2.75
M 27.25 -2.9
Q 22.6 -2.5 17.95 -2.6 17.15 -2.6 16.5 -1.9
L 16.25 -0.4 16.45 1.3
Q 16.85 1.45 17.25 1.65 17.85 1.65 18.5 1.65 17.95 5.9 18.75 10.2 19.35 13.65 22.25 15.05 24.75 16.3 27.25 15.25 30.25 13.85 31.35 10.8 32.35 8 32.85 5.2 33.2 3.1 33.25 1.1
L 33.7 0.65
Q 34.5 1.05 35.25 1 35.4 0.95 35.55 0.95
L 36 0.1 35.7 -0.45
Q 36.05 -1.85 35 -3 31.15 -3.15 27.25 -2.9 Z"/>
</g>
</g>
</svg>
