
<svg xmlns="http://www.w3.org/2000/svg" version="1.1" xmlns:xlink="http://www.w3.org/1999/xlink" preserveAspectRatio="xMinYMin meet" x="0px" y="0px" width="800px" height="600px" viewBox="-40 -40 800 600">
<g id="Eyes_happy_open">
<g id="Layer1_0_FILL">
<path fill="#185649" stroke="none" d="
M -21.5 -17.75
Q -25.65 -18.6 -28.6 -16.2 -29.3 -15.6 -29.7 -14.65 -30.05 -13.8 -30.3 -12.85
L -35.7 -16.3 -35.9 -15.3 -30.6 -10.9 -32.15 9.7
Q -32.15 9.8 -32.1 9.85 -31.7 11.05 -31.65 12.1 -31.5 14.9 -29.05 15.45 -27 15.05 -24.9 15.2 -24.35 14.9 -23.95 14.5 -22.1 12.45 -21.55 9.7
L -20.3 -12.8
Q -20.35 -13.05 -20.4 -13.3 -20.85 -15.5 -21.5 -17.75
M 31 -17.75
Q 26.85 -18.6 23.9 -16.2 23.2 -15.6 22.8 -14.65 22.45 -13.8 22.2 -12.85
L 16.8 -16.3 16.6 -15.3 21.9 -10.9 20.35 9.7
Q 20.35 9.8 20.4 9.85 20.8 11.05 20.85 12.1 21 14.9 23.45 15.45 25.5 15.05 27.6 15.2 28.15 14.9 28.55 14.5 30.4 12.45 30.95 9.7
L 32.2 -12.8
Q 32.15 -13.05 32.1 -13.3 31.65 -15.5 31 -17.75 Z"/>
</g>
</g>
</svg>
