
<svg xmlns="http://www.w3.org/2000/svg" version="1.1" xmlns:xlink="http://www.w3.org/1999/xlink" preserveAspectRatio="xMinYMin meet" x="0px" y="0px" width="800px" height="600px" viewBox="-40 -40 800 600">
<g id="Eyes_pumped_open">
<g id="Layer1_0_FILL">
<path fill="#185649" stroke="none" d="
M -27.35 -15.75
Q -27.5 -15.9 -27.5 -16 -30.05 -15.85 -31.05 -14.55 -31.75 -13.65 -31.75 -12.05 -31.75 -10.75 -31.6 -10 -31.5626953125 -9.9734375 -31.55 -9.95 -31.3931640625 -10.66484375 -31.2 -11.3 -31.75 -9.56953125 -31.75 -7 -32.75 -3.45 -32.75 1.55 -32.75 4.85 -31.75 9.05 -31.6271484375 9.564453125 -31.5 10.05
L -29.6 14.35
Q -29.5318359375 14.3861328125 -29.5 14.4 -29.4669921875 14.476171875 -29.45 14.5 -29.397265625 14.55 -29.4 14.55 -29.3212890625 14.6259765625 -29.3 14.65 -28.26171875 15.75 -27 15.75 -22.8 15.75 -21.85 7.5 -21.75 6.5 -21.75 -2.1
L -21.75 -10.5
Q -21.75 -11.4 -22.65 -12.6 -23.75 -14 -23.85 -14.35 -25 -16 -26.15 -15.55 -26.5390625 -15.3705078125 -27.25 -15 -27.2587890625 -15.6130859375 -27.35 -15.75
M 25.3 -15.9
Q 24.95 -15.8 24.75 -15 20.65 -15.2 19.6 -7.85 19.25 -5.6 19.25 1.8 19.25 7.55 19.5 9.15 20.3 14 23.5 15.75
L 26.5 15.75
Q 30.9 12.35 31.9 7.4 32.25 5.75 32.25 -0.85 32.25 -7 32.05 -8.7 31.45 -13.85 29 -16.25 25.95 -16.2 25.3 -15.9 Z"/>
</g>

<g id="Layer1_1_FILL">
<path fill="#185649" stroke="none" d="
M -30.9 -19.8
Q -36.75 -23.4 -36.75 -19.8 -36.75 -19 -36.65 -18.7
L -36.6 -18.5
Q -34.65 -19 -25.9 -13.2 -16.9 -7.25 -15.75 -7.25 -14.95 -7.25 -14.75 -7.4 -14.6 -7.6 -14.5 -7.75
L -14.25 -8.5
Q -16.1 -10.3 -18.95 -11.9 -23.55 -14.55 -24.25 -15 -24.8 -15.25 -30.9 -19.8
M 13.5 -7.25
Q 14.85 -7.9 18.75 -10.55 22.55 -13.1 25.3 -14.35 29.3 -16.15 32.85 -18.3 36.65 -20.6 36.65 -21.35 36.65 -22.1 36.55 -22.25 36.4 -22.4 36.4 -22.5 35.6 -22.65 30.35 -19.95 24.45 -16.8 22.75 -16 21.6 -15.55 17.05 -12.4 12.25 -9.15 12.25 -8.6 12.25 -7.8 12.6 -7.55 12.8 -7.4 13.5 -7.25 Z"/>
</g>

<g id="Layer1_2_FILL">
<path fill="#185649" stroke="none" d="
M -35.25 -10.75
Q -35.05 -10.1 -33.65 -9.2 -32.3 -8.25 -31.5 -8.25 -30.7 -8.25 -30.45 -8.7
L -30.25 -9.5
Q -31.5 -11.15 -33 -11.85 -34.85 -12.7 -35.25 -10.75
M 16.75 -7.5
L 17.35 -6.35
Q 18.3 -5.25 20 -5.25 20.8 -5.25 21 -5.7 21.15 -6 21.25 -6.5 20.5 -7.5 18.85 -8.1 17.7 -8.5 17 -8.5 16.9 -8.3 16.8 -8.2 16.75 -8.2 16.75 -7.5 Z"/>
</g>
</g>
</svg>
