
<svg xmlns="http://www.w3.org/2000/svg" version="1.1" xmlns:xlink="http://www.w3.org/1999/xlink" preserveAspectRatio="xMinYMin meet" x="0px" y="0px" width="800px" height="600px" viewBox="-40 -40 800 600">
<g id="Eyes_@_@_shut">
<g id="Layer1_0_FILL">
<path fill="#185649" stroke="none" d="
M -19.7 -0.15
Q -21.6 -1.1 -27.05 -3.5 -28.25 -4.05 -32.6 -7 -36.3 -9 -36.3 -5.75 -36.3 -4.95 -36 -4.5 -35.85 -4.3 -35.3 -3.85 -31.7 -2.35 -28.45 0.05 -24.7 2.8 -22.9 3.75 -23.1 3.9 -29 7.7 -34.8 11.7 -34.8 13.1 -34.8 13.8 -34.65 14.05 -34.2 14.8 -32.65 14.8 -31.95 14.8 -24.3 9.5 -16.55 4.15 -16.55 3.35 -16.55 1.45 -19.7 -0.15
M 30.8 -0.6
Q 35.85 -3.55 35.85 -5.25 35.85 -8.4 32.35 -6.35 28.15 -3.3 26.75 -2.6 19.95 0.75 19.65 0.95 16.1 2.95 16.1 4.4 16.1 5.7 18.6 6.9 22.85 8.9 23.75 9.5 24.85 10.3 28.55 11.95 32.7 13.8 34 13.8 35 13.8 35.5 13.05 35.85 12.5 35.85 12 35.85 10.15 30.8 8.15 23 5.1 22 4.5 22.2 4.4 30.8 -0.6 Z"/>
</g>
</g>
</svg>
