
<svg xmlns="http://www.w3.org/2000/svg" version="1.1" xmlns:xlink="http://www.w3.org/1999/xlink" preserveAspectRatio="xMinYMin meet" x="0px" y="0px" width="800px" height="600px" viewBox="-40 -40 800 600">
<g id="Eyes_sideglance_shut">
<g id="Layer1_0_FILL">
<path fill="#185649" stroke="none" d="
M -13.6 5.65
Q -13.6 4.3 -14.55 4 -15.7 3.7 -17.6 5 -18.5 5.65 -19.8 7.35 -21.65 8.8 -26.75 8.8 -32 8.8 -34.65 6.95 -37.3 5.05 -37.5 5.05 -38.25 5.05 -38.7 5.4 -39.15 5.75 -39.25 5.75
L -39.35 7.25
Q -39.35 8.75 -37.4 10.25 -34.05 12.8 -26.75 12.8 -21.7 12.8 -17.5 10.25 -13.6 7.9 -13.6 5.65
M 32.3 9.8
Q 29.2 12 21.55 12 20.25 12 15.3 8.25 12.05 5.8 12.05 10 12.05 11.7 14.25 13.3 17.7 15.8 25 15.8 29.9 15.8 33.7 13.8 37.3 11.9 37.3 9.65 37.3 9.1 37.05 8.55 36.55 7.55 35.4 7.55 34.7 7.55 33.95 8.25 32.75 9.45 32.3 9.8 Z"/>
</g>

<g id="Layer1_1_FILL">
<path fill="#185649" stroke="none" d="
M -36.5 9.05
Q -36.5 7.7 -37.45 8 -39.75 8.65 -40.35 8.65
L -41.65 8.65
Q -42.15 8.75 -42.15 9.4 -41.85 10.1 -41 10.65 -39.4 10.5 -37 10 -36.7 9.75 -36.6 9.65 -36.5 9.45 -36.5 9.05
M 9.25 10.9
Q 8.75 11 8.75 11.65 8.55 12.9 10.75 12.9 12.35 12.9 13.75 12.35 15.15 11.8 15.15 11.25 15.15 9.95 14 10.25 11.4 10.9 10.8 10.9
L 9.25 10.9 Z"/>
</g>
</g>
</svg>
